SplineFontDB: 3.0
FontName: SantaBarbaraStreets
FullName: Santa Barbara Streets
FamilyName: SantaBarbaraStreets
Weight: Medium
Copyright: Created by George Williams with FontForge 2.0 (http://fontforge.sf.net)
UComments: "2013-1-31: Created." 
Version: 001.000
ItalicAngle: 0
UnderlinePosition: -100
UnderlineWidth: 50
Ascent: 800
Descent: 200
LayerCount: 2
Layer: 0 0 "Back"  1
Layer: 1 0 "Fore"  0
NeedsXUIDChange: 1
XUID: [1021 964 2052049571 13569794]
FSType: 8
OS2Version: 0
OS2_WeightWidthSlopeOnly: 0
OS2_UseTypoMetrics: 1
CreationTime: 1359665098
ModificationTime: 1393454516
PfmFamily: 17
TTFWeight: 500
TTFWidth: 5
LineGap: 90
VLineGap: 0
OS2TypoAscent: 0
OS2TypoAOffset: 1
OS2TypoDescent: 0
OS2TypoDOffset: 1
OS2TypoLinegap: 90
OS2WinAscent: 0
OS2WinAOffset: 1
OS2WinDescent: 0
OS2WinDOffset: 1
HheadAscent: 0
HheadAOffset: 1
HheadDescent: 0
HheadDOffset: 1
OS2Vendor: 'PfEd'
Lookup: 1 0 0 "dull but fullsized digits"  {"dull but fullsized digits-1" ("ss02" ) } ['ss02' ('DFLT' <'dflt' > 'latn' <'dflt' > ) ]
Lookup: 4 0 0 "Small ligatures for abreviations"  {"Small ligatures for abreviations-1"  } ['ss01' ('DFLT' <'dflt' > 'latn' <'dflt' > ) ]
Lookup: 1 0 0 "small digits for street numbers"  {"small digits for street numbers-1" ("ss01" ) } ['ss01' ('DFLT' <'dflt' > 'latn' <'dflt' > ) ]
Lookup: 4 0 1 "Standard Ligatures in Latin"  {"Standard Ligatures in Latin-1"  } ['liga' ('DFLT' <'dflt' > 'latn' <'dflt' > ) ]
Lookup: 1 0 0 "'smcp' Lowercase to Small Capitals in Latin lookup 0"  {"'smcp' Lowercase to Small Capitals in Latin lookup 0 subtable"  } ['smcp' ('latn' <'dflt' > ) ]
Lookup: 1 0 0 "'c2sc' Capitals to Small Capitals in Latin lookup 0"  {"'c2sc' Capitals to Small Capitals in Latin lookup 0 subtable"  } ['c2sc' ('latn' <'dflt' > ) ]
Lookup: 260 0 0 "Mark to base attachment"  {"Mark to base attachment-1"  } ['mark' ('DFLT' <'dflt' > 'latn' <'dflt' > ) ]
Lookup: 258 0 0 "Latin Kerning"  {"Latin Kerning-1" [150,15,2] } ['kern' ('DFLT' <'dflt' > 'latn' <'dflt' > ) ]

StartChar: A
Encoding: 65 65 0
Width: 357
VWidth: 0
Flags: W
HStem: 0 21G<76 118.5> 182 76<123.683 221.875> 616 20G<169 231>
VStem: 26 92<81.0604 367.425> 232 92<22.771 275.742>
AnchorPoint: "RingTop" 200 630 basechar 0
AnchorPoint: "Top" 190 660 basechar 0
LayerCount: 2
Back
Fore
SplineSet
180 476 m 1
 135 392 128 308 122 244 c 1
 158 257 188 258 214 258 c 0
 216 258 220 258 222 258 c 1
 222 264 222 269 222 275 c 0
 222 347 200 413 180 476 c 1
106 0 m 0
 46 0 26 123 26 215 c 0
 26 379 118 636 220 636 c 0
 242 636 263 621 263 602 c 0
 263 585 254 572 241 557 c 0
 236 552 231 545 235 538 c 0
 303 419 324 312 324 149 c 0
 324 68 312 -18 256 -18 c 0
 228 -18 210 6 210 31 c 0
 210 53 232 114 232 154 c 0
 232 172 216 182 194 182 c 0
 168 182 176 182 146 182 c 0
 119 182 118 164 118 147 c 0
 118 99 154 74 154 34 c 0
 154 11 131 0 106 0 c 0
EndSplineSet
Substitution2: "small digits for street numbers-1" A.ss01
Substitution2: "'c2sc' Capitals to Small Capitals in Latin lookup 0 subtable" a.sc
EndChar

StartChar: B
Encoding: 66 66 1
Width: 358
VWidth: 0
Flags: W
HStem: 0 91<157.188 195.57> 284 89<148.281 195.068> 543 92<130.013 221.619>
VStem: 216 97<111.067 276.38> 226 93<411.787 540.428>
LayerCount: 2
Back
Fore
SplineSet
186 543 m 0xe8
 181 543 177 541 168 536 c 1
 160 502 144 432 144 405 c 0
 144 390 150 373 165 373 c 0
 207 373 226 479 226 501 c 0
 226 524 220 543 186 543 c 0xe8
148 272 m 9
 147 249 145 235 145 212 c 0
 145 165 154 91 172 91 c 0
 198 91 216 159 216 207 c 0xf0
 216 255 204 284 170 284 c 0
 160 284 154 281 148 272 c 9
79 536 m 17
 60 545 42 546 42 570 c 0
 42 602 68 632 101 632 c 0
 123 632 138 635 158 635 c 0
 254 635 319 600 319 497 c 0xe8
 319 429 290 383 255 334 c 1
 291 298 313 252 313 190 c 0
 313 105 277 0 208 0 c 0
 154 0 124 0 70 0 c 0
 53 0 44 14 44 35 c 0
 44 60 58 71 67 94 c 25
 55 256 l 17
 47 277 35 288 35 309 c 0
 35 336 51 346 61 369 c 25
 79 536 l 17
EndSplineSet
Substitution2: "small digits for street numbers-1" B.ss01
Substitution2: "'c2sc' Capitals to Small Capitals in Latin lookup 0 subtable" b.sc
EndChar

StartChar: N
Encoding: 78 78 4
Width: 424
VWidth: 0
Flags: W
HStem: -0 21G<130 156 292.5 320.5> 403 232<78 151.5>
VStem: 45 87<149.859 402.125> 257 93<9.39175 170.125> 292 89<561.417 626.283>
AnchorPoint: "Top" 212 660 basechar 0
LayerCount: 2
Back
Fore
SplineSet
44 592 m 0xf0
 44 614 65 635 91 635 c 0
 113 635 135 621 148 601 c 0
 185 543 199 508 232 448 c 9
 255 509 259 547 292 603 c 24
 304 623 319 634 342 634 c 0
 366 634 381 618 381 597 c 0xe8
 381 536 317 466 317 318 c 0
 317 216 350 114 350 53 c 0
 350 23 334 0 307 -0 c 0
 278 0 263 21 257 48 c 0
 232 154 235 268 160 394 c 0
 156 400 153 403 150 403 c 0
 138 403 132 352 132 324 c 0
 132 235 141 187 168 101 c 0
 175 80 179 68 179 46 c 0
 179 20 169 -2 143 -2 c 0
 117 -2 100 12 90 35 c 0
 59 109 45 152 45 242 c 0
 45 334 61 406 75 485 c 0
 76 490 76 494 76 498 c 0
 76 519 67 537 57 553 c 0
 49 565 44 579 44 592 c 0xf0
EndSplineSet
Substitution2: "small digits for street numbers-1" N.ss01
Substitution2: "'c2sc' Capitals to Small Capitals in Latin lookup 0 subtable" n.sc
EndChar

StartChar: tilde
Encoding: 732 732 5
Width: 0
VWidth: 0
Flags: W
HStem: 662 42<148.63 364.842> 682 42<60.9883 287.37>
AnchorPoint: "Top" 210 659 mark 0
LayerCount: 2
Fore
SplineSet
130 682 m 0x40
 87 682 69 667 31 656 c 17
 31 710 104 724 162 724 c 0x40
 215 724 241 704 292 704 c 0
 324 704 362 722 396 741 c 1
 397 738 397 735 397 732 c 0
 397 687 337 662 288 662 c 0x80
 226 662 190 682 130 682 c 0x40
EndSplineSet
EndChar

StartChar: S
Encoding: 83 83 6
Width: 398
VWidth: 0
Flags: W
HStem: 0 90<142.619 222.511> 554 82<190.035 235.365>
VStem: 43 110<94.8372 163.03> 55 112<426.62 533.556> 244 95<112.073 222.522>
AnchorPoint: "Top" 200 660 basechar 0
LayerCount: 2
Back
Fore
SplineSet
55 478 m 0xd8
 55 568 136 636 228 636 c 0
 280 636 341 615 341 567 c 0
 341 523 303 484 264 484 c 0
 245 484 230 505 230 523 c 0
 230 535 234 542 236 554 c 17
 207 554 167 527 167 490 c 0xd8
 167 381 339 339 339 162 c 0
 339 71 250 0 170 0 c 0
 86 0 43 24 43 102 c 0
 43 142 63 181 108 181 c 0
 131 181 153 158 153 140 c 0xe8
 153 121 145 112 141 94 c 25
 148 92 152 90 160 90 c 0
 184 90 244 99 244 165 c 0
 244 264 55 334 55 478 c 0xd8
EndSplineSet
Substitution2: "small digits for street numbers-1" S.ss01
Substitution2: "'c2sc' Capitals to Small Capitals in Latin lookup 0 subtable" s.sc
EndChar

StartChar: T
Encoding: 84 84 7
Width: 400
VWidth: 0
Flags: W
HStem: -6 21G<183.5 214> 503 131<58.9246 125.155> 541 88<245.355 307.205>
VStem: 126 107<227.769 533.026> 144 113<13.5282 376.202>
AnchorPoint: "Top" 210 660 basechar 0
LayerCount: 2
Back
Fore
SplineSet
146 536 m 25xb0
 117 523 101 503 72 503 c 0
 49 503 34 527 34 549 c 0
 34 610 77 634 116 634 c 0xd0
 157 634 222 633 276 629 c 0
 331 625 372 627 372 589 c 0
 372 555 351 513 328 513 c 0
 308 513 301 526 283 538 c 0
 280 540 275 541 272 541 c 0
 236 541 233 467 233 439 c 0xb0
 233 311 257 281 257 177 c 0
 257 125 253 103 253 51 c 0
 253 33 229 -6 199 -6 c 0
 168 -6 138 12 138 45 c 0
 138 76 144 112 144 155 c 0xa8
 144 228 126 299 126 382 c 0
 126 442 138 476 146 536 c 25xb0
EndSplineSet
Substitution2: "small digits for street numbers-1" T.ss01
Substitution2: "'c2sc' Capitals to Small Capitals in Latin lookup 0 subtable" t.sc
EndChar

StartChar: n
Encoding: 110 110 8
Width: 421
VWidth: 0
Flags: W
HStem: -4 21G<86.5 121 291.5 337> 356 70<184.952 274.993>
VStem: 44 91<374 417.511> 53 101<8.57217 203.302> 59 85<71.8896 311.251> 295 85<108.323 335.694>
AnchorPoint: "Top" 207 490 basechar 0
LayerCount: 2
Fore
SplineSet
135 381 m 0xe4
 135 378 135 376 135 374 c 1xe4
 161 406 181 426 241 426 c 0
 369 426 380 296 380 197 c 0
 380 121 373 -4 301 -4 c 0
 282 -4 252 9 252 27 c 0
 252 87 295 113 295 217 c 0
 295 223 295 230 295 237 c 0
 295 289 291 356 234 356 c 0
 188 356 144 298 144 248 c 0xcc
 144 170 154 131 154 69 c 0
 154 33 141 -2 101 -2 c 0
 72 -2 53 29 53 60 c 0xd4
 53 118 59 148 59 206 c 0xcc
 59 244 44 306 44 338 c 0
 44 382 44 426 97 426 c 0
 132 426 135 396 135 381 c 0xe4
EndSplineSet
Substitution2: "'smcp' Lowercase to Small Capitals in Latin lookup 0 subtable" n.sc
EndChar

StartChar: t
Encoding: 116 116 9
Width: 218
VWidth: 0
Flags: W
HStem: -13 101<135.849 178.25> 337 89<139.117 198.208>
VStem: 45 85<89.7391 336.433>
AnchorPoint: "Top" 115 660 basechar 0
LayerCount: 2
Fore
SplineSet
190 36 m 0
 190 6 167 -13 141 -13 c 0
 131 -13 121 -10 112 -6 c 0
 47 27 48 123 45 214 c 0
 43 264 50 299 46 344 c 1
 31 351 23 361 23 377 c 0
 23 399 42 421 53 436 c 1
 62 478 66 561 111 561 c 0
 136 561 151 538 151 514 c 0
 151 503 139 426 139 426 c 1
 188 426 238 410 238 366 c 0
 238 345 224 329 199 329 c 0
 182 329 172 337 155 337 c 0
 123 337 130 249 130 199 c 0
 130 167 126 100 150 88 c 0
 172 77 190 59 190 36 c 0
EndSplineSet
Substitution2: "'smcp' Lowercase to Small Capitals in Latin lookup 0 subtable" t.sc
EndChar

StartChar: R
Encoding: 82 82 10
Width: 352
VWidth: 0
Flags: W
HStem: -6 21G<70 107.5 254 283> 540 94<95.7276 206.876>
VStem: 39 98<7.65771 213.532> 49 73<83.3761 246.851 326 506.177> 215 99<391.259 533.632> 224 91<0.793053 139.651>
AnchorPoint: "Top" 166 660 basechar 0
LayerCount: 2
Back
Fore
SplineSet
124 326 m 1xc8
 182 357 215 407 215 475 c 0
 215 505 208 540 174 540 c 0
 144 540 141 491 133 455 c 24
 122 406 127 376 124 326 c 1xc8
39 81 m 0xe0
 39 132 49 163 49 216 c 0
 49 280 43 320 43 388 c 0
 43 445 55 475 62 531 c 25
 48 540 27 542 27 555 c 0
 27 610 51 634 144 634 c 0
 248 634 314 562 314 474 c 0xd8
 314 395 277 339 223 293 c 0
 217 288 220 280 225 274 c 0
 284 200 315 115 315 45 c 0
 315 17 301 -6 265 -6 c 0
 243 -6 229 13 224 34 c 0
 206 104 206 147 182 215 c 24
 176 231 165 247 146 247 c 0
 133 247 122 234 122 221 c 0xd4
 122 168 137 138 137 79 c 0
 137 41 126 -4 89 -4 c 0
 51 -4 39 41 39 81 c 0xe0
EndSplineSet
Substitution2: "small digits for street numbers-1" R.ss01
Substitution2: "'c2sc' Capitals to Small Capitals in Latin lookup 0 subtable" r.sc
EndChar

StartChar: C
Encoding: 67 67 11
Width: 374
VWidth: 0
Flags: W
HStem: -1 80<175.358 244.128> 557 80<196.265 264.5>
VStem: 29 107<162.053 456.037> 247 91<81.7625 153.439>
AnchorPoint: "Top" 230 660 basechar 0
LayerCount: 2
Back
Fore
SplineSet
29 313 m 0
 29 476 98 637 244 637 c 0
 285 637 323 610 323 568 c 0
 323 539 307 508 278 508 c 0
 257 508 244 521 238 540 c 0
 234 552 226 557 218 557 c 0
 212 557 206 553 202 548 c 0
 166 498 136 417 136 318 c 0
 136 220 150 79 211 79 c 0
 231 79 247 94 247 114 c 0
 247 141 219 147 219 173 c 0
 219 196 243 210 262 210 c 0
 263 210 262 210 263 210 c 0
 314 210 338 168 338 123 c 0
 338 51 296 -1 232 -1 c 0
 85 -1 29 167 29 313 c 0
EndSplineSet
Substitution2: "small digits for street numbers-1" C.ss01
Substitution2: "'c2sc' Capitals to Small Capitals in Latin lookup 0 subtable" c.sc
EndChar

StartChar: D
Encoding: 68 68 12
Width: 388
VWidth: 0
Flags: W
HStem: -2 21G<133.5 235> 615 20G<117.5 222>
VStem: 71 98<119.363 507.716> 92 83<69.3806 308.066 316.822 359.162 365.486 532.643> 256 98<177.595 489.735>
AnchorPoint: "Top" 190 660 basechar 0
LayerCount: 2
Back
Fore
SplineSet
174 69 m 1xd8
 250 88 256 249 256 368 c 0
 256 440 247 514 180 533 c 1
 171 471 169 416 169 363 c 0xe8
 169 281 175 207 175 127 c 0
 175 108 175 89 174 69 c 1xd8
92 106 m 0xd8
 92 148 71 207 71 313 c 0xe8
 71 395 83 447 92 502 c 0
 93 508 94 514 94 520 c 0
 94 531 90 541 77 546 c 0
 66 551 58 560 58 572 c 0
 58 619 101 635 134 635 c 0
 310 635 354 504 354 369 c 0
 354 205 315 -2 155 -2 c 0
 153 -2 152 -2 150 -2 c 0
 117 -2 77 -1 77 36 c 0
 77 64 92 79 92 106 c 0xd8
EndSplineSet
Substitution2: "small digits for street numbers-1" D.ss01
Substitution2: "'c2sc' Capitals to Small Capitals in Latin lookup 0 subtable" d.sc
EndChar

StartChar: E
Encoding: 69 69 13
Width: 332
VWidth: 0
Flags: W
HStem: -2 99<165.723 287.71> 292 84<150.233 213.208> 537 98<173.398 300.25>
VStem: 19 234<292.266 361.643> 42 273<537.303 613.325> 53 97<376.293 509.185>
AnchorPoint: "Bottom" 159 -27 basechar 0
AnchorPoint: "Top" 180 660 basechar 0
LayerCount: 2
Back
Fore
SplineSet
53 381 m 21xe4
 55 430 62 480 72 529 c 1
 54 537 42 555 42 568 c 0xe8
 42 618 90 635 150 635 c 2xe4
 160 635 l 2
 274 635 315 634 315 565 c 0xe8
 315 539 292 531 266 531 c 0
 242 531 229 537 205 537 c 0
 189 537 177 529 173 514 c 0
 163 480 150 441 150 393 c 4xe4
 150 378 151 376 159 376 c 4
 161 376 164 376 168 376 c 4
 217 376 253 365 253 321 c 4
 253 300 239 284 214 284 c 4
 197 284 187 292 170 292 c 4
 145 292 145 273 145 256 c 20
 145 251 145 246 145 242 c 0
 145 195 154 166 165 117 c 8
 167 107 172 98 181 97 c 0
 234 93 302 96 302 42 c 0
 302 18 284 -2 260 -2 c 0
 222 -2 201 12 164 12 c 0
 137 12 119 4 94 4 c 0
 73 4 46 12 46 34 c 0
 46 59 59 69 78 89 c 1
 67 155 60 217 54 278 c 5
 32 285 19 295 19 315 c 28xf0
 19 344 40 355 53 381 c 21xe4
EndSplineSet
Substitution2: "small digits for street numbers-1" E.ss01
Substitution2: "'c2sc' Capitals to Small Capitals in Latin lookup 0 subtable" e.sc
EndChar

StartChar: F
Encoding: 70 70 14
Width: 360
VWidth: 0
Flags: W
HStem: -3 21G<129 164.5> 282 93<173.348 263.862> 547 86<194.015 313.672>
VStem: 86 113<13.4008 149.85>
LayerCount: 2
Back
Fore
SplineSet
173 375 m 9
 223 373 275 375 275 319 c 0
 275 301 267 282 247 282 c 0
 203 282 198 294 168 291 c 9
 167 271 165 259 165 239 c 0
 165 159 199 96 199 49 c 0
 199 21 181 -3 148 -3 c 0
 110 -3 92 26 86 64 c 0
 74 145 73 192 65 274 c 17
 53 286 38 298 38 320 c 0
 38 346 57 360 73 377 c 1
 79 426 86 471 98 527 c 1
 75 534 57 548 57 563 c 0
 57 627 163 633 208 633 c 0
 263 633 340 625 340 579 c 0
 340 553 329 531 308 531 c 0
 284 531 268 547 232 547 c 0
 210 547 197 543 190 512 c 0
 178 459 175 429 173 375 c 9
EndSplineSet
Substitution2: "small digits for street numbers-1" F.ss01
Substitution2: "'c2sc' Capitals to Small Capitals in Latin lookup 0 subtable" f.sc
EndChar

StartChar: G
Encoding: 71 71 15
Width: 404
VWidth: 0
Flags: W
HStem: -6 90<169.024 239.332> 287 103<173.105 256> 569 73<189.251 252.53>
VStem: 31 94<165.406 458.175> 252 111<96.6219 290.594>
LayerCount: 2
Back
Fore
SplineSet
283 390 m 0
 362 390 363 359 363 271 c 2
 363 264 l 2
 363 217 362 165 349 119 c 0
 329 49 286 -6 213 -6 c 0
 92 -6 31 173 31 318 c 0
 31 467 102 642 240 642 c 0
 292 642 337 605 337 553 c 0
 337 528 324 508 301 508 c 0
 270 508 264 520 256 540 c 0
 249 558 242 569 225 569 c 0
 161 569 125 407 125 288 c 0
 125 203 151 84 200 84 c 0
 231 84 251 113 252 144 c 0
 254 204 254 234 256 292 c 25
 231 290 217 287 193 287 c 0
 175 287 161 291 161 322 c 0
 161 384 191 390 283 390 c 0
EndSplineSet
Substitution2: "small digits for street numbers-1" G.ss01
Substitution2: "'c2sc' Capitals to Small Capitals in Latin lookup 0 subtable" g.sc
EndChar

StartChar: U
Encoding: 85 85 16
Width: 392
VWidth: 0
Flags: W
HStem: -3 79<157.087 221.865> 615 20G<105.5 158.5 258.5 307.5>
VStem: 36 95<130.196 470.576> 258 96<158.437 470.413>
AnchorPoint: "RingTop" 210 630 basechar 0
AnchorPoint: "Top" 202 654.305 basechar 0
LayerCount: 2
Back
Fore
SplineSet
147 635 m 0
 170 635 190 619 190 596 c 0
 190 538 131 512 131 245 c 0
 131 195 138 76 187 76 c 0
 251 76 258 212 258 293 c 0
 258 455 217 496 217 590 c 0
 217 618 248 637 269 637 c 0
 346 637 354 451 354 338 c 0
 354 191 313 -3 194 -3 c 0
 55 -3 36 193 36 334 c 0
 36 459 64 635 147 635 c 0
EndSplineSet
Substitution2: "small digits for street numbers-1" U.ss01
Substitution2: "'c2sc' Capitals to Small Capitals in Latin lookup 0 subtable" u.sc
EndChar

StartChar: V
Encoding: 86 86 17
Width: 434
VWidth: 0
Flags: W
HStem: 613 20G<104.5 153 281 322.5>
VStem: 46 104<246.113 510.673> 286 100<228.818 486.09>
LayerCount: 2
Back
Fore
SplineSet
167 59 m 1
 103 115 46 259 46 405 c 0
 46 509 69 633 140 633 c 0
 166 633 184 609 184 583 c 0
 184 503 150 517 150 335 c 0
 150 232 188 154 219 112 c 1
 268 159 286 236 286 322 c 0
 286 525 224 535 224 594 c 0
 224 625 270 637 292 637 c 0
 353 637 386 484 386 364 c 0
 386 205 277 -7 213 -7 c 0
 188 -7 161 20 161 37 c 0
 161 48 163 47 167 59 c 1
EndSplineSet
Substitution2: "small digits for street numbers-1" V.ss01
Substitution2: "'c2sc' Capitals to Small Capitals in Latin lookup 0 subtable" v.sc
EndChar

StartChar: W
Encoding: 87 87 18
Width: 442
VWidth: 0
Flags: W
HStem: -4 20G<144 197.5 278 304> 618 20G<90 134>
VStem: 52 95<266.302 594.25> 294 107<342.32 609.777>
AnchorPoint: "Top" 226 660 basechar 0
LayerCount: 2
Back
Fore
SplineSet
312 338 m 0
 312 431 294 470 294 551 c 0
 294 590 318 629 357 629 c 0
 387 629 401 571 401 525 c 0
 401 522 401 519 401 516 c 8
 395 326 399 218 337 33 c 0
 330 11 318 -5 290 -5 c 0
 266 -5 262 13 262 38 c 0
 262 102 261 152 237 213 c 1
 218 185 208 142 202 96 c 9
 210 71 222 56 222 32 c 0
 222 13 207 -4 188 -4 c 0
 100 -4 52 352 52 433 c 0
 52 519 58 638 122 638 c 0
 146 638 163 617 163 593 c 0
 163 519 148 474 147 397 c 24
 147 344 150 309 160 262 c 1
 173 298 179 316 194 353 c 0
 202 372 214 387 228 387 c 0
 240 387 253 377 265 351 c 0
 280 319 289 300 305 268 c 17
 308 295 312 312 312 338 c 0
EndSplineSet
Substitution2: "small digits for street numbers-1" W.ss01
Substitution2: "'c2sc' Capitals to Small Capitals in Latin lookup 0 subtable" w.sc
EndChar

StartChar: X
Encoding: 88 88 19
Width: 396
VWidth: 0
Flags: W
HStem: -6 21G<64.5 103 279 306> 617 20G<65 92.5>
VStem: 31 105<5.26392 173.911 501.455 623.877> 239 99<2.01562 146.681>
LayerCount: 2
Back
Fore
SplineSet
124 355 m 9
 88 444 30 500 30 584 c 0
 30 612 51 637 79 637 c 0
 106 637 127 619 133 592 c 0
 147 528 161 485 182 440 c 9
 212 498 219 537 259 589 c 24
 278 614 296 631 328 631 c 0
 346 631 369 611 369 593 c 0
 369 576 359 565 345 540 c 0
 318 492 275 421 241 360 c 0
 236 350 233 341 233 332 c 0
 233 323 235 315 240 306 c 0
 269 247 338 141 338 41 c 0
 338 15 320 -6 292 -6 c 0
 266 -6 239 9 239 35 c 0
 239 85 210 185 183 242 c 1
 163 198 136 135 136 48 c 0
 136 20 117 -6 89 -6 c 0
 40 -6 31 33 31 71 c 0
 31 150 86 256 124 355 c 9
EndSplineSet
Substitution2: "small digits for street numbers-1" X.ss01
Substitution2: "'c2sc' Capitals to Small Capitals in Latin lookup 0 subtable" x.sc
EndChar

StartChar: Y
Encoding: 89 89 20
Width: 362
VWidth: 0
Flags: W
HStem: -6 21G<168.5 203> 614 20G<63 114.5 252 301.5>
VStem: 32 298<503 588> 134 100<5.57269 238.753> 138 74<40.2935 323.992>
AnchorPoint: "Top" 184 660 basechar 0
LayerCount: 2
Back
Fore
SplineSet
191 -6 m 0xd0
 146 -6 134 31 134 67 c 0xd0
 134 122 138 162 138 209 c 0xc8
 138 226 137 244 136 264 c 8
 134 294 134 312 118 338 c 0
 75 407 32 477 32 550 c 0
 32 588 44 634 82 634 c 0
 147 634 127 498 168 416 c 0
 175 403 180 399 183 399 c 0
 188 399 190 407 192 412 c 0
 236 500 217 635 287 635 c 0
 316 635 330 608 330 574 c 0xe0
 330 503 292 414 232 324 c 0
 214 297 212 276 212 244 c 0xc8
 212 131 234 87 234 38 c 0
 234 14 215 -6 191 -6 c 0xd0
EndSplineSet
Substitution2: "small digits for street numbers-1" Y.ss01
Substitution2: "'c2sc' Capitals to Small Capitals in Latin lookup 0 subtable" y.sc
EndChar

StartChar: Z
Encoding: 90 90 21
Width: 400
VWidth: 0
Flags: W
HStem: -3 89<156.996 296.183> 547 83<136.282 244.377>
VStem: 53 101<88.2052 175.189> 245 119<498.103 597>
LayerCount: 2
Back
Fore
SplineSet
195 630 m 0
 265 630 364 632 364 562 c 0
 364 527 347 509 332 478 c 24
 273 359 231 300 174 176 c 0
 166 159 154 134 154 115 c 0
 154 98 163 86 195 86 c 0
 235 86 259 93 298 93 c 0
 323 93 350 83 350 55 c 0
 350 4 297 -3 241 -3 c 0
 220 -3 199 -2 180 -2 c 0
 94 -2 53 32 53 94 c 0
 53 155 115 259 161 362 c 24
 189 425 216 454 244 518 c 0
 245 520 245 523 245 525 c 0
 245 537 236 547 224 547 c 4
 179 547 142 521 112 521 c 0
 88 521 68 541 68 565 c 0
 68 624 136 630 195 630 c 0
EndSplineSet
Substitution2: "small digits for street numbers-1" Z.ss01
Substitution2: "'c2sc' Capitals to Small Capitals in Latin lookup 0 subtable" z.sc
EndChar

StartChar: O
Encoding: 79 79 22
Width: 348
VWidth: 0
Flags: W
HStem: -1 77<152.006 205.817> 619 20G<159 194>
VStem: 22 90<157.567 481.85> 229 87<115.227 429.729>
AnchorPoint: "Top" 176 656.178 basechar 0
LayerCount: 2
Back
Fore
SplineSet
183 542 m 17
 118 503 112 411 112 320 c 0
 112 299 117 258 123 216 c 0
 132 148 147 76 178 76 c 0
 225 76 229 196 229 276 c 0
 229 434 177 484 177 514 c 0
 177 525 181 531 183 542 c 17
235 574 m 1
 251 552 266 549 278 525 c 0
 314 449 316 391 316 293 c 0
 316 167 290 -1 182 -1 c 0
 68 -1 22 182 22 324 c 0
 22 407 39 487 68 546 c 0
 96 603 141 639 177 639 c 0
 211 639 228 611 235 574 c 1
EndSplineSet
Substitution2: "small digits for street numbers-1" O.ss01
Substitution2: "'c2sc' Capitals to Small Capitals in Latin lookup 0 subtable" o.sc
EndChar

StartChar: P
Encoding: 80 80 23
Width: 424
VWidth: 0
Flags: W
HStem: -3 21G<131 171.5> 537 97<201.87 263.439>
VStem: 77 101<326.34 507.766> 94 107<10.9804 239.874> 280 106<392.597 520.23>
LayerCount: 2
Back
Fore
SplineSet
77 383 m 24xe8
 77 426 89 468 96 493 c 0
 97 498 98 503 98 508 c 0
 98 518 95 528 84 531 c 0
 71 535 58 545 58 554 c 0
 58 567 71 595 101 614 c 0
 121 626 148 634 182 634 c 0
 216 634 251 626 284 617 c 0
 353 599 386 554 386 471 c 0
 386 340 286 274 177 253 c 9
 186 195 201 164 201 105 c 0
 201 57 199 -3 144 -3 c 0
 118 -3 94 14 94 39 c 0xd8
 94 80 102 104 100 142 c 12
 95 236 78 289 77 383 c 24xe8
207 537 m 1
 188 469 177 400 178 324 c 1xe8
 224 344 280 394 280 461 c 0
 280 517 251 535 207 537 c 1
EndSplineSet
Substitution2: "small digits for street numbers-1" P.ss01
Substitution2: "'c2sc' Capitals to Small Capitals in Latin lookup 0 subtable" p.sc
EndChar

StartChar: Q
Encoding: 81 81 24
Width: 420
VWidth: 0
Flags: W
HStem: 2 633<113 252>
VStem: 40 98<172.626 469.913> 256 86<172.784 409.973>
LayerCount: 2
Back
Fore
SplineSet
40 317 m 0
 40 463 100 635 212 635 c 0
 270 635 248 593 272 567 c 1
 322 536 331 431 338 339 c 16
 340 307 342 279 342 252 c 0
 342 193 334 142 307 75 c 9
 332 64 372 73 372 48 c 0
 372 31 365 21 354 9 c 0
 336 -10 311 -12 282 -12 c 0
 262 -12 252 2 234 2 c 0
 216 2 207 -4 189 -4 c 0
 113 -4 40 177 40 317 c 0
202 533 m 1
 146 497 138 404 138 304 c 0
 138 232 156 133 178 89 c 1
 178 130 213 168 244 172 c 1
 253 209 256 247 256 288 c 0
 255 381 200 499 202 533 c 1
EndSplineSet
Substitution2: "small digits for street numbers-1" Q.ss01
Substitution2: "'c2sc' Capitals to Small Capitals in Latin lookup 0 subtable" q.sc
EndChar

StartChar: H
Encoding: 72 72 25
Width: 424
VWidth: 0
Flags: W
HStem: 0 21G<85.5 124> 282 96<159.398 224> 614 20G<284.5 339.5>
VStem: 45 114<80.0887 284 376 535.357> 49 124<21.6151 280.188> 242 103<18.3007 279.145>
AnchorPoint: "Top" 237 660 basechar 0
LayerCount: 2
Back
Fore
SplineSet
224 282 m 9xf4
 157 284 l 17
 158 202 173 164 173 76 c 0
 173 38 145 0 103 0 c 0
 68 0 49 24 49 54 c 0xec
 49 86 50 115 50 142 c 0
 50 237 45 310 45 416 c 0
 45 514 93 644 140 644 c 0
 169 644 198 633 198 604 c 0
 198 558 159 516 159 414 c 0
 159 402 160 389 161 376 c 9
 224 378 l 17
 243 486 243 634 326 634 c 0
 353 634 377 612 377 585 c 0
 377 538 326 460 326 333 c 0
 326 237 345 183 345 87 c 0
 345 38 335 -9 283 -9 c 0
 259 -9 231 1 231 29 c 0
 231 67 242 87 242 124 c 0
 242 186 226 224 224 282 c 9xf4
EndSplineSet
Substitution2: "small digits for street numbers-1" H.ss01
Substitution2: "'c2sc' Capitals to Small Capitals in Latin lookup 0 subtable" h.sc
EndChar

StartChar: I
Encoding: 73 73 26
Width: 218
VWidth: 0
Flags: W
HStem: -2 21G<94.5 131.5> 619 20G<113 155.5>
VStem: 48 98<235.335 493.715> 58 109<9.98273 195.577>
AnchorPoint: "Top" 132 660 basechar 0
LayerCount: 2
Back
Fore
SplineSet
71 198 m 0xd0
 71 291 48 345 48 433 c 0
 48 521 84 639 142 639 c 0
 169 639 186 614 186 587 c 0
 186 514 146 471 146 359 c 0xe0
 146 307 167 165 167 69 c 0
 167 33 153 -2 110 -2 c 0
 79 -2 58 29 58 60 c 0
 58 114 71 146 71 198 c 0xd0
EndSplineSet
Substitution2: "small digits for street numbers-1" I.ss01
Substitution2: "'c2sc' Capitals to Small Capitals in Latin lookup 0 subtable" i.sc
EndChar

StartChar: J
Encoding: 74 74 27
Width: 394
VWidth: 0
Flags: W
HStem: -1 69<129.785 207.919> 618 20G<264.5 312>
VStem: 24 111<102.699 169.24> 209 97<167.353 517.404> 227 82<86.5115 360.698>
AnchorPoint: "Top" 278 660 basechar 0
LayerCount: 2
Back
Fore
SplineSet
209 438 m 0xf0
 209 524 229 638 300 638 c 0
 324 638 341 615 341 591 c 0
 341 536 306 492 306 316 c 0xf0
 306 252 309 217 309 153 c 0
 309 43 246 -1 164 -1 c 0
 90 -1 24 38 24 117 c 0
 24 152 49 186 84 186 c 0
 109 186 135 167 135 141 c 0
 135 127 132 117 122 102 c 1
 132 84 144 68 165 68 c 0
 213 68 227 120 227 164 c 0xe8
 227 271 209 328 209 438 c 0xf0
EndSplineSet
Substitution2: "small digits for street numbers-1" J.ss01
Substitution2: "'c2sc' Capitals to Small Capitals in Latin lookup 0 subtable" j.sc
EndChar

StartChar: K
Encoding: 75 75 28
Width: 414
VWidth: 0
Flags: W
HStem: -2 21G<75 111.5 243 283.5> 616 20G<104.5 150>
VStem: 45 101<30.122 273.469> 211 103<13.5278 245.248>
LayerCount: 2
Back
Fore
SplineSet
45 183 m 0
 45 252 31 289 31 358 c 0
 31 474 72 636 137 636 c 0
 163 636 187 618 187 592 c 0
 187 568 144 518 135 454 c 1
 191 530 255 631 333 631 c 0
 359 631 383 612 383 586 c 0
 383 527 272 531 206 393 c 1
 286 307 314 202 314 114 c 4
 314 64 309 -2 258 -2 c 0
 228 -2 211 30 211 60 c 0
 211 84 211 106 211 127 c 0
 211 212 207 272 161 311 c 1
 146 294 134 269 125 241 c 9
 133 184 146 156 146 94 c 0
 146 51 135 0 88 0 c 0
 62 0 35 10 35 42 c 0
 35 97 45 129 45 183 c 0
EndSplineSet
Substitution2: "small digits for street numbers-1" K.ss01
Substitution2: "'c2sc' Capitals to Small Capitals in Latin lookup 0 subtable" k.sc
EndChar

StartChar: L
Encoding: 76 76 29
Width: 316
VWidth: 0
Flags: W
HStem: -2 21G<63 92> 11 86<123.875 243.418> 616 20G<95.5 142>
VStem: 33 83<139.586 439.531>
AnchorPoint: "Top" 128 660 basechar 0
LayerCount: 2
Back
Fore
SplineSet
161 11 m 0x70
 127 11 108 -2 76 -2 c 0xb0
 50 -2 29 15 29 46 c 0
 29 68 44 81 60 92 c 9
 49 204 33 268 33 379 c 0
 33 456 61 636 130 636 c 0
 154 636 171 613 171 589 c 0
 171 556 116 429 116 209 c 0
 116 166 122 140 126 95 c 25
 152 96 167 97 193 97 c 0
 233 97 285 83 285 46 c 0
 285 23 268 1 245 1 c 0
 211 1 193 11 161 11 c 0x70
EndSplineSet
Substitution2: "small digits for street numbers-1" L.ss01
Substitution2: "'c2sc' Capitals to Small Capitals in Latin lookup 0 subtable" l.sc
EndChar

StartChar: M
Encoding: 77 77 30
Width: 454
VWidth: 0
Flags: HMW
VStem: 26 101<174.147 416.511> 313 94<178.089 396.307>
LayerCount: 2
Back
Fore
SplineSet
224 497 m 1
 258 561 267 635 322 635 c 0
 371 635 380 565 392 489 c 0
 399 441 407 392 407 347 c 0
 407 206 396 -5 314 -5 c 0
 286 -5 263 15 263 43 c 0
 263 60 277 106 290 168 c 0
 301 220 314 277 314 330 c 0
 314 355 307 376 298 398 c 1
 277 346 261 280 210 280 c 0
 185 280 168 303 168 328 c 0
 168 347 173 356 173 375 c 0
 173 394 164 409 150 423 c 1
 138 393 127 356 127 308 c 0
 127 178 189 94 189 32 c 0
 189 4 173 -19 139 -19 c 0
 42 -19 26 191 26 285 c 0
 26 371 41 425 59 503 c 0
 60 508 62 514 62 519 c 0
 62 526 59 532 53 537 c 0
 37 549 20 561 20 583 c 0
 20 605 50 633 81 633 c 0
 147 633 185 558 224 497 c 1
EndSplineSet
Substitution2: "small digits for street numbers-1" M.ss01
Substitution2: "'c2sc' Capitals to Small Capitals in Latin lookup 0 subtable" m.sc
EndChar

StartChar: period
Encoding: 46 46 31
Width: 222
VWidth: 0
Flags: W
HStem: -8 114<39.8528 102.763>
VStem: 26 114<1.85742 87.6345>
LayerCount: 2
Fore
SplineSet
140 44 m 0
 140 20 124 -8 88 -8 c 0
 50 -8 26 8 26 48 c 0
 26 75 51 105 75 105 c 4
 77 105 79 106 81 106 c 0
 89 106 98 104 103 95 c 1
 118 91 140 76 140 44 c 0
EndSplineSet
Substitution2: "dull but fullsized digits-1" period.ss02
EndChar

StartChar: comma
Encoding: 44 44 32
Width: 222
VWidth: 0
Flags: W
HStem: -118 223
VStem: 26 114<-0.268127 86.625>
LayerCount: 2
Fore
SplineSet
26 48 m 0
 26 75 51 105 75 105 c 0
 77 105 79 105 81 105 c 0
 89 105 98 104 103 95 c 1
 118 90 140 75 140 42 c 0
 140 19 114 -68 56 -118 c 9
 38 -106 l 17
 53 -77 57 -47 62 -8 c 1
 37 2 26 20 26 48 c 0
EndSplineSet
EndChar

StartChar: uni0308
Encoding: 776 776 37
Width: 0
VWidth: 0
Flags: W
HStem: 656 114<39.8528 102.763 274.237 337.198>
VStem: 26 114<665.857 751.125> 237 114<665.363 751.125>
AnchorPoint: "Top" 189 656 mark 0
LayerCount: 2
Fore
SplineSet
140 708 m 4
 140 684 124 656 88 656 c 4
 50 656 26 672 26 712 c 4
 26 739 51 770 75 770 c 4
 77 770 79 770 81 770 c 4
 89 770 98 768 103 759 c 5
 118 755 140 740 140 708 c 4
237 708 m 4
 237 740 259 755 274 759 c 5
 279 768 288 770 296 770 c 4
 298 770 300 770 302 770 c 4
 326 770 351 739 351 712 c 4
 351 672 328 656 290 656 c 4
 254 656 237 684 237 708 c 4
EndSplineSet
EndChar

StartChar: zero
Encoding: 48 48 39
Width: 454
VWidth: 0
Flags: W
HStem: -1 77<206.492 292.217> 619 20G<231 266>
VStem: 56 94<176.84 433.601> 331 91<137.514 406.504>
LayerCount: 2
Fore
SplineSet
255 542 m 17
 190 503 150 410 150 319 c 0
 150 235 169 76 250 76 c 0
 318 76 331 194 331 274 c 0
 331 432 257 484 257 514 c 0
 257 525 256 531 255 542 c 17
255 -1 m 0
 120 -1 56 181 56 323 c 0
 56 406 77 486 106 545 c 0
 134 602 213 639 249 639 c 0
 283 639 300 611 307 574 c 1
 323 552 346 549 358 525 c 0
 394 449 422 389 422 291 c 0
 422 165 380 -1 255 -1 c 0
EndSplineSet
Substitution2: "dull but fullsized digits-1" zero.ss02
Substitution2: "small digits for street numbers-1" zero.ss01
EndChar

StartChar: four
Encoding: 52 52 40
Width: 476
VWidth: 0
Flags: W
HStem: 158 79<380 444.898> 168 76<145.127 285.312> 613 20G<346 373.5>
VStem: 276 109<3.98273 157.429> 278 85<243.746 425.219>
LayerCount: 2
Fore
SplineSet
233 168 m 0x70
 175 168 113 155 81 155 c 0
 55 155 35 173 35 204 c 0
 35 226 50 238 66 249 c 1
 152 362 219 475 297 591 c 0
 315 618 332 633 360 633 c 0
 387 633 404 608 404 581 c 0
 404 508 363 465 363 353 c 0
 363 329 368 286 373 237 c 1
 406 232 450 232 450 200 c 0
 450 177 433 158 410 158 c 0xa8
 405 158 386 159 380 159 c 1
 383 126 385 92 385 63 c 0
 385 27 371 -8 328 -8 c 0
 297 -8 276 23 276 54 c 0
 276 98 284 129 287 166 c 1
 269 167 251 168 233 168 c 0x70
144 239 m 1
 168 243 195 244 220 244 c 0x68
 245 244 268 243 286 242 c 1
 283 277 278 314 278 355 c 0
 278 377 280 401 284 426 c 1
 240 367 188 280 144 239 c 1
EndSplineSet
Substitution2: "dull but fullsized digits-1" four.ss02
Substitution2: "small digits for street numbers-1" four.ss01
EndChar

StartChar: one
Encoding: 49 49 41
Width: 272
VWidth: 0
Flags: WO
HStem: -2 21G<144.5 181.5> 619 20G<185.5 206.5>
VStem: 98 98<235.335 532.161> 108 109<9.98273 195.577>
LayerCount: 2
Fore
SplineSet
121 198 m 0xd0
 121 291 98 345 98 433 c 0
 98 465 103 501 112 534 c 1
 58 506 l 1
 49 517 44 535 44 554 c 0
 44 560 45 566 46 572 c 1
 82 590 129 617 147 635 c 1
 164 635 179 639 192 639 c 0
 221 639 229 607.9 229 590 c 0
 229 538.9 196 527.9 196 359 c 0xe0
 196 307 217 165 217 69 c 0
 217 33 203 -2 160 -2 c 0
 129 -2 108 29 108 60 c 0
 108 114 121 146 121 198 c 0xd0
EndSplineSet
Substitution2: "dull but fullsized digits-1" one.ss02
Substitution2: "small digits for street numbers-1" one.ss01
EndChar

StartChar: two
Encoding: 50 50 42
Width: 465
VWidth: 0
Flags: W
HStem: 11 85<143.126 334.134> 597 70<148.452 285.438>
VStem: 34 75<490.737 542.529> 331 109<422.582 552.972>
LayerCount: 2
Fore
SplineSet
74 -2 m 0
 105 -2 178 11 244 11 c 0
 300 11 353 0 387 0 c 0
 410 0 427 26 427 49 c 0
 427 86 375 104 335 104 c 0
 317 104 268 96 216 96 c 0
 191 96 166 97 142 103 c 1
 140 157 217 224 252 249 c 0
 327 303 440 369 440 481 c 0
 440 605 348 667 211 667 c 0
 101 667 34 591 34 539 c 0
 34 513 47 486 73 486 c 0
 92 486 104 497 109 514 c 0
 111 520 99 533 108 543 c 0
 119 556 161 597 217 597 c 0
 276 597 331 559 331 483 c 0
 331 394 216 363 154 293 c 0
 84 213 64 173 58 100 c 1
 42 89 27 72 27 50 c 0
 27 19 48 -2 74 -2 c 0
EndSplineSet
Substitution2: "dull but fullsized digits-1" two.ss02
Substitution2: "small digits for street numbers-1" two.ss01
EndChar

StartChar: eight
Encoding: 56 56 43
Width: 419
VWidth: 0
Flags: W
HStem: -0 59<142.77 257.632> 315 68<153.068 258.521> 569 65<151.469 260.711>
VStem: 19 94<90.5367 270.21> 35 91<410.166 544.495> 294 91<99.782 276.248 415.918 534.186>
LayerCount: 2
Fore
SplineSet
113 191 m 0xf4
 113 141 113 59 205 59 c 0
 273 59 294 135 294 183 c 0
 294 283 246 315 207 315 c 0
 143 315 113 243 113 191 c 0xf4
204 -0 m 0
 39 0 19 109 19 194 c 0
 19 265 57 332 113 358 c 1xf4
 63 376 35 442 35 488 c 0xec
 35 551 75 634 201 634 c 0
 373 634 383 533 383 472 c 0
 383 421 344 374 287 353 c 1
 365 331 385 247 385 175 c 0
 385 100 329 0 204 -0 c 0
212 383 m 0
 259 383 289 428 289 466 c 0
 289 508 277 569 205 569 c 0
 137 569 126 511 126 471 c 0xec
 126 392 178 383 212 383 c 0
EndSplineSet
Substitution2: "dull but fullsized digits-1" eight.ss02
Substitution2: "small digits for street numbers-1" eight.ss01
EndChar

StartChar: three
Encoding: 51 51 44
Width: 512
VWidth: 0
Flags: W
HStem: -16 91<166.724 326.522> 293 90<254 319.149> 567 91<158.662 343.618>
VStem: 38 91<108.739 166.766 479.557 539.654> 370 107<120.465 266.971 426.179 539.558>
LayerCount: 2
Fore
SplineSet
370 197 m 0
 370 151 344 75 270 75 c 0
 152 75 129 128 129 141 c 0
 129 159 158 164 158 181 c 0
 158 196 133 215 114 215 c 0
 113 215 l 0
 62 215 38 178 38 147 c 0
 38 43 134 -16 274 -16 c 0
 421 -16 477 96 477 194 c 0
 477 257 454 319 407 361 c 1
 454 403 478 435 478 489 c 0
 478 579 423 658 276 658 c 0
 169 658 39 625 39 503 c 0
 39 486 58 470 80 470 c 0
 98 470 118 481 130 512 c 0
 142 543 177 567 272 567 c 0
 346 567 372 521 372 486 c 0
 372 421 316 395 252 383 c 9
 254 293 l 17
 324 287 370 285 370 197 c 0
EndSplineSet
Substitution2: "dull but fullsized digits-1" three.ss02
Substitution2: "small digits for street numbers-1" three.ss01
EndChar

StartChar: five
Encoding: 53 53 45
Width: 468
VWidth: 0
Flags: W
HStem: 0 71<157.598 295.658> 333 94<174.833 296.955> 539 95<165.986 347.319>
VStem: 50 91<89.6644 152.235> 333 109<111.915 290.884>
LayerCount: 2
Fore
SplineSet
92 646 m 0
 124 646 188 634 249 634 c 0
 298 634 341 643 375 643 c 0
 398 643 415 619 415 596 c 0
 415 559 362 541 322 541 c 0
 306 541 275 539 239 539 c 0
 216 539 190 539 166 543 c 1
 160 486 156 423 156 413 c 9
 183 418 188 427 226 427 c 0
 363 427 442 338 442 213 c 0
 442 96 383 0 221 0 c 0
 115 0 50 61 50 111 c 4
 50 157 80 186 127 186 c 0
 128 186 128 186 129 186 c 0
 146 186 169 163 169 150 c 0
 169 135 141 132 141 117 c 0
 141 106 163 71 240 71 c 0
 317 71 333 154 333 212 c 0
 333 271 300 333 252 333 c 0
 238 333 179 329 161 295 c 9
 64 308 l 25
 64 308 66 493 76 546 c 1
 60 557 45 573 45 595 c 0
 45 626 66 646 92 646 c 0
EndSplineSet
Substitution2: "dull but fullsized digits-1" five.ss02
Substitution2: "small digits for street numbers-1" five.ss01
EndChar

StartChar: exclam
Encoding: 33 33 46
Width: 218
VWidth: 0
Flags: W
HStem: -8 114<71.8528 134.763> 619 20G<97.5 142>
VStem: 47 103<352.45 567.032> 58 114<1.85742 87.6345 168.65 308.183> 72 101<188.28 411.446>
LayerCount: 2
Fore
SplineSet
172 44 m 0xd0
 172 20 156 -8 120 -8 c 0
 82 -8 58 8 58 48 c 0
 58 75 83 105 107 105 c 0
 109 105 111 106 113 106 c 0
 121 106 130 104 135 95 c 1
 150 91 172 76 172 44 c 0xd0
72 310 m 0xc8
 72 380 47 420 47 486 c 0
 47 552 67 639 128 639 c 0
 156 639 175 621 175 601 c 0
 175 546 150 515 150 431 c 0xe0
 150 392 173 284 173 212 c 0xc8
 173 185 157 159 112 159 c 0
 79 159 58 183 58 206 c 0xd0
 58 247 72 271 72 310 c 0xc8
EndSplineSet
EndChar

StartChar: bracketright
Encoding: 93 93 47
Width: 354
VWidth: 0
Flags: W
HStem: -2 99<65.2902 187.277> 531 104<52.75 179.807>
VStem: 38 273<537.303 613.325> 206 98<133.046 496.781>
LayerCount: 2
Fore
SplineSet
304 337 m 4xd0
 304 248 290 177 275 89 c 1
 294 69 307 59 307 34 c 0
 307 12 280 4 259 4 c 0
 234 4 216 12 189 12 c 0
 152 12 131 -2 93 -2 c 0
 69 -2 51 18 51 42 c 0
 51 96 119 93 172 97 c 0
 181 98 186 107 188 117 c 16
 205 193 210 234 206 322 c 0xd0
 202 401 196 458 180 514 c 0
 176 529 164 537 148 537 c 0
 124 537 111 531 87 531 c 0
 61 531 38 539 38 565 c 0
 38 634 79 635 193 635 c 2
 203 635 l 2
 263 635 311 618 311 568 c 0xe0
 311 555 299 537 281 529 c 1
 294 467 304 402 304 337 c 4xd0
EndSplineSet
EndChar

StartChar: a
Encoding: 97 97 49
Width: 400
VWidth: 0
Flags: W
HStem: 0 60<148.839 251.604> 233 55<167.819 250.307> 356 70<126.744 245.474>
VStem: 33 95<79.4626 193.798> 251 88<288.829 347.494> 262 89<35 215.766>
AnchorPoint: "RingTop" 201 500 basechar 0
AnchorPoint: "Top" 190 490 basechar 0
LayerCount: 2
Fore
SplineSet
251 320 m 0xf8
 251 339 230 356 183 356 c 0
 124 356 131 317 84 317 c 0
 53 317 36 331 36 348 c 0
 36 386 117 426 185 426 c 0
 261 426 339 401 339 352 c 0xf8
 339 303 336 315 336 240 c 0
 336 205 351 111 351 47 c 0xf4
 351 23 338 -1 298 -1 c 0
 288 -1 279 2 272 6 c 1
 258 2 242 0 224 0 c 0
 86 0 33 76 33 141 c 0
 33 228 95 288 223 288 c 0
 229 288 235 288 241 288 c 1
 250 306 251 304 251 308 c 0
 251 310 251 313 251 320 c 0xf8
262 134 m 0xf4
 262 164 256 190 251 213 c 1xf8
 236 218 235 233 214 233 c 0
 167 233 128 173 128 142 c 0
 128 103 142 60 205 60 c 0
 235 60 245 71 253 84 c 1
 257 104 262 112 262 134 c 0xf4
EndSplineSet
Substitution2: "'smcp' Lowercase to Small Capitals in Latin lookup 0 subtable" a.sc
EndChar

StartChar: b
Encoding: 98 98 50
Width: 400
VWidth: 0
Flags: W
HStem: -3 71<146.211 232.28> 354 71<153.917 211.904>
VStem: 41 89<49 316.756> 61 90<425 527.707> 264 95<105.705 290.12>
LayerCount: 2
Fore
SplineSet
359 208 m 0xd8
 359 110 306 -3 168 -3 c 0
 150 -3 134 0 120 6 c 1
 113 0 104 -4 94 -4 c 0
 54 -4 41 31 41 67 c 0xe8
 41 163 61 305 61 357 c 0
 61 469 33 519 33 592 c 0
 33 619 48 644 73 644 c 0
 126 644 151 519 151 430 c 0
 151 428 151 427 151 425 c 1
 156 425 161 425 166 425 c 0
 297 425 359 310 359 208 c 0xd8
178 354 m 0
 156 354 156 324 141 316 c 1
 136 281 130 243 130 198 c 0
 130 162 135 135 139 104 c 1
 147 85 157 68 187 68 c 0
 250 68 264 152 264 210 c 0
 264 256 225 354 178 354 c 0
EndSplineSet
Substitution2: "'smcp' Lowercase to Small Capitals in Latin lookup 0 subtable" b.sc
EndChar

StartChar: c
Encoding: 99 99 51
Width: 356
VWidth: 0
Flags: W
HStem: -1 71<155.72 237.147> 356 71<171.327 250.762>
VStem: 29 95<107.705 293.624> 238 81<72.1696 111.687>
AnchorPoint: "Top" 207 490 basechar 0
LayerCount: 2
Fore
SplineSet
29 210 m 0
 29 319 94 427 231 427 c 0
 269 427 305 403 305 366 c 0
 305 340 292 313 266 313 c 0
 247 313 235 324 230 341 c 0
 226 351 218 356 210 356 c 0
 162 356 124 258 124 212 c 0
 124 154 138 70 201 70 c 0
 222 70 238 79 238 90 c 0
 238 105 210 108 210 123 c 0
 210 136 233 144 250 144 c 0
 251 144 251 144 252 144 c 0
 298 144 319 115 319 84 c 0
 319 34 280 -1 220 -1 c 0
 82 -1 29 112 29 210 c 0
EndSplineSet
Substitution2: "'smcp' Lowercase to Small Capitals in Latin lookup 0 subtable" c.sc
EndChar

StartChar: d
Encoding: 100 100 52
Width: 400
VWidth: 0
Flags: W
HStem: -1 71<155.72 241.789> 356 71<171.689 233.744>
VStem: 29 95<107.705 293.376> 237 90<427 529.707> 258 89<51 318.755>
AnchorPoint: "Top" 315 660 basechar 0
LayerCount: 2
Fore
SplineSet
29 210 m 0xe8
 29 312 92 427 222 427 c 0
 227 427 232 427 237 427 c 1
 236 516 261 646 315 646 c 0
 340 646 355 621 355 594 c 0
 355 521 327 471 327 359 c 0xf0
 327 307 347 165 347 69 c 0
 347 33 334 -2 294 -2 c 0
 284 -2 275 2 268 8 c 1
 254 2 238 -1 220 -1 c 0
 82 -1 29 112 29 210 c 0xe8
258 198 m 0xe8
 258 243 252 283 247 318 c 1
 232 327 231 356 209 356 c 0
 161 356 124 257 124 212 c 0
 124 154 138 70 201 70 c 0
 231 70 241 87 249 106 c 1
 253 136 258 163 258 198 c 0xe8
EndSplineSet
Substitution2: "'smcp' Lowercase to Small Capitals in Latin lookup 0 subtable" d.sc
EndChar

StartChar: e
Encoding: 101 101 53
Width: 390
VWidth: 0
Flags: W
HStem: -1 71<160.274 266.722> 218 63<138 281.199> 356 71<170.289 259.568>
VStem: 29 95<110.622 220> 268 81<76.3045 111.687>
AnchorPoint: "Bottom" 220 -27 basechar 0
AnchorPoint: "Top" 207 490 basechar 0
LayerCount: 2
Fore
SplineSet
228 427 m 0
 304 427 368 346 368 272 c 0
 368 252 357 233 328 222 c 1
 315 218 297 218 274 218 c 0
 238 218 189 220 124 220 c 1
 124 215 124 211 124 206 c 0
 124 146 143 70 212 70 c 0
 233 70 268 79 268 90 c 0
 268 105 240 108 240 123 c 0
 240 136 263 144 280 144 c 0
 281 144 282 144 283 144 c 0
 329 144 349 115 349 84 c 0
 349 34 280 -1 220 -1 c 0
 82 -1 29 112 29 210 c 0
 29 318 93 427 228 427 c 0
282 283 m 1
 286 302 262 356 212 356 c 0
 182 356 146 314 138 283 c 1
 138 283 179 281 222 281 c 0
 243 281 265 281 282 283 c 1
EndSplineSet
Substitution2: "'smcp' Lowercase to Small Capitals in Latin lookup 0 subtable" e.sc
EndChar

StartChar: f
Encoding: 102 102 54
Width: 270
VWidth: 0
Flags: W
HStem: -2 21G<86.5 121> 337 92<140.609 204.208> 579 61<147.787 215.293>
VStem: 44 88<425.965 565.008> 53 101<8.57217 197.531> 65 75<72.3909 336.736>
LayerCount: 2
Fore
SplineSet
190 579 m 0xf0
 138 579 132 529 132 470 c 0xf0
 132 456 133 443 133 429 c 1
 184 420 244 421 244 366 c 0
 244 345 230 329 205 329 c 0
 188 329 178 337 161 337 c 0
 142 337 140 320 140 303 c 0xe4
 140 235 154 141 154 69 c 0
 154 33 141 -2 101 -2 c 0
 72 -2 53 29 53 60 c 0xe8
 53 115 65 147 65 200 c 0xe4
 65 256 56 301 50 345 c 1
 37 352 29 362 29 377 c 0
 29 390 36 403 44 415 c 1
 44 423 44 432 44 440 c 0
 44 536 65 640 190 640 c 0
 258 640 294 614 294 557 c 0
 294 532 277 519 246 519 c 0
 199 519 237 579 190 579 c 0xf0
EndSplineSet
Substitution2: "'smcp' Lowercase to Small Capitals in Latin lookup 0 subtable" f.sc
EndChar

StartChar: g
Encoding: 103 103 55
Width: 400
VWidth: 0
Flags: W
HStem: -201 61<128.329 221.413> -4 71<180.096 237.665> 354 71<159.72 245.789>
VStem: 33 95<131.578 316.295> 249 90<-110.479 -3.91857> 262 89<105.244 373>
AnchorPoint: "Top" 216 490 basechar 0
LayerCount: 2
Fore
SplineSet
249 -31 m 0xf8
 249 -27 247 -21 241 -3 c 1
 236 -3 231 -4 226 -4 c 0
 95 -4 33 112 33 214 c 0
 33 312 86 425 224 425 c 0
 242 425 258 422 272 416 c 1
 279 422 288 426 298 426 c 0
 338 426 351 391 351 355 c 0xf4
 351 259 331 117 331 65 c 0
 331 -47 339 -1 339 -74 c 0
 339 -148 250 -201 174 -201 c 0
 106 -201 27 -172 27 -115 c 0
 27 -90 44 -77 75 -77 c 0
 122 -77 115 -140 174 -140 c 0
 232 -140 249 -72 249 -31 c 0xf8
214 67 m 0
 236 67 236 98 251 106 c 1
 256 141 262 179 262 224 c 0
 262 260 257 287 253 318 c 1
 245 337 235 354 205 354 c 0
 142 354 128 270 128 212 c 0
 128 166 167 67 214 67 c 0
EndSplineSet
Substitution2: "'smcp' Lowercase to Small Capitals in Latin lookup 0 subtable" g.sc
EndChar

StartChar: h
Encoding: 104 104 56
Width: 430
VWidth: 0
Flags: W
HStem: -2 21G<86.5 121> 356 70<197.151 279.666> 619 20G<104.5 143.5>
VStem: 44 91<375.788 502.312> 53 101<8.57217 195.622> 65 93<71.8911 310.592> 303 85<102.911 333.36>
AnchorPoint: "Top" 138 660 basechar 0
LayerCount: 2
Fore
SplineSet
65 198 m 0xe6
 65 291 44 345 44 433 c 0
 44 521 78 639 131 639 c 0
 156 639 171 614 171 587 c 0
 171 513 139 490 135 374 c 1xf2
 163 410 197 426 249 426 c 0
 389 426 388 292 388 193 c 0
 388 117 381 -8 309 -8 c 0
 290 -8 260 5 260 23 c 0
 260 83 303 109 303 213 c 0
 303 265 299 356 242 356 c 0
 192 356 158 282 158 250 c 0xe6
 158 172 154 131 154 69 c 0
 154 33 141 -2 101 -2 c 0
 72 -2 53 29 53 60 c 0xea
 53 114 65 147 65 198 c 0xe6
EndSplineSet
Substitution2: "'smcp' Lowercase to Small Capitals in Latin lookup 0 subtable" h.sc
EndChar

StartChar: k
Encoding: 107 107 59
Width: 410
VWidth: 0
Flags: W
HStem: -2 22G<86.5 121 290 327.5> 619 20G<104.5 143.5>
VStem: 44 90<273.055 499.019> 53 101<8.57217 167.359> 261 94<7.30173 143.347>
LayerCount: 2
Fore
SplineSet
65 198 m 0xd8
 65 291 44 345 44 433 c 0
 44 521 78 639 131 639 c 0
 156 639 171 614 171 587 c 0
 171 514 134 471 134 359 c 0xe8
 134 340 137 308 140 272 c 1
 213 337 263 421 340 421 c 0
 364 421 386 408 386 391 c 0
 386 352 307 348 241 264 c 1
 315 207 355 135 355 76 c 0
 355 43 351 -1 304 -1 c 0
 276 -1 261 20 261 40 c 0
 261 121 234 174 182 207 c 1
 172 199 159 184 149 169 c 1
 152 134 154 99 154 69 c 0
 154 33 141 -2 101 -2 c 0
 72 -2 53 29 53 60 c 0
 53 114 65 147 65 198 c 0xd8
EndSplineSet
Substitution2: "'smcp' Lowercase to Small Capitals in Latin lookup 0 subtable" k.sc
EndChar

StartChar: l
Encoding: 108 108 60
Width: 218
VWidth: 0
Flags: W
HStem: -2 21G<86.5 121> 619 20G<104.5 143.5>
VStem: 44 90<154.611 499.019> 53 101<8.57217 195.622>
AnchorPoint: "Top" 131 656.343 basechar 0
LayerCount: 2
Fore
SplineSet
65 198 m 0xd0
 65 291 44 345 44 433 c 0
 44 521 78 639 131 639 c 0
 156 639 171 614 171 587 c 0
 171 514 134 471 134 359 c 0xe0
 134 307 154 165 154 69 c 0
 154 33 141 -2 101 -2 c 0
 72 -2 53 29 53 60 c 0
 53 114 65 147 65 198 c 0xd0
EndSplineSet
Substitution2: "'smcp' Lowercase to Small Capitals in Latin lookup 0 subtable" l.sc
EndChar

StartChar: m
Encoding: 109 109 61
Width: 590
VWidth: 0
Flags: W
HStem: -2 21G<86.5 121> 356 70<177.377 261.99 360.628 455.121>
VStem: 44 91<374 417.511> 53 101<8.57217 203.302> 59 85<71.8896 320.75> 275 84<104.323 320.074> 482 85<102.911 330.041>
LayerCount: 2
Fore
SplineSet
97 426 m 0xe6
 132 426 135 396 135 381 c 0
 135 378 135 376 135 374 c 1xe6
 152 406 188 426 229 426 c 0
 274 426 304 409 323 383 c 1
 341 410 383 426 420 426 c 0
 548 426 567 292 567 193 c 0
 567 117 560 -8 488 -8 c 0
 469 -8 439 5 439 23 c 0
 439 83 482 109 482 213 c 0
 482 265 479 356 414 356 c 0
 392 356 363 342 349 322 c 1
 359 281 359 234 359 193 c 0
 359 117 352 -8 280 -8 c 0
 261 -8 232 5 232 23 c 0
 232 83 274 109 274 213 c 0
 274 227 275 244 275 262 c 0
 275 308 269 356 222 356 c 0
 176 356 144 298 144 248 c 0xce
 144 170 154 131 154 69 c 0
 154 33 141 -2 101 -2 c 0
 72 -2 53 29 53 60 c 0xd6
 53 118 59 148 59 206 c 0xce
 59 244 44 306 44 338 c 0
 44 382 44 426 97 426 c 0xe6
EndSplineSet
Substitution2: "'smcp' Lowercase to Small Capitals in Latin lookup 0 subtable" m.sc
EndChar

StartChar: o
Encoding: 111 111 62
Width: 318
VWidth: 0
Flags: W
HStem: -1 52<137.648 193.444> 406 20G<146.5 178.5>
VStem: 20 83<99.7734 324.404> 211 80<72.9486 292.16>
AnchorPoint: "Top" 161 490 basechar 0
LayerCount: 2
Fore
SplineSet
168 361 m 17
 108 335 103 274 103 213 c 0
 103 165 124 51 164 51 c 0
 207 51 211 131 211 184 c 0
 211 289 165 323 165 343 c 0
 165 350 167 354 168 361 c 17
216 383 m 1
 231 368 245 366 256 350 c 0
 289 299 291 260 291 195 c 0
 291 111 266 -1 167 -1 c 0
 62 -1 20 121 20 216 c 0
 20 271 36 325 63 364 c 0
 89 402 130 426 163 426 c 0
 194 426 210 408 216 383 c 1
EndSplineSet
Substitution2: "'smcp' Lowercase to Small Capitals in Latin lookup 0 subtable" o.sc
EndChar

StartChar: p
Encoding: 112 112 63
Width: 400
VWidth: 0
Flags: W
HStem: -2 71<158 218.904> 355 71<153.211 239.28>
VStem: 48 89<106.244 374> 68 90<-84.7371 -2> 271 95<132.88 317.295>
LayerCount: 2
Fore
SplineSet
366 215 m 0xe8
 366 113 304 -2 173 -2 c 0
 168 -2 163 -2 158 -2 c 1
 158 -4 158 -5 158 -7 c 0
 158 -95 133 -195 80 -195 c 0
 55 -195 40 -170 40 -143 c 0
 40 -70 68 -46 68 66 c 0xd8
 68 118 48 260 48 356 c 0
 48 392 61 427 101 427 c 0
 111 427 120 423 127 417 c 1
 141 423 157 426 175 426 c 0
 313 426 366 313 366 215 c 0xe8
137 225 m 0xe8
 137 180 143 142 148 107 c 1
 154 96 164 69 185 69 c 0
 232 69 271 167 271 213 c 0
 271 271 257 355 194 355 c 0
 164 355 154 338 146 319 c 1
 142 288 137 261 137 225 c 0xe8
EndSplineSet
Substitution2: "'smcp' Lowercase to Small Capitals in Latin lookup 0 subtable" p.sc
EndChar

StartChar: q
Encoding: 113 113 64
Width: 400
VWidth: 0
Flags: W
HStem: -199 21G<292.5 331.5> -4 71<180.096 241> 354 71<159.72 245.789>
VStem: 33 95<131.578 316.295> 241 90<-87.2536 -3> 262 89<105.244 373>
LayerCount: 2
Fore
SplineSet
33 214 m 0xf8
 33 312 86 425 224 425 c 0
 242 425 258 422 272 416 c 1
 279 422 288 426 298 426 c 0
 338 426 351 391 351 355 c 0xf4
 351 259 331 117 331 65 c 0
 331 -47 359 -74 359 -147 c 0
 359 -174 344 -199 319 -199 c 0
 266 -199 241 -96 241 -8 c 0
 241 -6 241 -5 241 -3 c 1
 236 -3 231 -4 226 -4 c 0
 95 -4 33 112 33 214 c 0xf8
214 67 m 0
 235 67 244 91 251 106 c 5
 256 141 262 179 262 224 c 0
 262 260 257 287 253 318 c 1
 245 337 235 354 205 354 c 0
 142 354 128 270 128 212 c 0
 128 166 167 67 214 67 c 0
EndSplineSet
Substitution2: "'smcp' Lowercase to Small Capitals in Latin lookup 0 subtable" q.sc
EndChar

StartChar: r
Encoding: 114 114 65
Width: 305
VWidth: 0
Flags: W
HStem: -2 21G<86.5 121> 356 70<185.309 272.025>
VStem: 44 91<374 417.511> 53 101<8.57217 203.302> 59 85<71.8896 311.251>
AnchorPoint: "Top" 146 490 basechar 0
LayerCount: 2
Fore
SplineSet
135 381 m 0xe0
 135 378 135 376 135 374 c 1xe0
 161 406 181 426 241 426 c 0
 267 426 278 412 278 397 c 0
 278 378 260 356 234 356 c 0
 188 356 144 298 144 248 c 0xc8
 144 170 154 131 154 69 c 0
 154 33 141 -2 101 -2 c 0
 72 -2 53 29 53 60 c 0xd0
 53 118 59 148 59 206 c 0xc8
 59 244 44 306 44 338 c 0
 44 382 44 426 97 426 c 0
 132 426 135 396 135 381 c 0xe0
EndSplineSet
Substitution2: "'smcp' Lowercase to Small Capitals in Latin lookup 0 subtable" r.sc
EndChar

StartChar: s
Encoding: 115 115 66
Width: 377
VWidth: 0
Flags: W
HStem: 0 80<130.522 221.037> 353 73<164.2 223.089>
VStem: 44 97<82.5113 123.242> 56 99<271.472 339.95> 233 84<94.2027 166.617>
AnchorPoint: "Top" 207 490 basechar 0
LayerCount: 2
Fore
SplineSet
56 326 m 0xd8
 56 383 129 426 214 426 c 0
 262 426 319 410 319 374 c 0
 319 341 284 312 249 312 c 0
 232 312 218 324 218 335 c 0
 218 342 222 346 224 353 c 17
 194 353 155 336 155 312 c 0xd8
 155 243 317 216 317 103 c 0
 317 45 235 0 161 0 c 0
 84 0 44 17 44 75 c 0
 44 105 61 134 101 134 c 0
 121 134 141 120 141 109 c 0xe8
 141 98 134 93 130 82 c 25
 137 81 141 80 149 80 c 0
 173 80 233 86 233 128 c 0
 233 191 56 233 56 326 c 0xd8
EndSplineSet
Substitution2: "'smcp' Lowercase to Small Capitals in Latin lookup 0 subtable" s.sc
EndChar

StartChar: u
Encoding: 117 117 67
Width: 374
VWidth: 0
Flags: W
HStem: -3 70<141.214 223.546> 405 20G<102 151.5 247.5 293>
VStem: 37 84<86.4126 315.385> 251 85<101.343 316.089>
AnchorPoint: "RingTop" 201 500 basechar 0
AnchorPoint: "Top" 185 490 basechar 0
LayerCount: 2
Fore
SplineSet
141 425 m 0
 162 425 182 415 182 400 c 0
 182 363 121 346 121 175 c 0
 121 143 128 67 178 67 c 0
 243 67 251 154 251 206 c 0
 251 310 208 336 208 396 c 0
 208 414 238 427 257 427 c 0
 329 427 336 302 336 226 c 0
 336 127 296 -3 185 -3 c 0
 54 -3 37 128 37 223 c 0
 37 307 63 425 141 425 c 0
EndSplineSet
Substitution2: "'smcp' Lowercase to Small Capitals in Latin lookup 0 subtable" u.sc
EndChar

StartChar: v
Encoding: 118 118 68
Width: 402
VWidth: 0
Flags: W
HStem: -3 21G<184.5 225.5> 404 20G<96 141 259 297>
VStem: 42 96<162.165 348.347> 263 92<149.855 330.896>
LayerCount: 2
Fore
SplineSet
154 41 m 1
 96 78 42 173 42 273 c 0
 42 342 63 424 129 424 c 0
 153 424 169 408 169 391 c 0
 169 338 138 346 138 225 c 0
 138 156 172 105 201 77 c 1
 246 108 263 160 263 217 c 0
 263 352 206 359 206 398 c 0
 206 419 249 427 269 427 c 0
 325 427 355 325 355 245 c 0
 355 139 255 -3 196 -3 c 0
 173 -3 148 16 148 27 c 0
 148 34 150 33 154 41 c 1
EndSplineSet
Substitution2: "'smcp' Lowercase to Small Capitals in Latin lookup 0 subtable" v.sc
EndChar

StartChar: w
Encoding: 119 119 69
Width: 442
VWidth: 0
Flags: W
HStem: -3 21G<132.5 181.5 259.5 280> 405 20G<82.5 123>
VStem: 48 87<177.762 397.884> 270 99<227.88 407.87>
AnchorPoint: "Top" 207 490 basechar 0
LayerCount: 2
Fore
SplineSet
287 225 m 0
 287 287 270 313 270 367 c 0
 270 393 292 419 328 419 c 0
 355 419 369 380 369 350 c 0
 369 348 369 346 369 344 c 8
 363 217 367 145 310 22 c 0
 304 7 293 -3 267 -3 c 0
 252 -3 241 4 241 15 c 0
 241 19 241 22 241 26 c 0
 241 69 240 101 218 142 c 1
 201 123 192 95 186 64 c 9
 193 47 204 37 204 21 c 0
 204 8 190 -3 173 -3 c 0
 92 -3 48 235 48 289 c 0
 48 346 53 425 112 425 c 0
 134 425 150 411 150 395 c 0
 150 346 136 316 135 265 c 24
 135 230 138 206 147 175 c 1
 159 199 164 210 178 235 c 0
 185 248 197 258 210 258 c 0
 221 258 233 251 244 234 c 0
 258 213 266 200 281 179 c 17
 284 197 287 209 287 225 c 0
EndSplineSet
Substitution2: "'smcp' Lowercase to Small Capitals in Latin lookup 0 subtable" w.sc
EndChar

StartChar: x
Encoding: 120 120 70
Width: 396
VWidth: 0
Flags: W
HStem: -4 21G<59.5 95 257 282> 405 20G<60 85.5>
VStem: 29 96<2.38086 121.547 334.084 417.708> 220 91<0.516083 102.164>
LayerCount: 2
Fore
SplineSet
114 237 m 9
 81 296 28 333 28 389 c 0
 28 408 47 425 73 425 c 0
 98 425 118 413 123 395 c 0
 136 353 149 324 168 294 c 9
 195 333 201 358 238 393 c 24
 256 410 273 420 302 420 c 0
 318 420 339 408 339 396 c 0
 339 385 330 377 317 360 c 0
 293 328 253 281 222 240 c 0
 217 234 215 227 215 221 c 0
 215 215 217 210 221 204 c 0
 248 165 311 94 311 27 c 0
 311 10 295 -4 269 -4 c 0
 245 -4 220 6 220 23 c 0
 220 56 194 124 169 162 c 1
 151 133 125 90 125 32 c 0
 125 13 108 -4 82 -4 c 0
 37 -4 29 22 29 47 c 0
 29 100 79 171 114 237 c 9
EndSplineSet
Substitution2: "'smcp' Lowercase to Small Capitals in Latin lookup 0 subtable" x.sc
EndChar

StartChar: y
Encoding: 121 121 71
Width: 406
VWidth: 0
Flags: HMW
HStem: -200 20<-8.17249 202.114> 406 20G<317.767 354.5>
VStem: 27 108<263.829 404.242> 263 120<276.618 368.552>
AnchorPoint: "Top" 207 492 basechar 0
LayerCount: 2
Fore
SplineSet
127 28 m 16
 132 42 134 56 134 69 c 0
 134 91 128 113 118 129 c 0
 82 187 27 287 27 350 c 0
 27 394 59 423 93 423 c 0
 136 423 131 388 135 334 c 0
 138 286 151 224 183 160 c 0
 188 149 194 145 198 145 c 0
 206 145 212 159 215 164 c 0
 231 196 255 233 263 276 c 0
 281 372 296 426 340 426 c 0
 369 426 383 399 383 365 c 0
 383 285 297 131 209 0 c 24
 147 -93 94 -200 4 -200 c 0
 -20 -200 -39 -179 -39 -153 c 0
 -39 -128 -13 -109 47 -64 c 0
 82 -38 111 -17 127 28 c 16
EndSplineSet
Substitution2: "'smcp' Lowercase to Small Capitals in Latin lookup 0 subtable" y.sc
EndChar

StartChar: z
Encoding: 122 122 72
Width: 366
VWidth: 0
Flags: W
HStem: -2 64<128.546 303.436> 371 55<74.9266 211.197>
VStem: 36 92<58.6526 120.135>
AnchorPoint: "Top" 190 490 basechar 0
LayerCount: 2
Fore
SplineSet
169 426 m 0
 228 426 322 428 322 381 c 0
 322 358 307 345 293 325 c 24
 238 242 199 200 147 117 c 0
 140 105 128 89 128 76 c 0
 128 65 137 57 166 57 c 0
 203 57 225 62 261 62 c 0
 284 62 309 56 309 37 c 0
 309 3 261 -2 210 -2 c 0
 191 -2 171 -1 153 -1 c 0
 74 -1 36 22 36 63 c 0
 36 104 94 173 135 241 c 24
 162 286 185 308 211 351 c 0
 217 359 205 371 194 371 c 0
 153 371 118 353 90 353 c 0
 68 353 50 367 50 383 c 0
 50 423 115 426 169 426 c 0
EndSplineSet
Substitution2: "'smcp' Lowercase to Small Capitals in Latin lookup 0 subtable" z.sc
EndChar

StartChar: six
Encoding: 54 54 73
Width: 456
VWidth: 0
Flags: W
HStem: 0 60<165.05 292.869> 319 70<172.569 289.163>
VStem: 20 95<118.759 289.546> 332 105<113.143 273.107>
LayerCount: 2
Fore
SplineSet
437 201 m 0
 437 117 370 0 232 0 c 0
 105 0 20 69 20 212 c 0
 20 450 197 556 266 654 c 1
 326 590 l 1
 279 511 206 468 172 380 c 1
 194 386 209 389 239 389 c 0
 338 389 437 312 437 201 c 0
167 299 m 0
 158 299 152 306 144 310 c 1
 129 278 115 247 115 214 c 0
 115 136 150 60 228 60 c 0
 318 60 332 134 332 187 c 0
 332 277 285 319 222 319 c 0
 198 319 180 299 167 299 c 0
EndSplineSet
Substitution2: "dull but fullsized digits-1" six.ss02
Substitution2: "small digits for street numbers-1" six.ss01
EndChar

StartChar: seven
Encoding: 55 55 74
Width: 395
VWidth: 0
Flags: W
HStem: -2 21G<131.5 161.5> 535 89<83.6825 276.653> 537 96<32.1072 179.708>
VStem: 101 99<6.91211 187.581>
LayerCount: 2
Fore
SplineSet
200 52 m 0xd0
 200 16 177 -2 146 -2 c 0
 117 -2 101 23 101 46 c 0
 101 125 125 249 224 426 c 0
 250 472 268 500 278 539 c 1
 254 535 226 535 201 535 c 0xd0
 161 535 125 537 109 537 c 0
 69 537 16 552 16 589 c 0
 16 612 33 633 56 633 c 0xb0
 90 633 133 624 182 624 c 0
 240 624 300 636 332 636 c 0
 358 636 378 619 378 588 c 0
 378 566 363 553 347 542 c 1
 328 486 304 426 282 374 c 0
 265 334 200 160 200 52 c 0xd0
EndSplineSet
Substitution2: "dull but fullsized digits-1" seven.ss02
Substitution2: "small digits for street numbers-1" seven.ss01
EndChar

StartChar: nine
Encoding: 57 57 75
Width: 456
VWidth: 0
Flags: W
HStem: 0 21G<172.562 225.5> 265 70<163.546 285.464> 602 52<165.874 283.647>
VStem: 20 100<380.893 537.675> 338 100<364.493 539.63>
LayerCount: 2
Fore
SplineSet
20 453 m 0
 20 537 88 654 226 654 c 0
 353 654 438 585 438 442 c 0
 438 204 260 98 191 0 c 1
 132 64 l 1
 179 143 248 184 286 274 c 1
 264 268 249 265 219 265 c 0
 120 265 20 342 20 453 c 0
120 467 m 0
 120 377 167 335 230 335 c 0
 281 335 279 339 309 344 c 1
 324 376 338 408 338 441 c 0
 338 519 302 602 224 602 c 0
 146 602 120 520 120 467 c 0
EndSplineSet
Substitution2: "dull but fullsized digits-1" nine.ss02
Substitution2: "small digits for street numbers-1" nine.ss01
EndChar

StartChar: f_k
Encoding: 65537 -1 76
Width: 608
VWidth: 0
Flags: W
HStem: -2 22G<86.5 121 278.5 313 482 519.5> 337 92<141.379 235.492> 579 61<154.153 238.08>
VStem: 44 88<425.901 554.52> 53 101<8.57217 197.531> 236 90<410 500.046> 245 101<8.57217 167.359> 453 94<7.30173 143.347>
LayerCount: 2
Fore
SplineSet
206 579 m 0xf5
 140 579 132 522 132 458 c 0
 132 448 133 439 133 429 c 1
 162 424 205 421 237 410 c 1
 237 417 236 425 236 433 c 0
 236 465 241 500 249 533 c 1
 238 551 238 579 206 579 c 0xf5
44 441 m 0
 44 538 68 640 215 640 c 0
 245 640 271 634 290 622 c 1
 300 633 311 639 323 639 c 0
 348 639 363 614 363 587 c 0
 363 514 326 471 326 359 c 0xf5
 326 340 330 308 333 272 c 1
 406 337 455 421 532 421 c 0
 556 421 578 408 578 391 c 0
 578 352 499 348 433 264 c 1
 507 207 547 135 547 76 c 0
 547 43 543 -1 496 -1 c 0
 468 -1 453 20 453 40 c 0
 453 121 426 174 374 207 c 1
 364 199 352 184 342 169 c 1
 345 134 346 99 346 69 c 0
 346 33 333 -2 293 -2 c 0
 264 -2 245 29 245 60 c 0
 245 114 258 147 258 198 c 0
 258 248 250 290 245 329 c 1
 243 329 241 329 239 329 c 0
 222 329 178 337 161 337 c 0
 136 337 139 286 139 286 c 1
 145 221 154 134 154 69 c 0
 154 33 141 -2 101 -2 c 0
 72 -2 53 29 53 60 c 0xeb
 53 115 65 147 65 200 c 0
 65 256 56 301 50 345 c 1
 37 352 29 362 29 377 c 0
 29 390 36 403 44 415 c 1
 44 424 44 432 44 441 c 0
EndSplineSet
LCarets2: 1 193 
Ligature2: "Standard Ligatures in Latin-1" f k
EndChar

StartChar: f_l
Encoding: 65538 -1 77
Width: 412
VWidth: 0
Flags: W
HStem: -2 21G<86.5 121 289.5 324> 337 92<140.949 236.783> 579 61<159.147 237.344>
VStem: 50 88<202.617 336.963 425.406 559.316> 53 101<8.57217 197.531> 65 73<72.0628 336.736> 247 90<232.945 499.944> 256 101<8.57217 195.622>
LayerCount: 2
Fore
SplineSet
205 579 m 0xe2
 141 579 132 504 133 429 c 5
 169 423 221 421 248 401 c 1
 247 411 247 422 247 433 c 0
 247 462 251 494 258 524 c 1
 236 539 244 579 205 579 c 0xe2
334 639 m 0
 359 639 374 614 374 587 c 0
 374 514 337 471 337 359 c 0xf2
 337 307 357 165 357 69 c 0
 357 33 344 -2 304 -2 c 0
 275 -2 256 29 256 60 c 0xe1
 256 114 269 147 269 198 c 0
 269 252 261 282 255 323 c 1
 253 322 250 322 247 322 c 0
 226 322 181 337 161 337 c 0
 136 337 138 286 138 286 c 1xf2
 144 221 154 134 154 69 c 0
 154 33 141 -2 101 -2 c 0
 72 -2 53 29 53 60 c 0xe8
 53 115 65 147 65 200 c 0xe4
 65 256 56 301 50 345 c 1xf0
 37 352 29 362 29 377 c 0
 29 390 36 403 44 415 c 1
 41 522 77 640 211 640 c 0
 247 640 277 633 297 618 c 1
 308 631 320 639 334 639 c 0
EndSplineSet
LCarets2: 1 206 
Ligature2: "Standard Ligatures in Latin-1" f l
EndChar

StartChar: f_t
Encoding: 65539 -1 78
Width: 404
VWidth: 0
Flags: W
HStem: -13 101<322.875 365.25> -2 21G<86.5 121> 337 92<140.949 227.588 326.255 385.208> 579 61<157.631 250.061>
VStem: 50 88<202.617 336.963 426.131 559.433> 53 101<8.57217 197.531> 65 73<72.0628 336.736> 232 86<87.3753 336.424>
LayerCount: 2
Fore
SplineSet
213 579 m 0x31
 131 579 132 505 133 429 c 1
 161 424 199 426 229 421 c 1
 233 427 237 431 240 436 c 1
 245 461 250 500 261 528 c 1
 258 544 249 579 213 579 c 0x31
377 36 m 0
 377 6 354 -13 328 -13 c 0
 318 -13 308 -10 299 -6 c 0
 231 28 232 139 232 237 c 0
 232 268 235 287 235 311 c 0
 235 321 234 331 233 344 c 1
 216 344 178 337 161 337 c 0
 136 337 138 286 138 286 c 1xb9
 144 221 154 134 154 69 c 0
 154 33 141 -2 101 -2 c 0
 72 -2 53 29 53 60 c 0x75
 53 115 65 147 65 200 c 0x73
 65 256 56 301 50 345 c 1
 37 352 29 362 29 377 c 0
 29 390 36 403 44 415 c 1
 41 522 65 640 207 640 c 0
 298 640 338 603 338 514 c 0
 338 503 326 426 326 426 c 1
 375 426 425 410 425 366 c 0
 425 345 411 329 386 329 c 0
 369 329 359 337 342 337 c 0
 323 337 321 320 321 305 c 0
 321 277 318 245 318 199 c 0
 318 167 313 100 337 88 c 0xb9
 359 77 377 59 377 36 c 0
EndSplineSet
LCarets2: 1 195 
Ligature2: "Standard Ligatures in Latin-1" f t
EndChar

StartChar: f_f
Encoding: 65540 -1 79
Width: 476
VWidth: 0
Flags: W
HStem: -2 21G<86.5 121 288.5 323> 337 92<140.949 245.488 342.55 407.208> 340 82<142.676 246.727> 552 61<152.508 239.846> 579 61<350.182 417.293>
VStem: 50 88<202.617 336.963 426.058 535.402> 53 101<8.57217 197.531> 65 73<72.0628 336.736> 247 88<425.613 497.738> 255 101<8.57217 197.531>
LayerCount: 2
Fore
SplineSet
204 552 m 0xb080
 140 552 132 502 133 429 c 1xd080
 166 423 215 426 247 422 c 1
 246 450 247 472 250 499 c 1
 241 524 242 552 204 552 c 0xb080
392 579 m 0x8c
 340 579 335 529 335 470 c 0
 335 456 335 443 335 429 c 1
 386 420 447 421 447 366 c 0
 447 345 433 329 408 329 c 0
 391 329 381 337 364 337 c 0xcc80
 338 337 342 308 342 285 c 1
 342 285 342 285 341 286 c 1
 347 221 356 134 356 69 c 0
 356 33 343 -2 303 -2 c 0
 274 -2 255 29 255 60 c 0
 255 115 267 147 267 200 c 0
 267 255 268 283 262 326 c 0
 260 339 253 340 238 340 c 0xa040
 217 340 183 337 161 337 c 0
 136 337 138 286 138 286 c 1xc440
 144 221 154 134 154 69 c 0
 154 33 141 -2 101 -2 c 0
 72 -2 53 29 53 60 c 0xc2
 53 115 65 147 65 200 c 0xc1
 65 256 56 301 50 345 c 1
 37 352 29 362 29 377 c 0
 29 390 36 403 44 415 c 1
 41 520 69 613 204 613 c 0xd4
 237 613 264 607 284 594 c 1
 306 622 340 640 392 640 c 0
 460 640 496 614 496 557 c 0
 496 532 479 519 448 519 c 0
 401 519 439 579 392 579 c 0x8c
EndSplineSet
LCarets2: 1 203 
Ligature2: "Standard Ligatures in Latin-1" f f
EndChar

StartChar: f_f_i
Encoding: 65541 -1 80
Width: 593
VWidth: 0
Flags: W
HStem: -2 21G<86.5 121 288.5 323> 337 92<141.379 245.487 343.949 432.934> 340 82<143.392 246.727> 552 61<152.339 239.846> 579 61<375.175 468.535>
VStem: 44 88<426.324 531.597> 53 101<8.57217 197.531> 247 88<426.797 497.738> 255 101<8.57217 197.531> 267 74<72.0628 336.872> 429 87<98.0252 343.422> 450 84<27.8877 271.759>
LayerCount: 2
Fore
SplineSet
450 139 m 0xc810
 450 203 429 239 429 299 c 0
 429 313 430 329 434 344 c 1
 412 342 378 337 364 337 c 0
 339 337 341 286 341 286 c 1xc860
 347 221 356 134 356 69 c 0
 356 33 343 -2 303 -2 c 0
 274 -2 255 29 255 60 c 0xc880
 255 115 267 147 267 200 c 0
 267 255 268 283 262 326 c 0
 260 339 253 340 238 340 c 0xa040
 217 340 183 337 161 337 c 0
 136 337 139 286 139 286 c 1
 145 221 154 134 154 69 c 0
 154 33 141 -2 101 -2 c 0
 72 -2 53 29 53 60 c 0xc240
 53 115 65 147 65 200 c 0
 65 256 56 301 50 345 c 1
 37 352 29 362 29 377 c 0
 29 390 36 403 44 415 c 1
 41 520 69 613 204 613 c 4xd4
 237 613 264 607 284 594 c 1
 306 622 375 640 427 640 c 0
 495 640 561 614 561 557 c 0
 561 532 544 514 513 514 c 0
 439 514 506 579 427 579 c 0
 363 579 334 504 335 429 c 1
 371 423 434 429 466 413 c 1
 479 429 495 440 514 440 c 0
 538 440 553 424 553 405 c 0
 553 355 516 326 516 249 c 0xcd20
 516 214 534 116 534 51 c 0
 534 26 522 3 484 3 c 0
 457 3 438 24 438 45 c 0
 438 81 450 104 450 139 c 0xc810
204 552 m 0xb5
 140 552 131 502 132 429 c 1xd5
 165 423 215 426 247 422 c 1
 246 450 247 472 250 499 c 5
 241 524 242 552 204 552 c 0xb5
EndSplineSet
LCarets2: 2 207 399 
Ligature2: "Standard Ligatures in Latin-1" f f i
EndChar

StartChar: f_f_k
Encoding: 65542 -1 81
Width: 818
VWidth: 0
Flags: W
HStem: -2 22G<86.5 121 288.5 323 480.5 515 684 721.5> 337 92<140.949 245.488 343.949 436.538> 337 83<141.012 246.727 344.984 437.032> 552 61<152.508 239.846> 579 61<350.033 434.295>
VStem: 50 88<202.617 336.963 426.058 535.402> 53 101<8.57217 197.531> 65 73<72.0628 336.736> 246 89<426.679 498.11> 255 101<8.57217 197.531> 267 74<72.0628 336.872> 444 84<273.746 345 420 500.124> 447 101<8.57217 167.359> 655 94<7.30173 143.347>
LayerCount: 2
Fore
SplineSet
392 579 m 0xa88c
 327 579 334 498 335 429 c 1xc88c
 364 424 407 427 438 420 c 1
 437 455 440 485 447 519 c 1
 441 539 439 579 392 579 c 0xa88c
204 552 m 0xd084
 140 552 132 502 133 429 c 1
 166 423 215 426 247 422 c 1
 247 430 246 437 246 444 c 0
 246 462 248 480 250 499 c 1
 241 524 242 552 204 552 c 0xd084
525 639 m 0
 550 639 565 614 565 587 c 0
 565 514 528 471 528 359 c 0x8c14
 528 340 531 308 534 272 c 1
 607 337 657 421 734 421 c 0
 758 421 780 408 780 391 c 0
 780 352 701 348 635 264 c 1
 709 207 749 135 749 76 c 0
 749 43 745 -1 698 -1 c 0
 670 -1 655 20 655 40 c 0
 655 121 628 174 576 207 c 1
 566 199 553 184 543 169 c 1
 546 134 548 99 548 69 c 0
 548 33 535 -2 495 -2 c 0
 466 -2 447 29 447 60 c 0x880c
 447 114 459 147 459 198 c 0
 459 255 450 300 444 345 c 1
 425 343 384 337 364 337 c 0
 339 337 341 286 341 286 c 1xc834
 347 221 356 134 356 69 c 0
 356 33 343 -2 303 -2 c 0
 274 -2 255 29 255 60 c 0xc844
 255 115 267 147 267 200 c 0
 267 255 268 283 262 326 c 0
 260 339 253 340 238 340 c 4
 217 340 183 337 161 337 c 0
 136 337 138 286 138 286 c 1xcc24
 144 221 154 134 154 69 c 0
 154 33 141 -2 101 -2 c 0
 72 -2 53 29 53 60 c 0xca04
 53 115 65 147 65 200 c 0xc904
 65 256 56 301 50 345 c 1
 37 352 29 362 29 377 c 0
 29 390 36 403 44 415 c 1
 41 520 69 613 204 613 c 0xd404
 237 613 264 607 284 594 c 1
 306 622 340 640 392 640 c 0x8c04
 434 640 465 630 481 609 c 1
 493 628 508 639 525 639 c 0
EndSplineSet
LCarets2: 2 195 405 
Ligature2: "Standard Ligatures in Latin-1" f f k
EndChar

StartChar: f_f_l
Encoding: 65543 -1 82
Width: 590
VWidth: 0
Flags: W
HStem: -2 21G<86.5 121 288.5 323 467.5 502> 337 92<140.949 245.488 342.55 423.636> 337 85<141.012 246.727 343.574 424.305> 552 61<152.508 239.846> 579 61<350.013 425.972>
VStem: 50 88<202.617 336.963 426.058 535.402> 53 101<8.57217 197.531> 65 73<72.0628 336.736> 246 88<426.781 498.11> 255 101<8.57217 197.531> 267 75<70.0196 336.872> 434 101<8.57217 195.622>
LayerCount: 2
Fore
SplineSet
392 579 m 0xa890
 340 579 334 529 334 470 c 0
 334 456 335 443 335 429 c 1xc890
 360 425 396 426 425 422 c 1
 424 456 427 487 434 521 c 1
 426 547 434 579 392 579 c 0xa890
204 552 m 0xb090
 140 552 132 502 133 429 c 5xd090
 166 423 215 426 247 422 c 1
 247 430 246 437 246 444 c 0
 246 462 248 480 250 499 c 1
 241 524 242 552 204 552 c 0xb090
446 198 m 0
 446 255 437 300 431 344 c 1
 412 343 379 337 364 337 c 0
 338 337 342 308 342 285 c 1xcc30
 342 285 356 88 356 69 c 0
 356 33 343 -2 303 -2 c 0
 274 -2 255 29 255 60 c 0xc850
 255 115 267 147 267 200 c 0
 267 255 268 283 262 326 c 0
 260 339 253 340 238 340 c 0
 217 340 183 337 161 337 c 0
 136 337 138 286 138 286 c 1xcc30
 144 221 154 134 154 69 c 0
 154 33 141 -2 101 -2 c 0
 72 -2 53 29 53 60 c 0xca10
 53 115 65 147 65 200 c 0xc910
 65 256 56 301 50 345 c 1
 37 352 29 362 29 377 c 0
 29 390 36 403 44 415 c 1
 41 520 69 613 204 613 c 4xd410
 237 613 264 607 284 594 c 1
 306 622 340 640 392 640 c 0x8c10
 429 640 457 633 474 617 c 1
 485 631 498 639 512 639 c 0
 537 639 552 614 552 587 c 0
 552 514 515 471 515 359 c 0
 515 307 535 165 535 69 c 0
 535 33 522 -2 482 -2 c 0
 453 -2 434 29 434 60 c 0
 434 114 446 147 446 198 c 0
EndSplineSet
LCarets2: 2 0 0 
Ligature2: "Standard Ligatures in Latin-1" f f l
EndChar

StartChar: f_f_t
Encoding: 65544 -1 83
Width: 636
VWidth: 0
Flags: W
HStem: -13 101<501.875 544.25> -2 21G<86.5 121 288.5 323> 337 92<140.625 246.727 343.125 410 505.255 564.208> 552 61<152.339 239.846> 579 61<354.144 430.069>
VStem: 44 88<426.324 531.597> 53 101<8.57217 197.531> 65 74<72.0628 336.736> 246 89<426.269 498.11> 255 101<8.57217 197.531> 267 74<72.0736 323.995> 411 86<87.3753 336.424>
LayerCount: 2
Fore
SplineSet
397 579 m 0x2890
 333 579 334 501 335 429 c 1
 356 425 384 425 410 424 c 1
 413 428 416 432 419 436 c 1
 424 461 429 500 440 528 c 1
 431 555 433 579 397 579 c 0x2890
204 552 m 0x3490
 140 552 131 502 132 429 c 1
 165 423 215 426 247 422 c 1
 247 430 246 437 246 444 c 0
 246 462 248 480 250 499 c 1
 241 524 242 552 204 552 c 0x3490
556 36 m 0
 556 6 533 -13 507 -13 c 0
 497 -13 487 -10 478 -6 c 0
 410 28 411 139 411 237 c 0
 411 268 413 287 413 311 c 0
 413 321 413 331 412 344 c 1
 395 341 375 337 364 337 c 0
 339 337 341 296 341 286 c 0xac30
 341 236 356 134 356 69 c 0
 356 33 343 -2 303 -2 c 0
 274 -2 255 29 255 60 c 0x6050
 255 115 267 147 267 200 c 0
 267 255 268 283 262 326 c 0
 260 339 253 340 238 340 c 0
 217 340 183 337 161 337 c 0
 136 337 139 296 139 286 c 1x6130
 139 221 154 134 154 69 c 0
 154 33 141 -2 101 -2 c 0
 72 -2 53 29 53 60 c 0x6210
 53 115 65 147 65 200 c 0x6110
 65 256 56 301 50 345 c 1
 37 352 29 362 29 377 c 0
 29 390 36 403 44 415 c 1
 41 520 69 613 204 613 c 0x7410
 237 613 264 607 284 594 c 1
 306 622 345 640 397 640 c 0
 489 640 517 595 517 514 c 0
 517 503 505 426 505 426 c 1
 554 426 604 410 604 366 c 0
 604 345 590 329 565 329 c 0
 548 329 538 337 521 337 c 0
 502 337 500 320 500 305 c 0
 500 277 497 245 497 199 c 0
 497 167 492 100 516 88 c 0xac10
 538 77 556 59 556 36 c 0
EndSplineSet
LCarets2: 2 205 386 
Ligature2: "Standard Ligatures in Latin-1" f f t
EndChar

StartChar: asciitilde
Encoding: 126 126 84
Width: 472
VWidth: 0
Flags: W
HStem: 312 68<159.351 381.326> 330 68<92.6018 320.357>
LayerCount: 2
Fore
SplineSet
142 330 m 0x40
 97 330 79 315 40 304 c 17
 40 358 113 398 171 398 c 0x40
 224 398 274 380 325 380 c 0
 357 380 395 398 429 417 c 1
 430 414 430 411 430 408 c 0
 430 363 370 312 321 312 c 0x80
 259 312 211 330 142 330 c 0x40
EndSplineSet
EndChar

StartChar: hyphen
Encoding: 45 45 85
Width: 472
VWidth: 0
Flags: W
HStem: 312 70<150.886 416.815> 330 68<64.094 341.775>
LayerCount: 2
Fore
SplineSet
321 312 m 0x80
 254 312 201 330 124 330 c 0
 92 330 73 324 40 320 c 1
 40 374 71 398 171 398 c 0x40
 239 398 298 382 369 382 c 0
 390 382 411 384 431 395 c 1
 432 392 432 389 432 386 c 0
 432 341 425 312 321 312 c 0x80
EndSplineSet
EndChar

StartChar: circumflex
Encoding: 710 710 86
Width: 0
VWidth: 0
Flags: W
HStem: 655 91
AnchorPoint: "Top" 199 662 mark 0
LayerCount: 2
Fore
SplineSet
235 746 m 25
 367 655 l 25
 343 655 l 25
 199 718 l 25
 55 655 l 25
 31 655 l 25
 163 746 l 25
 235 746 l 25
EndSplineSet
EndChar

StartChar: caron
Encoding: 711 711 87
Width: 0
VWidth: 0
Flags: W
HStem: 655 90
AnchorPoint: "Top" 199 662 mark 0
LayerCount: 2
Fore
SplineSet
163 655 m 25
 31 745 l 25
 55 745 l 25
 199 682 l 25
 343 745 l 25
 367 745 l 25
 235 655 l 25
 163 655 l 25
EndSplineSet
EndChar

StartChar: uni02C9
Encoding: 713 713 88
Width: 1000
VWidth: 0
HStem: 680 34<41 329.814 333.938 393> 691 32<131.416 391.969>
AnchorPoint: "Top" 217 662 mark 0
LayerCount: 2
Fore
SplineSet
41 720 m 17x80
 71 715 101 714 130 714 c 0x80
 199 714 265 723 333 723 c 0
 353 723 373 722 393 720 c 9
 393 686 l 17
 369 690 346 691 322 691 c 0x40
 255 691 188 680 120 680 c 0
 94 680 68 682 41 686 c 9
 41 720 l 17x80
EndSplineSet
EndChar

StartChar: uni02CA
Encoding: 714 714 89
Width: 1000
VWidth: 0
HStem: 702 35<341 365.676>
AnchorPoint: "Top" 198 662 mark 0
LayerCount: 2
Back
SplineSet
31 656.15 m 21
 31 710.15 104 724.15 162 724.15 c 4
 215 724.15 241 704.15 292 704.15 c 4
 324 704.15 362 722.15 396 741.15 c 5
 397 738.15 397 735.15 397 732.15 c 4
 397 687.15 337 662.15 288 662.15 c 4
 223 662.15 187 684.15 122 682.15 c 28
 85 681.15 66 666.15 31 656.15 c 21
EndSplineSet
Fore
SplineSet
31 655 m 25
 160 689 339 737 349 737 c 0
 360 737 366 731 366 723 c 0
 366 714 361 705 341 702 c 1
 341 700 152 673 31 655 c 25
EndSplineSet
EndChar

StartChar: uni02CB
Encoding: 715 715 90
Width: 0
VWidth: 0
Flags: W
HStem: 702 35<32.3244 57>
AnchorPoint: "Top" 199 662 mark 0
LayerCount: 2
Fore
SplineSet
367 655 m 25
 246 673 57 700 57 702 c 1
 37 705 32 714 32 723 c 0
 32 731 38 737 49 737 c 0
 59 737 238 689 367 655 c 25
EndSplineSet
EndChar

StartChar: breve
Encoding: 728 728 91
Width: 0
VWidth: 0
Flags: W
HStem: 655 29<129.121 259.298>
AnchorPoint: "Top" 200 660 mark 0
LayerCount: 2
Back
SplineSet
163 655 m 29
 31 745 l 29
 55 745 l 29
 199 682 l 29
 343 745 l 29
 367 745 l 29
 235 655 l 29
 163 655 l 29
EndSplineSet
Fore
SplineSet
31 737 m 9
 55 737 l 17
 109 706 139 684 199 684 c 27
 259 684 291 706 343 737 c 9
 367 737 l 25
 367 737 272 655 198 655 c 1
 116 659 77 698 31 737 c 9
EndSplineSet
EndChar

StartChar: ring
Encoding: 730 730 92
Width: 0
VWidth: 0
Flags: W
HStem: 648 23<56.1891 109.958> 739 23<58.2949 102.809>
VStem: 26 23<677.942 730.262> 117 23<677.861 727.21>
AnchorPoint: "RingTop" 89 662.7 mark 0
LayerCount: 2
Fore
SplineSet
117 703 m 0
 117 722 104 730 95 733 c 1
 91 740 83 739 78 739 c 0
 64 739 49 721 49 705 c 0
 49 681 63 671 86 671 c 0
 107 671 117 688 117 703 c 0
140 701 m 0
 140 677 124 648 88 648 c 0
 50 648 26 665 26 705 c 0
 26 732 51 762 75 762 c 0
 77 762 79 762 82 762 c 0
 90 762 99 761 103 752 c 1
 118 748 140 733 140 701 c 0
EndSplineSet
EndChar

StartChar: AE
Encoding: 198 198 98
Width: 522
VWidth: 0
Flags: W
HStem: -2 99<341.723 463.71> 281 100<150 229 346.792 412.969> 292 84<326.289 389.208> 537 98<349.398 476.25>
VStem: 26 88<96.976 274.781> 230 91<110.517 280.37 381.029 492.094>
LayerCount: 2
Fore
SplineSet
346 292 m 0xbc
 317 292 321 266 321 244 c 0
 321 196 330 167 341 117 c 0
 343 107 348 98 357 97 c 0
 410 93 478 96 478 42 c 0
 478 18 460 -2 436 -2 c 0
 398 -2 377 12 340 12 c 0
 313 12 295 4 270 4 c 0
 249 4 222 12 222 34 c 0
 222 59 235 69 254 89 c 1
 243 155 236 217 230 278 c 1
 223 280 206 281 189 281 c 0xdc
 168 281 145 280 129 279 c 1
 120 255 114 224 114 192 c 0
 114 177 115 162 118 147 c 0
 127 100 154 74 154 34 c 0
 154 11 131 0 106 0 c 0
 46 0 26 123 26 215 c 0
 26 379 118 636 220 636 c 0
 257 636 285 635 326 635 c 2
 335 635 l 2
 449 635 491 634 491 565 c 0
 491 539 468 531 442 531 c 0
 418 531 405 537 381 537 c 0
 365 537 353 529 349 514 c 0
 339 480 326 441 326 393 c 0
 326 378 327 376 335 376 c 0
 387 376 429 369 429 321 c 0
 429 300 415 284 390 284 c 0
 373 284 363 292 346 292 c 0xbc
150 381 m 1
 229 381 l 1
 231 430 238 480 248 529 c 1
 240 532 233 538 228 544 c 1
 188 510 164 437 150 381 c 1
EndSplineSet
EndChar

StartChar: exclamdown
Encoding: 161 161 117
Width: 218
VWidth: 0
Flags: W
HStem: 526 113<86.1919 151.02>
VStem: 49 115<322.817 461.793 543.702 629.143> 49 101<219.527 442.562> 72 103<63.9675 278.358>
LayerCount: 2
Fore
SplineSet
50 587 m 0xc0
 50 611 66 639 102 639 c 0
 140 639 164 623 164 583 c 0
 164 556 139 526 115 526 c 0
 113 526 111 526 108 526 c 0
 100 526 90 527 86 536 c 1
 71 540 50 555 50 587 c 0xc0
150 321 m 0xa0
 150 251 175 211 175 145 c 0
 175 79 155 -8 94 -8 c 0
 66 -8 47 10 47 30 c 0
 47 85 72 116 72 200 c 0x90
 72 239 49 346 49 418 c 0
 49 445 65 472 110 472 c 0
 143 472 164 448 164 425 c 0xc0
 164 384 150 360 150 321 c 0xa0
EndSplineSet
EndChar

StartChar: Ccedilla
Encoding: 199 199 118
Width: 364
VWidth: 0
Flags: W
HStem: -189 32<193.958 256.714> -68 31<216.287 261.632> 557 80<196.265 264.5>
VStem: 29 107<162.536 456.037> 247 91<82.9098 153.439> 266 33<-149.094 -69.9628>
LayerCount: 2
Fore
SplineSet
181 -167 m 1xf4
 201 -145 l 1
 213 -155 216 -157 227 -157 c 0
 256 -157 266 -131 266 -105 c 0xf4
 266 -88 259 -68 241 -68 c 0
 230 -68 224 -71 215 -81 c 1
 181 -77 l 1
 194 3 l 1
 75 29 29 180 29 313 c 0
 29 476 98 637 244 637 c 0
 285 637 323 610 323 568 c 0
 323 539 307 508 278 508 c 0
 257 508 244 521 238 540 c 0
 234 552 226 557 218 557 c 0
 212 557 206 553 202 548 c 0
 166 498 136 417 136 318 c 0
 136 220 150 79 211 79 c 0
 231 79 247 94 247 114 c 0
 247 141 219 147 219 173 c 0
 219 196 243 210 262 210 c 0
 263 210 262 210 263 210 c 0
 314 210 338 168 338 123 c 0xf8
 338 49 298 0 224 -1 c 5
 216 -41 l 1
 223 -39 228 -37 235 -37 c 0
 271 -37 299 -63 299 -103 c 0
 299 -145 273 -189 232 -189 c 0
 210 -189 193 -183 181 -167 c 1xf4
EndSplineSet
EndChar

StartChar: uni0237
Encoding: 567 567 145
Width: 374
VWidth: 0
Flags: W
HStem: -123 61<112.17 193.062> -19 20G<56.5 95.5>
VStem: 183 84<106.469 337.829> 214 73<-41.6924 175.422>
AnchorPoint: "Top" 263 492 basechar 0
LayerCount: 2
Fore
SplineSet
183 260 m 0xe0
 183 316 202 428 268 428 c 0
 290 428 306 412 306 396 c 0
 306 359 267 327 267 209 c 0xe0
 267 166 287 47 287 4 c 0
 287 -70 228 -123 152 -123 c 0
 84 -123 24 -94 24 -37 c 0
 24 -12 41 1 72 1 c 0
 119 1 93 -62 152 -62 c 0
 199 -62 214 -4 214 24 c 0xd0
 214 93 183 189 183 260 c 0xe0
EndSplineSet
EndChar

StartChar: dotlessi
Encoding: 305 305 146
Width: 205
VWidth: 0
Flags: W
HStem: -4 21G<90.5 123>
VStem: 49 87<91.0252 337.495> 70 84<20.8877 264.759>
AnchorPoint: "Top" 123 490 basechar 0
LayerCount: 2
Fore
SplineSet
70 132 m 0xa0
 70 196 49 232 49 292 c 0
 49 352 82 433 134 433 c 0
 158 433 173 417 173 398 c 0
 173 348 136 319 136 242 c 0xc0
 136 207 154 109 154 44 c 0
 154 19 142 -4 104 -4 c 0
 77 -4 58 17 58 38 c 0
 58 74 70 97 70 132 c 0xa0
EndSplineSet
EndChar

StartChar: kgreenlandic
Encoding: 312 312 147
Width: 414
VWidth: 0
Flags: W
HStem: 0 20G<69 102.5 223 260.5>
VStem: 41 93<19.2468 182.617> 194 94<7.30173 169.449>
LayerCount: 2
Fore
SplineSet
28 239 m 0
 28 316 48 428 108 428 c 0
 132 428 154 415 154 398 c 0
 154 382 132 346 124 303 c 1
 175 354 235 421 306 421 c 0
 330 421 352 408 352 391 c 0
 352 352 250 354 189 262 c 1
 263 205 288 135 288 76 c 0
 288 43 284 -1 237 -1 c 0
 209 -1 194 20 194 40 c 0
 194 55 194 70 194 83 c 0
 194 141 190 180 148 207 c 1
 134 196 123 180 115 161 c 9
 122 123 134 104 134 63 c 0
 134 34 124 0 81 0 c 0
 57 0 32 7 32 28 c 0
 32 65 41 86 41 122 c 0
 41 168 28 193 28 239 c 0
EndSplineSet
EndChar

StartChar: longs
Encoding: 383 383 148
Width: 218
VWidth: 0
Flags: W
HStem: 579 61<156.351 237.699>
VStem: 44 89<198.298 555.121> 53 101<8.57217 197.531>
LayerCount: 2
Fore
SplineSet
44 433 m 0xc0
 44 346 65 291 65 200 c 0
 65 147 53 115 53 60 c 0
 53 29 72 -2 101 -2 c 0
 141 -2 154 33 154 69 c 0xa0
 154 218 133 327 133 443 c 4
 133 513 141 579 201 579 c 0
 260 579 225 519 272 519 c 0
 303 519 320 532 320 557 c 0
 320 614 269 640 201 640 c 0
 71 640 44 526 44 433 c 0xc0
EndSplineSet
EndChar

StartChar: germandbls
Encoding: 223 223 149
Width: 506
VWidth: 0
Flags: W
HStem: 0 80<292.522 383.037> 353 73<323.043 394.463> 579 61<156.93 201 322 380.345>
VStem: 44 89<204.24 554.426> 53 101<8.57217 197.531> 206 97<82.5113 123.242> 217 100<271.489 344.956> 395 84<94.2027 166.498> 411 61<442.599 548.465>
LayerCount: 2
Back
SplineSet
218 323 m 24
 215 382 289 426 376 426 c 0
 424 426 481 410 481 374 c 0
 481 341 446 312 411 312 c 0
 394 312 380 324 380 335 c 0
 380 342 384 346 386 353 c 17
 356 353 317 336 317 312 c 0
 317 243 479 216 479 103 c 0
 479 45 397 0 323 0 c 0
 246 0 206 17 206 75 c 0
 206 105 223 134 263 134 c 0
 283 134 303 120 303 109 c 0
 303 98 296 93 292 82 c 25
 299 81 303 80 311 80 c 0
 335 80 395 86 395 128 c 0
 395 190 223 234 218 323 c 24
200.75 579.118 m 4
 259.75 579.118 224.75 519.118 271.75 519.118 c 4
 302.75 519.118 319.75 532.118 319.75 557.118 c 4
 319.75 614.118 268.75 640.118 200.75 640.118 c 4
 70.9551 640.118 44 525.518 44 433 c 4
 44 348 62.8835 296.718 65 209 c 28
 66.4062 150.719 53 118 53 60 c 4xd0
 53 29 72 -2 101 -2 c 4
 141 -2 154 33 154 69 c 4
 154 165 134 307 134 359 c 4xe0
 134 446.083 116.652 579.118 200.75 579.118 c 4
EndSplineSet
Fore
SplineSet
44 433 m 0xf280
 44 346 65 291 65 200 c 0
 65 147 53 115 53 60 c 0
 53 29 72 -2 101 -2 c 0
 141 -2 154 33 154 69 c 0xe8
 154 165 134 307 134 359 c 0
 134 384 133 414 133 443 c 0
 133 513 141 579 201 579 c 0
 323 579 l 2
 371 579 411 540 411 497 c 0
 411 433 360 426 338 426 c 0
 296 426 217 389 217 334 c 0xf280
 217 223 395 193 395 128 c 4
 395 86 335 80 311 80 c 0
 303 80 299 81 292 82 c 25
 296 93 303 98 303 109 c 0
 303 120 283 134 263 134 c 0
 223 134 206 105 206 75 c 0
 206 17 246 0 323 0 c 0
 397 0 479 45 479 103 c 0xe5
 479 216 317 243 317 312 c 0
 317 336 343 353 361 353 c 0
 431 353 472 434 472 499 c 0
 472 554 425 640 322 640 c 2
 322 640 203 640 201 640 c 0
 71 640 44 526 44 433 c 0xf280
EndSplineSet
EndChar

StartChar: ampersand
Encoding: 38 38 150
Width: 539
VWidth: 0
Flags: W
HStem: -5 77<194.241 294.923> 339 84<150.28 315.048 417.006 475.208> 537 98<173.398 300.25>
VStem: 42 273<537.303 613.325> 53 97<423.304 509.049> 325 87<102.588 336.988 426 477.463>
LayerCount: 2
Fore
SplineSet
412 187 m 0xec
 412 97 358 -5 253 -5 c 0
 56 -5 67 192 54 325 c 1
 32 332 19 343 19 363 c 0
 19 392 40 402 53 428 c 1xec
 55 477 62 480 72 529 c 1
 54 537 42 555 42 568 c 0xf4
 42 618 90 635 150 635 c 2xec
 160 635 l 2
 274 635 315 634 315 565 c 0xf4
 315 539 292 531 266 531 c 0
 242 531 229 537 205 537 c 0
 189 537 177 529 173 514 c 0
 163 480 150 488 150 440 c 0
 150 425 151 423 159 423 c 0
 161 423 164 423 168 423 c 0
 188 423 216 422 243 422 c 0
 282 422 319 424 331 436 c 1
 340 478 340 525 385 525 c 0
 410 525 425 502 425 478 c 0
 425 467 417 426 417 426 c 1
 466 426 515 410 515 366 c 0
 515 345 501 329 476 329 c 0
 459 329 449 337 432 337 c 0
 413 337 411 320 411 305 c 4
 411 267 412 232 412 187 c 0xec
316 348 m 1
 297 342 193 339 170 339 c 0
 150 339 144 327 144 313 c 0
 144 236 146 72 245 72 c 0
 292 72 325 116 325 170 c 1
 323 225 328 288 323 344 c 1
 320 345 318 347 316 348 c 1
EndSplineSet
EndChar

StartChar: quoteleft
Encoding: 8216 8216 151
Width: 222
VWidth: 0
Flags: W
HStem: 536 223
VStem: 31 114<553.418 640.86>
LayerCount: 2
Fore
SplineSet
145 593 m 0
 145 566 120 536 96 536 c 0
 94 536 92 536 89 536 c 0
 81 536 72 537 68 546 c 1
 53 550 31 566 31 599 c 0
 31 621 57 709 115 759 c 9
 133 747 l 17
 118 718 114 688 109 649 c 1
 134 639 145 621 145 593 c 0
EndSplineSet
EndChar

StartChar: quoteright
Encoding: 8217 8217 152
Width: 222
VWidth: 0
Flags: W
HStem: 536 223
VStem: 26 114<653.732 740.625>
LayerCount: 2
Fore
SplineSet
26 702 m 0
 26 729 51 759 75 759 c 0
 77 759 79 759 81 759 c 0
 89 759 98 758 103 749 c 1
 118 744 140 729 140 696 c 0
 140 673 114 586 56 536 c 9
 38 548 l 17
 53 577 57 607 62 646 c 1
 37 656 26 674 26 702 c 0
EndSplineSet
EndChar

StartChar: uni2010
Encoding: 8208 8208 153
Width: 472
VWidth: 0
Flags: W
HStem: 312 70<173.482 416.786> 330 68<64.094 343.083>
LayerCount: 2
Fore
SplineSet
321 312 m 4x80
 254 312 201 330 124 330 c 0
 92 330 73 324 40 320 c 1
 40 374 71 398 171 398 c 4x40
 224 398 274 383 325 383 c 0
 339 383 354 382 369 382 c 0
 390 382 411 384 431 395 c 1
 432 392 432 389 432 386 c 0
 432 341 425 312 321 312 c 4x80
EndSplineSet
EndChar

StartChar: uni2011
Encoding: 8209 8209 154
Width: 472
VWidth: 0
Flags: W
HStem: 312 70<173.482 416.786> 330 68<64.094 343.083>
LayerCount: 2
Fore
SplineSet
321 312 m 4x80
 254 312 201 330 124 330 c 0
 92 330 73 324 40 320 c 1
 40 374 71 398 171 398 c 4x40
 224 398 274 383 325 383 c 0
 339 383 354 382 369 382 c 0
 390 382 411 384 431 395 c 1
 432 392 432 389 432 386 c 0
 432 341 425 312 321 312 c 4x80
EndSplineSet
EndChar

StartChar: figuredash
Encoding: 8210 8210 155
Width: 521
VWidth: 0
Flags: W
HStem: 330 67<40 478>
LayerCount: 2
Fore
SplineSet
40 397 m 1
 478 397 l 5
 478 330 l 5
 40 330 l 1
 40 397 l 1
EndSplineSet
EndChar

StartChar: endash
Encoding: 8211 8211 156
Width: 472
VWidth: 0
Flags: W
HStem: 312 70<173.482 416.786> 330 68<64.094 343.083>
LayerCount: 2
Fore
SplineSet
321 312 m 4x80
 254 312 201 330 124 330 c 0
 92 330 73 324 40 320 c 1
 40 374 71 398 171 398 c 4x40
 224 398 274 383 325 383 c 0
 339 383 354 382 369 382 c 0
 390 382 411 384 431 395 c 1
 432 392 432 389 432 386 c 0
 432 341 425 312 321 312 c 4x80
EndSplineSet
EndChar

StartChar: emdash
Encoding: 8212 8212 157
Width: 632
VWidth: 0
Flags: W
HStem: 312 70<274.214 598.369> 330 68<64.4053 380.361>
LayerCount: 2
Fore
SplineSet
502 312 m 0x80
 437 312 271 330 126 330 c 0
 93 330 74 324 40 320 c 1
 40 374 71 398 171 398 c 0x40
 224 398 455 383 506 383 c 0
 520 383 535 382 550 382 c 0
 571 382 592 384 612 395 c 1
 613 392 614 389 614 386 c 0
 614 341 606 312 502 312 c 0x80
EndSplineSet
EndChar

StartChar: uni2023
Encoding: 8227 8227 158
Width: 228
VWidth: 0
Flags: W
LayerCount: 2
Fore
SplineSet
49 368 m 29
 49 48 l 29
 185 208 l 29
 49 368 l 29
EndSplineSet
EndChar

StartChar: bullet
Encoding: 8226 8226 164
Width: 393
VWidth: 0
Flags: W
HStem: 184 182<120.152 210.618>
VStem: 86 183<210.815 327.089>
LayerCount: 2
Fore
SplineSet
269 268 m 4
 269 229 242 184 185 184 c 4
 124 184 86 210 86 274 c 4
 86 317 127 366 165 366 c 4
 167 366 170 366 173 366 c 0
 186 366 203 365 211 350 c 5
 234 343 269 320 269 268 c 4
EndSplineSet
EndChar

StartChar: ae
Encoding: 230 230 191
Width: 628
VWidth: 0
Flags: W
HStem: -1 71<389.409 496.722> 0 60<148.839 251.604> 218 63<368 511.199> 233 55<167.819 250.307> 356 70<126.744 245.578 401.13 489.568>
VStem: 33 95<79.4626 193.798> 262 92<110.622 211.92> 498 81<76.3045 111.687>
LayerCount: 2
Fore
SplineSet
512 283 m 1x2f
 516 302 492 356 442 356 c 0
 412 356 376 314 368 283 c 1
 368 283 409 281 452 281 c 0
 473 281 495 281 512 283 c 1x2f
262 134 m 0
 262 164 256 190 251 213 c 1
 236 218 235 233 214 233 c 0
 167 233 128 173 128 142 c 0
 128 103 142 60 205 60 c 0x5f
 235 60 245 71 253 84 c 1
 257 104 262 112 262 134 c 0
458 427 m 0
 534 427 598 346 598 272 c 0
 598 252 587 233 558 222 c 1
 545 218 527 218 504 218 c 0
 468 218 419 220 354 220 c 1
 354 215 354 211 354 206 c 0
 354 146 373 70 442 70 c 0
 463 70 498 79 498 90 c 0
 498 105 470 108 470 123 c 0
 470 136 493 144 510 144 c 0
 511 144 512 144 513 144 c 0
 559 144 579 115 579 84 c 0
 579 34 510 -1 450 -1 c 0
 408 -1 374 9 347 26 c 1
 341 11 326 -1 298 -1 c 0xaf
 288 -1 279 2 272 6 c 1
 258 2 242 0 224 0 c 0
 86 0 33 76 33 141 c 0
 33 228 95 288 223 288 c 0
 229 288 235 288 241 288 c 1
 250 306 251 304 251 308 c 0
 251 310 251 313 251 320 c 0
 251 339 230 356 183 356 c 0
 124 356 131 317 84 317 c 0
 53 317 36 331 36 348 c 0
 36 386 117 426 185 426 c 0
 244 426 304 411 328 381 c 1
 360 409 404 427 458 427 c 0
EndSplineSet
EndChar

StartChar: ccedilla
Encoding: 231 231 192
Width: 342
VWidth: 0
Flags: W
HStem: -189 32<174.958 237.714> -68 31<197.287 242.632> -1 71<204 236.306> 356 71<177.609 250.762>
VStem: 29 95<107.394 291.45> 238 81<72.1696 111.687> 247 33<-149.094 -69.9628>
LayerCount: 2
Fore
SplineSet
29 210 m 0xfa
 29 319 94 427 231 427 c 0
 269 427 305 403 305 366 c 0
 305 340 292 313 266 313 c 0
 247 313 235 324 230 341 c 0
 226 351 218 356 210 356 c 0
 203 356 197 353 193 348 c 1
 156 318 124 271 124 212 c 0
 124 154 138 70 201 70 c 0
 222 70 238 79 238 90 c 0
 238 105 210 108 210 123 c 0
 210 136 233 144 250 144 c 0
 251 144 251 144 252 144 c 0
 298 144 319 115 319 84 c 0xfc
 319 34 280 -1 220 -1 c 0
 215 -1 209 -0 204 -0 c 1
 197 -41 l 1
 204 -39 209 -37 216 -37 c 0
 252 -37 280 -63 280 -103 c 0
 280 -145 254 -189 213 -189 c 0
 191 -189 174 -183 162 -167 c 1
 182 -145 l 1
 194 -155 197 -157 208 -157 c 0
 237 -157 247 -131 247 -105 c 0
 247 -88 240 -68 222 -68 c 0
 211 -68 205 -71 196 -81 c 1
 160 -77 l 1
 175 3 l 1
 70 25 29 123 29 210 c 0xfa
EndSplineSet
EndChar

StartChar: f_i
Encoding: 65536 -1 203
Width: 375
VWidth: 0
Flags: W
HStem: -2 21G<86.5 121 264.5 297> 579 61<160.018 263.076>
VStem: 44 88<425.222 549.333> 53 101<8.57217 197.531> 223 87<91.0252 330.337> 244 84<20.8877 264.759>
LayerCount: 2
Fore
SplineSet
244 132 m 0xc4
 244 196 223 232 223 292 c 0
 223 304 225 316 227 329 c 1
 208 331 176 337 161 337 c 0
 135 337 140 308 140 285 c 1
 140 285 140 285 139 286 c 1
 145 221 154 134 154 69 c 0
 154 33 141 -2 101 -2 c 0
 72 -2 53 29 53 60 c 0xd8
 53 115 65 147 65 200 c 0
 65 256 56 301 50 345 c 1
 37 352 29 362 29 377 c 0
 29 390 36 403 44 415 c 1
 44 421 44 428 44 434 c 0
 44 532 71 640 221 640 c 0
 289 640 356 619 356 562 c 0
 356 537 339 524 308 524 c 0
 239 524 295 579 221 579 c 0
 140 579 132 515 132 447 c 0
 132 441 133 434 133 428 c 1
 170 422 226 421 255 400 c 1
 269 420 287 433 308 433 c 0
 332 433 347 417 347 398 c 0
 347 348 310 319 310 242 c 0xe8
 310 207 328 109 328 44 c 0
 328 19 316 -4 278 -4 c 0
 251 -4 232 17 232 38 c 0
 232 74 244 97 244 132 c 0xc4
EndSplineSet
LCarets2: 1 187 
Ligature2: "Standard Ligatures in Latin-1" f i
EndChar

StartChar: zero.ss01
Encoding: 65616 -1 218
Width: 174
VWidth: 0
Flags: W
HStem: -5 31<66.185 104.067> 196 27<66.185 105.073>
VStem: 21 33<34.0089 188.909> 118 31<37.8883 186.587>
LayerCount: 2
Back
Fore
SplineSet
85 196 m 0
 59 196 54 151 54 118 c 0
 54 80 59 26 85 26 c 0
 111 26 118 80 118 118 c 8
 118 151 111 196 85 196 c 0
21 118 m 24
 21 166 31 223 85 223 c 0
 139 223 149 166 149 118 c 24
 149 64 139 -5 85 -5 c 0
 31 -5 21 64 21 118 c 24
EndSplineSet
EndChar

StartChar: one.ss01
Encoding: 65617 -1 219
Width: 89
VWidth: 0
Flags: W
HStem: 0 214<40.2021 70>
VStem: 22 48<174.189 209.5> 40 30<0 182>
LayerCount: 2
Back
Fore
SplineSet
22 196 m 1xc0
 34 202 43 208 49 214 c 9
 70 214 l 25
 70 0 l 9
 40 0 l 25
 40 182 l 9xa0
 26 174 l 17
 23 178 22 184 22 190 c 0
 22 192 22 194 22 196 c 1xc0
EndSplineSet
EndChar

StartChar: two.ss01
Encoding: 65618 -1 220
Width: 175
VWidth: 0
Flags: W
HStem: -2 32<67 154> 190 31<73.5941 122.997>
VStem: 37 32<159 186.033> 126 33<134.445 187.427>
LayerCount: 2
Back
Fore
SplineSet
100 190 m 0
 82 190 69 175 69 159 c 9
 37 159 l 25
 37 162 37 165 37 168 c 0
 37 194 68 221 100 221 c 0
 132 221 159 195 159 163 c 0
 159 126 134 114 106 92 c 0
 88 78 72 53 67 30 c 9
 154 30 l 25
 154 -2 l 25
 32 -2 l 29
 32 4 32 7 32 13 c 4
 32 54 61 98 90 119 c 0
 120 141 126 147 126 162 c 0
 126 177 115 190 100 190 c 0
EndSplineSet
EndChar

StartChar: three.ss01
Encoding: 65619 -1 221
Width: 186
VWidth: 0
Flags: W
HStem: -4 34<71.8468 133.502> 102 34<103 129.084> 188 34<67.982 126.782>
VStem: 130 39<136.876 185.161> 140 39<35.121 98.7095>
LayerCount: 2
Back
Fore
SplineSet
64 166 m 9xf0
 29 177 l 17
 39 200 67 222 99 222 c 4
 139 222 169 194 169 158 c 4xf0
 169 145 168 138 162 126 c 1
 172 110 179 96 179 70 c 4
 179 23 148 -4 102 -4 c 4
 65 -4 40 17 26 53 c 9
 64 58 l 17
 74 42 83 30 103 30 c 0
 123 30 140 47 140 67 c 0xe8
 140 87 130 102 102 102 c 9
 103 136 l 17
 122 136 130 146 130 158 c 0
 130 175 115 188 99 188 c 0
 83 188 72 178 64 166 c 9xf0
EndSplineSet
EndChar

StartChar: four.ss01
Encoding: 65620 -1 222
Width: 174
VWidth: 0
Flags: W
HStem: 0 21G<103 134> 52 25<50 103 134 149>
VStem: 103 31<0 52 77 162>
LayerCount: 2
Back
Fore
SplineSet
103 77 m 29
 103 162 l 29
 50 77 l 29
 103 77 l 29
103 52 m 29
 14 52 l 29
 14 80 l 29
 100 214 l 29
 134 214 l 29
 134 77 l 29
 149 77 l 29
 149 52 l 29
 134 52 l 29
 134 0 l 29
 103 0 l 29
 103 52 l 29
EndSplineSet
EndChar

StartChar: five.ss01
Encoding: 65621 -1 223
Width: 154
VWidth: 0
Flags: W
HStem: -10 32<36.9576 99.714> 111 31<59.2867 104.632> 184 32<59 130>
VStem: 27 32<138 186> 109 33<29.9057 109.037>
LayerCount: 2
Back
Fore
SplineSet
24 12 m 9
 44 34 l 17
 56 24 59 22 70 22 c 0
 99 22 109 48 109 74 c 0
 109 91 102 111 84 111 c 0
 73 111 67 108 58 98 c 9
 27 102 l 25
 28 216 l 25
 130 216 l 25
 130 184 l 25
 59 186 l 25
 59 138 l 25
 66 140 71 142 78 142 c 0
 114 142 142 116 142 76 c 0
 142 34 116 -10 75 -10 c 0
 53 -10 36 -4 24 12 c 9
EndSplineSet
EndChar

StartChar: six.ss01
Encoding: 65622 -1 224
Width: 190
VWidth: 0
Flags: W
HStem: -3 32<60.9827 128.094> 95 35<66.3282 130.197> 198 20G<68 108.462>
VStem: 17 38<33.7317 89.9997> 134 38<34.1294 90.9257>
LayerCount: 2
Back
Fore
SplineSet
96 29 m 0
 115 29 134 42 134 61 c 0
 134 81 121 95 96 95 c 0
 73 95 55 82 55 62 c 0
 55 41 73 29 96 29 c 0
90 218 m 9
 114 192 l 17
 95 172 78 151 66 127 c 9
 76 128 80 130 90 130 c 0
 130 130 172 105 172 61 c 0
 172 22 135 -3 96 -3 c 0
 48 -3 17 23 17 66 c 0
 17 132 46 176 90 218 c 9
EndSplineSet
EndChar

StartChar: seven.ss01
Encoding: 65623 -1 225
Width: 166
VWidth: 0
Flags: W
HStem: 0 21G<52 84> 187 27<18 110>
VStem: 52 32<0 99.4899>
LayerCount: 2
Back
Fore
SplineSet
110 187 m 9
 18 187 l 25
 16 214 l 25
 146 213 l 25
 146 184 l 21
 108 142 84 70 84 0 c 13
 52 0 l 17
 52 70 69 133 110 187 c 9
EndSplineSet
EndChar

StartChar: eight.ss01
Encoding: 65624 -1 226
Width: 160
VWidth: 0
Flags: W
HStem: -8 30<43.6491 93.5446> 98 33<47.4954 95.3105> 186 34<49.1229 94.5439>
VStem: 6 33<25.348 94.21> 12 34<132.342 184.162> 100 30<26.8465 94.2582 135.229 181.743>
LayerCount: 2
Back
Fore
SplineSet
71 98 m 0xf4
 47 98 39 79 39 60 c 24
 39 41 45 22 71 22 c 0
 89 22 100 41 100 60 c 24
 100 79 93 98 71 98 c 0xf4
46 156 m 24xec
 46 142 57 131 71 131 c 24
 85 131 97 142 97 156 c 0
 97 175 86 186 71 186 c 0
 55 186 46 171 46 156 c 24xec
28 115 m 1
 20 127 12 142 12 159 c 0xec
 12 192 37 220 70 220 c 0
 103 220 128 191 128 158 c 0
 128 143 124 132 112 118 c 1
 124 103 130 92 130 63 c 0
 130 26 109 -8 67 -8 c 0
 31 -8 6 24 6 60 c 0xf4
 6 85 16 101 28 115 c 1
EndSplineSet
EndChar

StartChar: nine.ss01
Encoding: 65625 -1 227
Width: 190
VWidth: 0
Flags: W
HStem: -3 21G<81.5385 122> 85 35<59.2819 122.671> 186 32<60.7802 127.891>
VStem: 17 38<124.074 181.792> 134 38<125.949 180.668>
LayerCount: 2
Back
Fore
SplineSet
92 186 m 4
 73 186 55 173 55 154 c 0
 55 134 68 120 93 120 c 4
 116 120 134 133 134 153 c 0
 134 174 115 186 92 186 c 4
100 -3 m 13
 76 23 l 21
 95 43 111 64 123 88 c 13
 113 87 108 85 98 85 c 4
 58 85 17 110 17 154 c 4
 17 193 54 218 93 218 c 4
 141 218 172 191 172 148 c 4
 172 82 144 39 100 -3 c 13
EndSplineSet
EndChar

StartChar: uni00B9
Encoding: 185 185 228
Width: 89
VWidth: 0
Flags: W
HStem: 426 214<40.2021 70>
VStem: 22 48<600.189 635.5> 40 30<426 608>
LayerCount: 2
Fore
SplineSet
22 622 m 1xc0
 34 628 43 634 49 640 c 9
 70 640 l 25
 70 426 l 9
 40 426 l 25
 40 608 l 9xa0
 26 600 l 17
 23 604 22 610 22 616 c 0
 22 618 22 620 22 622 c 1xc0
EndSplineSet
EndChar

StartChar: uni00B2
Encoding: 178 178 230
Width: 175
VWidth: 0
Flags: W
HStem: 424 32<67 154> 616 30<73.4324 122.005>
VStem: 37 31<585 610.79> 126 34<560.091 613.906>
LayerCount: 2
Fore
SplineSet
100 616 m 0
 82 616 68 601 68 585 c 9
 37 585 l 25
 37 588 37 591 37 594 c 0
 37 620 68 646 100 646 c 0
 132 646 160 621 160 589 c 0
 160 552 134 540 106 518 c 0
 88 504 72 479 67 456 c 9
 154 456 l 25
 154 424 l 29
 32 424 l 25
 32 430 32 433 32 439 c 0
 32 480 61 524 90 545 c 0
 120 567 126 573 126 588 c 0
 126 602 114 616 100 616 c 0
EndSplineSet
EndChar

StartChar: uni00B3
Encoding: 179 179 231
Width: 186
VWidth: 0
Flags: W
HStem: 422 34<71.8468 133.58> 528 34<103 129.084> 614 34<67.982 126.704>
VStem: 130 38<562.876 611.018> 140 40<460.899 525.134>
LayerCount: 2
Fore
SplineSet
64 592 m 9xf0
 29 603 l 17
 39 626 67 648 99 648 c 4
 139 648 168 620 168 584 c 4xf0
 168 571 168 564 162 552 c 1
 172 536 180 522 180 496 c 4
 180 449 148 422 102 422 c 4
 65 422 40 443 26 479 c 9
 64 484 l 17
 74 468 83 456 103 456 c 0
 123 456 140 473 140 493 c 0xe8
 140 513 130 528 102 528 c 9
 103 562 l 17
 122 562 130 572 130 584 c 0
 130 601 115 614 99 614 c 0
 83 614 72 604 64 592 c 9xf0
EndSplineSet
EndChar

StartChar: onequarter
Encoding: 188 188 232
Width: 267
VWidth: 0
Flags: W
HStem: 0 21<193 224> 52 25<140 193 224 239>
VStem: 18 161 22 48<474.188 509.5> 40 30<300 482> 193 31<0 52 77 162>
LayerCount: 2
Fore
SplineSet
22 496 m 1xd4
 34 502 43 508 49 514 c 9
 70 514 l 25
 70 300 l 9
 40 300 l 25
 40 482 l 9xcc
 26 474 l 17
 23 478 22 483 22 489 c 0
 22 491 22 494 22 496 c 1xd4
EndSplineSet
Refer: 222 -1 N 1 0 0 1 90 0 2
Refer: 235 8260 S 1 0 0 1 16 0 2
EndChar

StartChar: onehalf
Encoding: 189 189 233
Width: 289
VWidth: 0
Flags: W
HStem: 1 32<150 237> 193 30<156.432 205.005>
VStem: 18 161 22 48<464.188 499.5> 40 30<290 472> 120 31<162 187.79> 209 34<137.091 190.906>
LayerCount: 2
Fore
SplineSet
183 193 m 0xc6
 165 193 151 178 151 162 c 9
 120 162 l 25
 120 165 120 168 120 171 c 0
 120 197 151 223 183 223 c 0
 215 223 243 198 243 166 c 0
 243 129 217 117 189 95 c 0
 171 81 155 56 150 33 c 9
 237 33 l 25
 237 1 l 25
 115 1 l 25
 115 7 115 10 115 16 c 0
 115 57 144 101 173 122 c 0
 203 144 209 150 209 165 c 0
 209 179 197 193 183 193 c 0xc6
22 486 m 5xd2
 34 492 43 498 49 504 c 13
 70 504 l 29
 70 290 l 13
 40 290 l 29
 40 472 l 13xca
 26 464 l 21
 23 468 22 473 22 479 c 0
 22 481 22 484 22 486 c 5xd2
EndSplineSet
Refer: 235 8260 N 1 0 0 1 16 0 2
EndChar

StartChar: threequarters
Encoding: 190 190 234
Width: 346
VWidth: 0
Flags: W
HStem: 0 21<267 298> 52 25<214 267 298 313> 292 34<63.8468 125.58> 398 34<95 121.084> 484 34<59.982 118.704>
VStem: 102 161 122 38<432.876 481.018> 132 40<330.899 394.71> 267 31<0 52 77 162>
LayerCount: 2
Fore
SplineSet
56 462 m 9xfa80
 21 473 l 17
 31 496 59 518 91 518 c 0
 131 518 160 490 160 454 c 0xfa80
 160 441 160 434 154 422 c 1
 164 406 172 392 172 366 c 0
 172 319 140 292 94 292 c 0
 57 292 32 313 18 349 c 9
 56 354 l 17
 66 338 75 326 95 326 c 0
 115 326 132 343 132 363 c 0xf980
 132 383 122 398 94 398 c 9
 95 432 l 17
 114 432 122 442 122 454 c 0
 122 471 107 484 91 484 c 0
 75 484 64 474 56 462 c 9xfa80
EndSplineSet
Refer: 222 -1 N 1 0 0 1 164 0 2
Refer: 235 8260 N 1 0 0 1 100 0 2
EndChar

StartChar: fraction
Encoding: 8260 8260 235
Width: 208
VWidth: 0
Flags: W
VStem: 2 161
LayerCount: 2
Fore
SplineSet
17 -15 m 0
 7 -15 0 -6 2 3 c 2
 134 494 l 6
 135 501 142 506 149 506 c 0
 159 506 165 497 163 488 c 6
 32 -3 l 2
 31 -10 24 -15 17 -15 c 0
EndSplineSet
EndChar

StartChar: degree
Encoding: 176 176 236
Width: 164
VWidth: 0
Flags: W
HStem: 648 23<56.1891 109.958> 739 23<58.2949 102.809>
VStem: 26 23<677.942 730.262> 117 23<677.861 727.21>
LayerCount: 2
Fore
SplineSet
117 703 m 0
 117 722 104 730 95 733 c 1
 91 740 83 739 78 739 c 0
 64 739 49 721 49 705 c 0
 49 681 63 671 86 671 c 0
 107 671 117 688 117 703 c 0
140 701 m 0
 140 677 124 648 88 648 c 0
 50 648 26 665 26 705 c 0
 26 732 51 762 75 762 c 0
 77 762 79 762 82 762 c 0
 90 762 99 761 103 752 c 1
 118 748 140 733 140 701 c 0
EndSplineSet
EndChar

StartChar: cedilla
Encoding: 184 184 239
Width: 356
VWidth: 0
Flags: W
HStem: -189 32<187.958 250.714> -68 31<210.287 255.632>
VStem: 260 33<-149.094 -69.9628>
LayerCount: 2
Fore
SplineSet
175 -167 m 13
 195 -145 l 21
 207 -155 210 -157 221 -157 c 4
 250 -157 260 -131 260 -105 c 4
 260 -88 253 -68 235 -68 c 4
 224 -68 218 -71 209 -81 c 13
 173 -77 l 29
 195 37 l 21
 219 7 l 13
 210 -41 l 29
 217 -39 222 -37 229 -37 c 4
 265 -37 293 -63 293 -103 c 4
 293 -145 267 -189 226 -189 c 4
 204 -189 187 -183 175 -167 c 13
EndSplineSet
EndChar

StartChar: slash
Encoding: 47 47 240
Width: 346
VWidth: 0
Flags: W
HStem: 0 21G<43.5 60> 616 20G<251 267.5>
VStem: 26 259
LayerCount: 2
Fore
SplineSet
54 0 m 0
 33 0 19 21 26 40 c 2
 228 616 l 2
 232 628 245 636 257 636 c 0
 278 636 292 615 285 596 c 6
 83 20 l 2
 79 8 66 0 54 0 c 0
EndSplineSet
EndChar

StartChar: backslash
Encoding: 92 92 241
Width: 346
VWidth: 0
Flags: W
HStem: 0 21G<245 261.5> 616 20G<37.5 54>
VStem: 20 259
LayerCount: 2
Fore
SplineSet
251 0 m 4
 239 0 226 8 222 20 c 2
 20 596 l 2
 13 615 27 636 48 636 c 0
 60 636 73 628 77 616 c 2
 279 40 l 2
 286 21 272 0 251 0 c 4
EndSplineSet
EndChar

StartChar: bar
Encoding: 124 124 242
Width: 168
VWidth: 0
Flags: W
VStem: 57 60<3.17979 662.82>
LayerCount: 2
Fore
SplineSet
87 664 m 0
 103 664 117 650 117 634 c 2
 117 32 l 2
 117 16 103 2 87 2 c 0
 71 2 57 16 57 32 c 2
 57 634 l 2
 57 650 71 664 87 664 c 0
EndSplineSet
EndChar

StartChar: braceleft
Encoding: 123 123 243
Width: 354
VWidth: 0
Flags: W
HStem: -2 99<177.723 299.71> 537 98<185.398 312.25>
VStem: 31 129<284.989 358.926> 54 273<537.303 613.325>
LayerCount: 2
Fore
SplineSet
65 381 m 17xe0
 67 430 74 480 84 529 c 1
 66 537 54 555 54 568 c 0
 54 618 102 635 162 635 c 2
 172 635 l 2
 286 635 327 634 327 565 c 0xd0
 327 539 304 531 278 531 c 0
 254 531 241 537 217 537 c 0
 201 537 189 529 185 514 c 0
 169 460 164 404 160 328 c 0
 156 237 160 195 177 117 c 12
 179 107 184 98 193 97 c 0
 246 93 314 96 314 42 c 0
 314 18 296 -2 272 -2 c 0
 234 -2 213 12 176 12 c 0
 149 12 131 4 106 4 c 0
 85 4 58 12 58 34 c 0
 58 59 71 69 90 89 c 1
 79 155 72 217 66 278 c 1
 44 285 31 295 31 315 c 24
 31 344 52 355 65 381 c 17xe0
EndSplineSet
EndChar

StartChar: braceright
Encoding: 125 125 244
Width: 360
VWidth: 0
Flags: W
HStem: -2 99<49.2902 171.277> 531 104<36.75 163.807>
VStem: 22 273<537.303 613.325> 190 128<284.434 361.877> 190 94<349.125 499.034>
LayerCount: 2
Fore
SplineSet
35 342 m 28,0,-1
284 381 m 9,1,-1
 297 355 318 344 318 315 c 24,4,-1
 318 295 305 285 283 278 c 1,7,-1
 277 217 270 155 259 89 c 1,10,-1
 278 69 291 59 291 34 c 0,13,-1
 291 12 264 4 243 4 c 0,16,-1
 218 4 200 12 173 12 c 0,19,-1
 136 12 115 -2 77 -2 c 0,22,-1
 53 -2 35 18 35 42 c 0,25,-1
 35 96 103 93 156 97 c 0,28,-1
 165 98 170 107 172 117 c 16,31,-1
 184 171 190 236 190 301 c 0,34,-1
 190 378 182 454 164 514 c 0,37,-1
 160 529 148 537 132 537 c 0,40,-1
 108 537 95 531 71 531 c 0,43,-1
 45 531 22 539 22 565 c 0,46,-1
 22 634 63 635 177 635 c 2,49,-1
 187 635 l 2,50,-1
 247 635 295 618 295 568 c 0,53,-1
 295 555 283 537 265 529 c 1,56,-1
 275 480 282 430 284 381 c 9,1,-1
EndSplineSet
EndChar

StartChar: bracketleft
Encoding: 91 91 245
Width: 354
VWidth: 0
Flags: W
HStem: -2 99<177.723 299.71> 537 98<185.398 312.25>
VStem: 54 273<537.303 613.325> 62 95<124.396 491.066>
LayerCount: 2
Fore
SplineSet
84 529 m 1xd0
 66 537 54 555 54 568 c 0
 54 618 102 635 162 635 c 2
 172 635 l 2
 286 635 327 634 327 565 c 0xe0
 327 539 304 531 278 531 c 0
 254 531 241 537 217 537 c 0
 201 537 189 529 185 514 c 0
 172 469 157 400 157 336 c 0
 157 248 161 191 177 117 c 8
 179 107 184 98 193 97 c 0
 246 93 314 96 314 42 c 0
 314 18 296 -2 272 -2 c 0
 234 -2 213 12 176 12 c 0
 149 12 131 4 106 4 c 0
 85 4 58 12 58 34 c 0
 58 59 71 69 90 89 c 1
 75 176 62 248 62 337 c 0
 62 402 71 467 84 529 c 1xd0
EndSplineSet
EndChar

StartChar: grave
Encoding: 96 96 246
Width: 198
VWidth: 0
Flags: W
HStem: 569 174
VStem: 45 65<720 740.406>
LayerCount: 2
Fore
SplineSet
45 712 m 0
 45 728 57 743 75 743 c 0
 89 743 104 734 110 720 c 10
 174 578 l 25
 161 569 l 25
 56 684 l 18
 49 691 45 702 45 712 c 0
EndSplineSet
EndChar

StartChar: quotesingle
Encoding: 39 39 247
Width: 120
VWidth: 0
Flags: W
HStem: 541 198<51 66>
VStem: 25 66<653.538 736.114> 51 15<541 584.12>
LayerCount: 2
Fore
SplineSet
51 541 m 29xa0
 26 695 l 22
 26 697 25 699 25 701 c 0
 25 720 40 739 59 739 c 4
 78 739 91 720 91 701 c 0
 91 699 91 697 91 695 c 14xc0
 66 541 l 29
 51 541 l 29xa0
EndSplineSet
EndChar

StartChar: at
Encoding: 64 64 248
Width: 644
VWidth: 0
Flags: W
HStem: -66 80<273.726 488.222> 98 64<318.458 397.4> 419 64<332.88 391.236> 570 80<273.726 431.369>
VStem: 23 80<184.726 399.274> 205 86<190.02 366.726> 411 80<145 392.158> 441 94<498.944 558.358>
LayerCount: 2
Fore
SplineSet
411 278 m 0xfe
 411 319 405 353 401 385 c 1
 388 393 388 419 368 419 c 0
 325 419 291 331 291 290 c 0
 291 238 303 162 360 162 c 0
 387 162 396 178 403 195 c 1
 407 222 411 246 411 278 c 0xfe
205 288 m 0
 205 381 261 483 379 483 c 0
 383 483 387 483 392 483 c 5
 428 499 441 516 441 530 c 0
 441 553 406 570 381 570 c 0
 228 570 103 445 103 292 c 0
 103 139 228 14 381 14 c 0
 443 14 502 34 548 69 c 1
 575 42 583 34 605 12 c 1
 544 -37 466 -66 381 -66 c 0
 183 -66 23 94 23 292 c 0
 23 490 183 650 381 650 c 0
 497 650 535 607 535 555 c 0xfd
 535 509 505 457 473 422 c 1
 473 375 491 247 491 161 c 0
 491 129 480 97 444 97 c 0
 435 97 427 100 420 106 c 1
 408 101 393 98 377 98 c 0
 253 98 205 200 205 288 c 0
EndSplineSet
EndChar

StartChar: parenleft
Encoding: 40 40 250
Width: 308
VWidth: 0
Flags: W
HStem: 0 79<178.167 254.549> 557 77<192.95 263.313>
VStem: 29 107<169.967 459.267>
LayerCount: 2
Fore
SplineSet
29 313 m 4
 29 476 104 634 226 634 c 0
 255 634 267 616 267 597 c 0
 267 577 254 557 232 557 c 4
 163 557 136 400 136 318 c 4
 136 220 150 79 211 79 c 4
 242 79 261 58 261 37 c 0
 261 18 245 0 208 0 c 4
 98 0 29 167 29 313 c 4
EndSplineSet
EndChar

StartChar: parenright
Encoding: 41 41 251
Width: 308
VWidth: 0
Flags: W
HStem: 0 79<33.7243 109.858> 557 77<24.6865 95.0749>
VStem: 153 107<169.967 459.267>
LayerCount: 2
Fore
SplineSet
260 313 m 4
 260 167 190 0 80 0 c 4
 43 0 27 18 27 37 c 0
 27 58 47 79 78 79 c 4
 139 79 153 220 153 318 c 4
 153 400 125 557 56 557 c 4
 34 557 21 577 21 597 c 0
 21 616 33 634 62 634 c 0
 184 634 260 476 260 313 c 4
EndSplineSet
EndChar

StartChar: question
Encoding: 63 63 252
Width: 364
VWidth: 0
Flags: W
HStem: -8 114<67.8528 130.763> 579 71<52.9481 200.85>
VStem: 54 114<1.85742 87.6345> 235 95<399.038 546.368>
LayerCount: 2
Fore
SplineSet
119 650 m 0
 282 650 330 566 330 468 c 0
 330 372 258 310 204 301 c 0
 165 295 168 281 165 259 c 0
 154 185 170 145 105 145 c 0
 82 145 68 171 68 197 c 0
 68 223 68 233 68 241 c 0
 68 252 68 260 72 301 c 0
 77 352 122 366 144 366 c 0
 197 366 235 407 235 466 c 0
 235 509 224 579 138 579 c 0
 111 579 84 561 63 561 c 0
 50 561 28 575 28 604 c 0
 28 638 90 650 119 650 c 0
EndSplineSet
Refer: 31 46 N 1 0 0 1 28 0 2
EndChar

StartChar: questiondown
Encoding: 191 191 253
Width: 364
VWidth: 0
Flags: W
HStem: -13 71<163.15 310.803> 531 114<233.237 296.147>
VStem: 34 95<90.6323 237.962> 196 114<549.365 635.143>
LayerCount: 2
Fore
SplineSet
245 -13 m 4
 82 -13 34 71 34 169 c 4
 34 265 106 327 160 336 c 4
 199 342 196 356 199 378 c 4
 211 454 194 486 256 492 c 4
 257 492 257 492 258 492 c 0
 281 492 296 466 296 440 c 4
 296 416 296 406 296 398 c 0
 296 386 296 379 292 336 c 4
 287 285 242 271 220 271 c 4
 167 271 129 230 129 171 c 4
 129 128 140 58 226 58 c 4
 253 58 279 76 300 76 c 0
 314 76 326 68 334 42 c 4
 335 38 335 35 335 32 c 0
 335 -2 274 -13 245 -13 c 4
EndSplineSet
Refer: 31 46 S -1 0 0 -1 336 637 2
EndChar

StartChar: dollar
Encoding: 36 36 280
Width: 377
VWidth: 0
Flags: W
HStem: 74 80<130.522 221.037> 427 73<164.2 223.089>
VStem: 44 97<156.511 197.242> 56 99<345.472 413.95> 195 14<-49.7434 38 534 621.743> 233 84<168.203 240.617>
LayerCount: 2
Fore
SplineSet
195 38 m 21xdc
 195 -14 193 -77 155 -124 c 13
 249 -124 l 21
 211 -76 209 -14 209 38 c 13
 195 38 l 21xdc
195 534 m 21
 195 586 193 649 155 696 c 13
 249 696 l 21
 211 648 209 586 209 534 c 13
 195 534 l 21
EndSplineSet
Refer: 66 115 N 1 0 0 1 0 74 2
EndChar

StartChar: numbersign
Encoding: 35 35 281
Width: 779
Flags: W
HStem: 1 21G<165 181 386 402> 184 60<47.0068 197 282 419 503 668.82> 398 60<121.007 272 357 494 578 742.82> 615 20G<371.5 388.5 593 609>
LayerCount: 2
Fore
SplineSet
396 1 m 0
 376 1 362 21 368 40 c 2
 419 184 l 1
 261 184 l 1
 204 20 l 2
 200 8 187 1 175 1 c 0
 155 1 140 21 146 40 c 2
 197 184 l 1
 76 184 l 2
 60 184 45 196 45 212 c 0
 45 228 59 244 75 244 c 2
 218 244 l 1
 272 398 l 5
 150 398 l 6
 134 398 119 410 119 426 c 4
 119 442 133 458 149 458 c 6
 293 458 l 5
 348 616 l 2
 352 628 365 635 378 635 c 0
 399 635 412 615 406 596 c 2
 357 458 l 1
 515 458 l 1
 570 616 l 2
 574 628 587 635 599 635 c 0
 619 635 632 615 626 596 c 2
 578 458 l 1
 714 458 l 6
 730 458 744 444 744 428 c 4
 744 412 730 398 714 398 c 6
 557 398 l 1
 503 244 l 1
 640 244 l 2
 656 244 670 230 670 214 c 0
 670 198 656 184 640 184 c 2
 482 184 l 1
 424 20 l 2
 420 8 408 1 396 1 c 0
336 398 m 1
 282 244 l 1
 440 244 l 1
 494 398 l 1
 336 398 l 1
EndSplineSet
EndChar

StartChar: cent
Encoding: 162 162 282
Width: 356
VWidth: 0
Flags: W
HStem: 75 71<155.72 237.147> 432 71<171.327 250.762>
VStem: 29 95<183.705 369.624> 195 14<-49.7434 38 534 621.743> 238 81<148.17 187.687>
LayerCount: 2
Fore
SplineSet
195 38 m 17
 195 -14 193 -77 155 -124 c 9
 249 -124 l 17
 211 -76 209 -14 209 38 c 9
 195 38 l 17
195 534 m 17
 195 586 193 649 155 696 c 9
 249 696 l 17
 211 648 209 586 209 534 c 9
 195 534 l 17
EndSplineSet
Refer: 51 99 S 1 0 0 1 0 76 2
EndChar

StartChar: copyright
Encoding: 169 169 283
Width: 816
VWidth: 0
Flags: W
HStem: 0 80<284.67 497.33> 150 71<367.72 449.147> 507 71<383.327 462.762> 649 80<284.67 497.33>
VStem: 26 80<258.67 471.214> 241 95<258.705 444.624> 450 81<223.17 262.687> 676 80<258.67 471.214>
LayerCount: 2
Fore
SplineSet
106 365 m 4
 106 208 234 80 391 80 c 4
 548 80 676 208 676 365 c 4
 676 522 548 649 391 649 c 4
 234 649 106 522 106 365 c 4
26 365 m 4
 26 566 190 729 391 729 c 4
 592 729 756 566 756 365 c 4
 756 164 592 0 391 0 c 4
 190 0 26 164 26 365 c 4
EndSplineSet
Refer: 51 99 N 1 0 0 1 212 151 2
EndChar

StartChar: section
Encoding: 167 167 284
Width: 350
VWidth: 0
Flags: W
HStem: -92 80<100.522 191.037> 430 73<149.2 208.089>
VStem: 14 97<-9.48872 31.2422> 26 99<179.397 271.813> 41 99<350.524 416.95> 203 84<2.20267 75.0099> 218 84<167.965 243.375>
LayerCount: 2
Fore
SplineSet
41 403 m 0xc8
 41 460 114 503 199 503 c 0
 247 503 304 487 304 451 c 0
 304 418 269 389 234 389 c 0
 217 389 203 401 203 412 c 0xcc
 203 419 207 423 209 430 c 1
 179 430 140 413 140 389 c 0
 140 320 302 293 302 180 c 0xca
 302 149 279 119 245 101 c 1
 269 78 287 49 287 11 c 0
 287 -47 205 -92 131 -92 c 0
 54 -92 14 -75 14 -17 c 0
 14 13 31 42 71 42 c 0
 91 42 111 28 111 17 c 0xe4
 111 6 104 1 100 -10 c 1
 107 -11 111 -12 119 -12 c 0
 143 -12 203 -6 203 36 c 0
 203 98 26 144 26 231 c 0xd4
 26 268 52 301 96 318 c 1
 66 342 41 368 41 403 c 0xc8
173 156 m 1
 199 169 218 172 218 205 c 0
 218 230 189 253 154 277 c 1
 127 263 125 251 125 235 c 0
 125 230 125 225 125 220 c 0xd2
 125 195 146 176 173 156 c 1
EndSplineSet
EndChar

StartChar: asterisk
Encoding: 42 42 287
Width: 462
Flags: W
VStem: 199 56<121.317 270.417 322.442 468.917> 212 29<178.952 272 321 411.049>
LayerCount: 2
Fore
SplineSet
368 401 m 0x40
 382 401 393 389 393 375 c 0
 393 364 383 354 355 338 c 0
 314 314 281 312 255 296 c 1x80
 284 279 314 276 351 255 c 0
 378 240 389 227 389 215 c 0
 389 202 379 189 367 189 c 0
 358 189 345 194 325 205 c 0
 284 229 268 257 241 272 c 257x40
 241 238 255 219 255 177 c 0
 255 134 243 120 225 120 c 0
 207 120 199 131 199 174 c 0x80
 199 222 213 241 212 272 c 1x40
 185 257 166 229 125 205 c 0
 105 194 92 189 83 189 c 0
 71 189 61 202 61 215 c 0
 61 227 72 240 99 255 c 0
 136 276 168 278 197 295 c 1
 171 311 141 311 100 335 c 0
 72 351 62 362 62 374 c 0
 62 388 73 400 88 400 c 0
 98 400 112 396 130 385 c 0
 167 364 184 338 213 321 c 1
 214 352 199 368 199 416 c 0
 199 459 205 470 225 470 c 0
 245 470 255 456 255 413 c 0x80
 255 371 241 354 241 320 c 1
 270 337 288 364 325 385 c 0
 343 396 358 401 368 401 c 0x40
EndSplineSet
EndChar

StartChar: plus
Encoding: 43 43 288
Width: 354
Flags: W
HStem: 260 33<33 156 189 312>
VStem: 156 33<135 260 293 413>
LayerCount: 2
Fore
SplineSet
312 260 m 257
 189 260 l 257
 189 135 l 257
 156 135 l 257
 156 260 l 1
 33 260 l 257
 33 293 l 257
 156 293 l 257
 156 413 l 257
 189 413 l 257
 189 293 l 257
 312 293 l 257
 312 260 l 257
EndSplineSet
EndChar

StartChar: less
Encoding: 60 60 289
Width: 591
Flags: W
LayerCount: 2
Fore
SplineSet
457 87 m 257
 43 262 l 1
 43 292 l 1
 457 457 l 1
 457 409 l 1
 128 282 l 1
 128 270 l 1
 457 136 l 1
 457 87 l 257
EndSplineSet
EndChar

StartChar: equal
Encoding: 61 61 290
Width: 392
Flags: W
HStem: 213 33<33 312> 321 33<33 312>
VStem: 33 279<213 246 321 354>
LayerCount: 2
Fore
SplineSet
312 321 m 257
 33 321 l 1
 33 354 l 1
 312 354 l 1
 312 321 l 257
312 213 m 1
 33 213 l 1
 33 246 l 1
 312 246 l 1
 312 213 l 1
EndSplineSet
EndChar

StartChar: greater
Encoding: 62 62 291
Width: 586
Flags: W
LayerCount: 2
Fore
SplineSet
80 87 m 1
 80 136 l 1
 409 270 l 1
 409 282 l 1
 80 409 l 1
 80 457 l 1
 494 292 l 257
 494 262 l 1
 80 87 l 1
EndSplineSet
EndChar

StartChar: asciicircum
Encoding: 94 94 292
Width: 409
Flags: W
HStem: 368 187
VStem: 38 314
LayerCount: 2
Fore
SplineSet
352 368 m 1
 318 368 l 1
 202 483 l 1
 191 483 l 1
 76 368 l 1
 38 368 l 1
 183 555 l 1
 208 555 l 1
 352 368 l 1
EndSplineSet
EndChar

StartChar: underscore
Encoding: 95 95 293
Width: 565
Flags: W
HStem: -205 45<0 495>
LayerCount: 2
Fore
SplineSet
495 -205 m 257
 0 -205 l 1
 0 -160 l 1
 495 -160 l 1
 495 -205 l 257
EndSplineSet
EndChar

StartChar: currency
Encoding: 164 164 294
Width: 544
Flags: W
HStem: 115 50<142.239 307.329> 465 50<142.571 306.983>
VStem: 24 50<234.287 395.738> 375 50<233.875 395.324>
LayerCount: 2
Fore
SplineSet
437 134 m 257
 409 106 l 1
 357 159 l 1
 324 132 280 115 225 115 c 0
 172 115 130 131 98 156 c 1
 49 106 l 1
 22 134 l 1
 22 134 71 183 70 183 c 0
 40 219 24 267 24 314 c 0
 24 361 39 409 69 445 c 0
 69 446 22 492 22 492 c 1
 49 520 l 1
 96 472 l 1
 128 498 172 515 225 515 c 0
 281 515 326 498 358 469 c 1
 409 520 l 1
 437 492 l 1
 385 441 l 1
 412 405 425 360 425 315 c 0
 425 269 411 223 383 187 c 1
 437 134 l 257
225 165 m 0
 325 165 375 240 375 315 c 0
 375 390 325 465 225 465 c 0
 125 465 74 390 74 315 c 0
 74 240 125 165 225 165 c 0
EndSplineSet
EndChar

StartChar: brokenbar
Encoding: 166 166 295
Width: 201
Flags: W
VStem: 47 47<-19 331 398 723>
LayerCount: 2
Fore
SplineSet
94 398 m 257
 47 398 l 1
 47 723 l 1
 94 723 l 1
 94 398 l 257
94 -19 m 1
 47 -19 l 1
 47 331 l 1
 94 331 l 1
 94 -19 l 1
EndSplineSet
EndChar

StartChar: logicalnot
Encoding: 172 172 296
Width: 638
Flags: W
HStem: 210 40<35 535>
VStem: 535 40<40 210>
LayerCount: 2
Fore
SplineSet
575 40 m 257
 535 40 l 257
 535 210 l 257
 35 210 l 1
 35 250 l 1
 575 250 l 1
 575 40 l 257
EndSplineSet
EndChar

StartChar: uni00AD
Encoding: 173 173 297
Width: 340
Flags: W
HStem: 209 45<33 266>
VStem: 33 233<209 254>
LayerCount: 2
Fore
SplineSet
266 209 m 257
 33 209 l 1
 33 254 l 1
 266 254 l 1
 266 209 l 257
EndSplineSet
EndChar

StartChar: macron
Encoding: 175 175 298
Width: 315
Flags: W
HStem: 585 45<35 250>
VStem: 35 215<585 630>
LayerCount: 2
Fore
SplineSet
250 585 m 257
 35 585 l 1
 35 630 l 1
 250 630 l 1
 250 585 l 257
EndSplineSet
EndChar

StartChar: plusminus
Encoding: 177 177 299
Width: 331
Flags: W
HStem: 213 33<33 154 187 312> 321 33<33 154 187 312>
VStem: 154 33<246 321 354 456>
LayerCount: 2
Fore
SplineSet
312 213 m 257
 33 213 l 257
 33 246 l 257
 154 246 l 257
 154 321 l 1
 33 321 l 257
 33 354 l 257
 154 354 l 257
 154 456 l 257
 187 456 l 257
 187 354 l 257
 312 354 l 257
 312 321 l 257
 187 321 l 1
 187 246 l 257
 312 246 l 257
 312 213 l 257
EndSplineSet
EndChar

StartChar: paragraph
Encoding: 182 182 300
Width: 592
Flags: W
HStem: 354 31<209.361 306> 631 30<221.857 306 361 417 473 520>
VStem: 5 159<428.044 584.224> 306 55<-69 354 385 631> 417 56<-69 631>
LayerCount: 2
Fore
SplineSet
5 511 m 0
 5 619 83 661 171 661 c 2
 520 661 l 257
 520 631 l 257
 473 631 l 257
 473 -69 l 257
 417 -69 l 257
 417 631 l 1
 361 631 l 1
 361 -69 l 257
 306 -69 l 257
 306 354 l 257
 187 354 l 2
 94 354 5 399 5 511 c 0
164 516 m 0
 164 415 205 385 276 385 c 2
 306 385 l 1
 306 631 l 1
 276 631 l 2
 223 631 164 590 164 516 c 0
EndSplineSet
EndChar

StartChar: sterling
Encoding: 163 163 301
Width: 611
Flags: W
HStem: 0 41<385.19 463.811> 88 32<206.45 258.395> 242 31<124.026 193.473 274.899 343.989> 640 29<399.645 455>
VStem: 196 148<197.5 263> 458 69<581.608 633.254> 488 44<59.5893 123.5>
LayerCount: 2
Fore
SplineSet
218 88 m 0xfa
 207 88 195 87 184 86 c 1
 172 69 158 52 142 35 c 0
 124 16 106 0 87 0 c 0
 74 0 64 11 64 24 c 0
 64 63 107 75 144 94 c 0
 153 99 162 103 171 107 c 1
 179 132 196 177 196 218 c 0
 196 235 175 242 163 242 c 2
 140 242 l 2
 132 242 124 249 124 257 c 0
 124 266 133 273 140 273 c 2
 186 273 l 2
 206 273 209 284 211 295 c 0
 227 379 249 471 284 545 c 0
 303 585 318 610 356 633 c 0
 387 651 408 659 440 668 c 0
 443 669 446 669 450 669 c 0
 460 669 473 667 483 662 c 0
 506 652 527 640 527 615 c 0
 527 596 512 579 493 579 c 0
 475 579 467 588 458 610 c 0xfc
 451 628 431 640 412 640 c 0
 400 640 388 636 379 625 c 0
 337 574 323 458 292 352 c 0
 285 329 279 307 272 286 c 0
 270 280 270 273 277 273 c 2
 320 273 l 2
 330 273 344 269 344 257 c 0
 344 246 329 242 317 242 c 2
 270 242 l 2
 259 242 255 236 252 227 c 0
 237 189 229 153 206 117 c 1
 217 119 230 120 243 120 c 0
 323 120 382 41 451 41 c 0
 468 41 488 48 488 70 c 0
 488 76 487 85 479 91 c 1
 463 100 451 112 451 131 c 0
 451 150 469 163 488 163 c 0
 514 163 532 137 532 110 c 0
 532 60 456 0 400 0 c 0
 319 0 269 88 218 88 c 0xfa
EndSplineSet
EndChar

StartChar: registered
Encoding: 174 174 302
Width: 804
VWidth: 0
Flags: W
HStem: 0 80<284.67 497.33> 519 63<323.543 431.405> 649 80<284.67 497.33>
VStem: 26 80<258.67 471.214> 277 88<163.34 301.324> 286 66<214.584 323.994 377 503.013> 435 89<417.759 516.49> 443 82<158.775 260.885> 676 80<258.67 471.214>
LayerCount: 2
Fore
SplineSet
106 365 m 0xf080
 106 208 234 80 391 80 c 0
 548 80 676 208 676 365 c 0
 676 522 548 649 391 649 c 0
 234 649 106 522 106 365 c 0xf080
26 365 m 0
 26 566 190 729 391 729 c 0
 592 729 756 566 756 365 c 0
 756 164 592 0 391 0 c 0
 190 0 26 164 26 365 c 0
353 377 m 1
 405 398 435 431 435 476 c 0xf280
 435 496 429 519 398 519 c 0
 371 519 368 487 361 463 c 24
 351 430 356 410 353 377 c 1
277 213 m 0xf880
 277 247 286 267 286 303 c 0
 286 346 280 373 280 418 c 0
 280 456 291 476 297 513 c 25
 284 519 266 520 266 529 c 0
 266 566 287 582 371 582 c 0
 465 582 524 534 524 475 c 0xf680
 524 422 491 386 442 355 c 0
 437 352 440 346 444 342 c 0
 497 293 525 236 525 189 c 0
 525 170 512 155 480 155 c 0
 460 155 447 168 443 182 c 0
 427 229 427 258 405 303 c 24
 400 314 390 324 373 324 c 0
 361 324 352 316 352 307 c 0xf580
 352 272 365 251 365 212 c 0
 365 187 355 157 322 157 c 0
 288 157 277 186 277 213 c 0xf880
EndSplineSet
EndChar

StartChar: multiply
Encoding: 215 215 303
Width: 296
Flags: W
HStem: 182 196
VStem: 49 199
LayerCount: 2
Fore
SplineSet
248 214 m 257
 216 182 l 1
 149 248 l 1
 81 181 l 1
 49 213 l 1
 117 279 l 1
 49 346 l 1
 81 378 l 1
 149 311 l 1
 216 377 l 1
 248 346 l 1
 181 279 l 1
 248 214 l 257
EndSplineSet
EndChar

StartChar: divide
Encoding: 247 247 304
Width: 364
Flags: W
HStem: 108 75<138.552 206.255> 260 33<33 312> 366 75<138.552 206.255>
VStem: 135 75<111.745 179.448 369.745 437.448>
LayerCount: 2
Fore
SplineSet
172 441 m 4
 193 441 210 425 210 404 c 260
 210 383 193 366 172 366 c 4
 151 366 135 383 135 404 c 4
 135 425 151 441 172 441 c 4
172 183 m 4
 193 183 210 167 210 146 c 4
 210 125 193 108 172 108 c 4
 151 108 135 125 135 146 c 4
 135 167 151 183 172 183 c 4
312 260 m 1
 33 260 l 1
 33 293 l 1
 312 293 l 1
 312 260 l 1
EndSplineSet
EndChar

StartChar: OE
Encoding: 338 338 305
Width: 486
VWidth: 0
Flags: W
HStem: -2 99<307.723 429.71> -1 77<155.213 206.522> 292 84<292.361 355.208> 537 98<315.398 442.25>
VStem: 22 90<156.992 481.85> 161 234<292.266 361.48> 195 97<376.293 509.185>
LayerCount: 2
Fore
SplineSet
183 542 m 1x7a
 118 503 112 411 112 320 c 0
 112 258 134 76 178 76 c 0
 196 76 207 93 215 119 c 1
 207 174 201 226 196 278 c 1
 174 285 161 295 161 315 c 0x7c
 161 344 182 355 195 381 c 1
 197 430 204 480 214 529 c 1
 203 534 198 538 183 542 c 1x7a
217 6 m 1
 207 1 195 -1 182 -1 c 0
 68 -1 22 182 22 324 c 0
 22 407 39 487 68 546 c 0
 96 603 141 639 177 639 c 0
 194 639 207 633 216 621 c 1
 235 631 262 635 292 635 c 2
 302 635 l 2
 416 635 457 634 457 565 c 0
 457 539 434 531 408 531 c 0
 384 531 371 537 347 537 c 0
 331 537 319 529 315 514 c 0
 305 480 292 441 292 393 c 0x7a
 292 378 293 376 301 376 c 0
 353 376 395 369 395 321 c 4
 395 300 381 284 356 284 c 0
 339 284 329 292 312 292 c 0
 282 292 287 265 287 242 c 0
 287 195 296 166 307 117 c 0
 309 107 314 98 323 97 c 0
 376 93 444 96 444 42 c 0
 444 18 426 -2 402 -2 c 0xbc
 364 -2 343 12 306 12 c 0
 279 12 261 4 236 4 c 0
 230 4 223 4 217 6 c 1
EndSplineSet
EndChar

StartChar: oe
Encoding: 339 339 306
Width: 574
VWidth: 0
Flags: W
HStem: -1 71<330.809 438.721> -1 52<137.648 193.771> 218 63<309 453.199> 356 71<341.237 430.776>
VStem: 20 83<99.7734 324.404> 211 85<108.254 215.98> 440 81<76.3045 111.687>
LayerCount: 2
Fore
SplineSet
168 361 m 1x7e
 108 335 103 274 103 213 c 0
 103 165 124 51 164 51 c 4
 207 51 211 131 211 184 c 0
 211 289 165 323 165 343 c 0
 165 350 167 354 168 361 c 1x7e
454 283 m 1
 458 302 433 356 383 356 c 0
 353 356 317 314 309 283 c 1
 309 283 351 281 394 281 c 0
 415 281 437 281 454 283 c 1
399 427 m 0
 475 427 540 346 540 272 c 0
 540 252 529 233 500 222 c 1
 487 218 469 218 446 218 c 0
 410 218 361 220 296 220 c 1
 296 215 296 211 296 206 c 0
 296 146 314 70 383 70 c 0
 404 70 440 79 440 90 c 0
 440 105 412 108 412 123 c 0
 412 136 435 144 452 144 c 0
 453 144 454 144 455 144 c 0
 501 144 521 115 521 84 c 0
 521 34 452 -1 392 -1 c 0xbe
 328 -1 294 23 263 59 c 1
 244 24 214 -1 167 -1 c 0
 62 -1 20 121 20 216 c 0
 20 271 36 325 63 364 c 0
 89 402 130 426 163 426 c 0
 194 426 210 408 216 383 c 1
 231 368 244 366 255 351 c 1
 288 396 328 427 399 427 c 0
EndSplineSet
EndChar

StartChar: zero.ss02
Encoding: 65664 -1 324
Width: 522
VWidth: 0
Flags: W
HStem: -15 93<212.594 297.774> 588 81<211.377 299.04>
VStem: 63 99<158.413 518.851> 354 93<170.882 511.467>
LayerCount: 2
Fore
SplineSet
255 588 m 0
 177 588 162 453 162 354 c 0
 162 240 177 78 255 78 c 0
 333 78 354 240 354 354 c 8
 354 453 333 588 255 588 c 0
63 354 m 24
 63 498 93 669 255 669 c 0
 417 669 447 498 447 354 c 24
 447 192 417 -15 255 -15 c 0
 93 -15 63 192 63 354 c 24
EndSplineSet
EndChar

StartChar: one.ss02
Encoding: 65665 -1 325
Width: 267
VWidth: 0
Flags: W
HStem: 0 21G<120 210>
VStem: 65 145<546.321 598.969> 120 90<0 546>
LayerCount: 2
Fore
SplineSet
66 588 m 1xc0
 102 606 129 624 147 642 c 9
 210 642 l 25
 210 0 l 9
 120 0 l 25
 120 546 l 9xa0
 78 522 l 17
 69 533 65 550 65 569 c 0
 65 575 65 582 66 588 c 1xc0
EndSplineSet
EndChar

StartChar: two.ss02
Encoding: 65666 -1 326
Width: 525
VWidth: 0
Flags: W
HStem: -6 98<201 460> 568 94<241.102 352.623>
VStem: 111 95<477 533.947> 380 98<432.729 541.003>
LayerCount: 2
Fore
SplineSet
299 568 m 0
 247 568 206 525 206 477 c 9
 111 477 l 25
 111 487 111 492 111 502 c 0
 111 578 204 662 300 662 c 0
 396 662 478 586 478 489 c 0
 478 379 400 340 316 276 c 0
 261 234 216 162 201 92 c 9
 460 92 l 25
 460 -6 l 25
 98 -6 l 29
 98 12 98 21 98 39 c 4
 98 162 181 293 268 357 c 0
 358 423 380 442 380 486 c 0
 380 531 343 568 299 568 c 0
EndSplineSet
EndChar

StartChar: three.ss02
Encoding: 65667 -1 327
Width: 558
VWidth: 0
Flags: W
HStem: -12 104<243.258 376.051> 308 100<309 370.043> 566 102<232.636 352.271>
VStem: 388 118<425.268 529.503> 422 116<138.998 273.508>
LayerCount: 2
Fore
SplineSet
190 498 m 9xf0
 87 531 l 17
 117 600 201 668 297 668 c 4
 419 668 506 582 506 476 c 4xf0
 506 437 500 410 484 376 c 1
 514 326 538 284 538 208 c 4
 538 67 440 -12 304 -12 c 4
 193 -12 118 49 76 159 c 9
 194 176 l 17
 222 126 249 92 309 92 c 0
 370 92 422 139 422 201 c 0xe8
 422 262 394 308 308 308 c 9
 309 408 l 17
 366 408 388 440 388 474 c 0
 388 524 343 566 297 566 c 0
 248 566 216 536 190 498 c 9xf0
EndSplineSet
EndChar

StartChar: four.ss02
Encoding: 65668 -1 328
Width: 522
VWidth: 0
Flags: W
HStem: 0 21G<309 402> 156 75<150 309 402 447>
VStem: 309 93<0 156 231 486>
LayerCount: 2
Fore
SplineSet
309 231 m 29
 309 486 l 29
 150 231 l 29
 309 231 l 29
309 156 m 29
 42 156 l 29
 42 240 l 29
 300 642 l 29
 402 642 l 29
 402 231 l 29
 447 231 l 29
 447 156 l 29
 402 156 l 29
 402 0 l 29
 309 0 l 29
 309 156 l 29
EndSplineSet
EndChar

StartChar: five.ss02
Encoding: 65669 -1 329
Width: 462
VWidth: 0
Flags: W
HStem: -30 96<149.608 274.908> 333 93<191.577 297.9> 558 90<177 390>
VStem: 81 96<414 558> 327 99<123.28 301.403>
LayerCount: 2
Fore
SplineSet
72 36 m 9
 132 102 l 17
 168 72 177 66 210 66 c 0
 297 66 327 144 327 222 c 0
 327 273 306 333 252 333 c 0
 219 333 201 324 174 294 c 9
 81 306 l 25
 84 648 l 25
 390 648 l 25
 390 552 l 25
 177 558 l 25
 177 414 l 25
 199 419 213 426 234 426 c 0
 342 426 426 348 426 228 c 0
 426 102 348 -30 225 -30 c 0
 159 -30 108 -12 72 36 c 9
EndSplineSet
EndChar

StartChar: six.ss02
Encoding: 65670 -1 330
Width: 570
VWidth: 0
Flags: W
HStem: -9 97<210.648 359.508> 285 105<208.812 364.344>
VStem: 51 115<127.951 245.51> 402 114<126.587 246.465>
LayerCount: 2
Fore
SplineSet
290 88 m 0
 348 88 402 126 402 184 c 24
 402 243 363 285 288 285 c 0
 218 285 166 247 166 186 c 0
 166 125 221 88 290 88 c 0
268 654 m 9
 340 576 l 17
 282 517 233 452 198 381 c 9
 227 385 243 390 272 390 c 0
 390 390 516 313 516 183 c 0
 516 67 404 -9 288 -9 c 0
 144 -9 51 71 51 200 c 0
 51 397 134 526 268 654 c 9
EndSplineSet
EndChar

StartChar: seven.ss02
Encoding: 65671 -1 331
Width: 498
VWidth: 0
Flags: W
HStem: 0 21G<156 254.5> 561 80<54 328>
VStem: 156 98<0 195.682>
LayerCount: 2
Fore
SplineSet
328 561 m 9
 54 561 l 25
 50 641 l 25
 438 640 l 25
 438 550 l 21
 326 424 255 211 254 0 c 13
 156 0 l 17
 156 209 205 400 328 561 c 9
EndSplineSet
EndChar

StartChar: eight.ss02
Encoding: 65672 -1 332
Width: 480
VWidth: 0
Flags: W
HStem: -24 90<148.838 262.102> 294 99<161.819 266.973> 558 102<164.345 266.208>
VStem: 18 99<98.6655 257.766> 36 102<416.15 531.801> 291 93<416.248 532.514> 300 90<107.501 263.057>
LayerCount: 2
Fore
SplineSet
213 294 m 0xf2
 143 294 117 238 117 180 c 24
 117 122 137 66 213 66 c 0
 266 66 300 124 300 180 c 24
 300 236 281 294 213 294 c 0xf2
138 468 m 24xec
 138 427 172 393 213 393 c 24
 255 393 291 426 291 468 c 0
 291 525 258 558 213 558 c 0
 165 558 138 514 138 468 c 24xec
84 345 m 1
 60 381 36 426 36 477 c 0
 36 575 111 660 208 660 c 2
 210 660 l 10
 309 659 384 573 384 474 c 0xec
 384 429 372 396 336 354 c 1
 372 309 390 276 390 189 c 0
 390 78 327 -24 201 -24 c 0
 93 -24 18 72 18 180 c 0xf2
 18 255 48 303 84 345 c 1
EndSplineSet
EndChar

StartChar: nine.ss02
Encoding: 65673 -1 333
Width: 570
VWidth: 0
Flags: W
HStem: 255 105<202.049 358.006> 556 98<207.777 356.422>
VStem: 51 114<398.227 514.586> 400 116<399.981 517.338>
LayerCount: 2
Fore
SplineSet
278 556 m 4
 220 556 165 518 165 460 c 28
 165 401 204 360 279 360 c 4
 349 360 400 398 400 459 c 4
 400 520 347 556 278 556 c 4
298 -9 m 13
 226 69 l 21
 284 128 334 193 369 264 c 13
 340 260 325 255 296 255 c 4
 178 255 51 332 51 462 c 4
 51 578 163 654 279 654 c 4
 423 654 516 575 516 446 c 4
 516 249 432 119 298 -9 c 13
EndSplineSet
EndChar

StartChar: period.ss02
Encoding: 65674 -1 334
Width: 222
VWidth: 0
Flags: W
HStem: -9 108<33.676 120.324>
VStem: 23 108<1.67596 88.324>
LayerCount: 2
Fore
SplineSet
23 45 m 4
 23 75 47 99 77 99 c 4
 107 99 131 75 131 45 c 4
 131 15 107 -9 77 -9 c 4
 47 -9 23 15 23 45 c 4
EndSplineSet
EndChar

StartChar: hungarumlaut
Encoding: 733 733 338
Width: 1000
VWidth: 0
Flags: W
HStem: 702 35<341 365.676 548 572.676>
AnchorPoint: "Top" 297 662 mark 0
LayerCount: 2
Fore
SplineSet
238 655 m 25
 367 689 546 737 556 737 c 0
 567 737 573 731 573 723 c 0
 573 714 568 705 548 702 c 1
 548 700 359 673 238 655 c 25
31 655 m 25
 160 689 339 737 349 737 c 0
 360 737 366 731 366 723 c 0
 366 714 361 705 341 702 c 1
 341 700 152 673 31 655 c 25
EndSplineSet
EndChar

StartChar: uni0311
Encoding: 785 785 351
Width: 0
VWidth: 0
Flags: W
HStem: 707.639 29<129.121 259.298>
AnchorPoint: "Top" 200 660 mark 0
LayerCount: 2
Fore
SplineSet
31 654.639 m 21
 77 693.639 116 732.639 198 736.639 c 5
 272 736.639 367 654.639 367 654.639 c 29
 343 654.639 l 21
 291 685.639 259 707.639 199 707.639 c 31
 139 707.639 109 685.639 55 654.639 c 13
 31 654.639 l 21
EndSplineSet
EndChar

StartChar: Eth
Encoding: 208 208 445
Width: 388
VWidth: 0
Flags: W
HStem: -2 21G<133.5 235> 291 85<172.134 227.151> 615 20G<117.5 222>
VStem: 72 100<107.744 288.679> 94 75<383.15 530.659> 256 98<177.595 489.735>
AnchorPoint: "Top" 190 660 basechar 0
LayerCount: 2
Fore
SplineSet
172 255 m 16xf4
 174 213 175 171 175 127 c 0
 175 108 175 89 174 69 c 1
 250 88 256 249 256 368 c 0
 256 440 247 514 180 533 c 1
 173 483 170 437 169 393 c 0xec
 169 373 172 376 187 376 c 0
 236 376 228 350 228 321 c 0
 228 294 206 291 197 291 c 0
 172 291 171 272 172 255 c 16xf4
72 277 m 1xf4
 50 284 40 296 40 315 c 24
 41 344 61 355 74 381 c 17
 78 427 86 464 92 502 c 0
 93 508 94 514 94 520 c 0xec
 94 531 90 541 77 546 c 0
 66 551 58 560 58 572 c 0
 58 619 101 635 134 635 c 0
 310 635 354 504 354 369 c 0
 354 205 315 -2 155 -2 c 0
 153 -2 152 -2 150 -2 c 0
 117 -2 77 -1 77 36 c 0
 77 64 92 79 92 106 c 0
 92 143 76 193 72 277 c 1xf4
EndSplineSet
EndChar

StartChar: Oslash
Encoding: 216 216 446
Width: 348
VWidth: 0
Flags: W
HStem: -1 77<151.566 205.817> 619 20G<159 192 266 282.5>
VStem: 22 90<259.44 481.85> 229 87<115.227 370.977>
AnchorPoint: "Top" 176 656 basechar 0
LayerCount: 2
Fore
SplineSet
69 0 m 0
 48 0 34 21 41 40 c 2
 62 101 l 1
 34 165 22 250 22 324 c 0
 22 407 39 487 68 546 c 0
 96 603 141 639 177 639 c 0
 207 639 224 617 232 586 c 1
 243 616 l 2
 247 628 260 636 272 636 c 0
 293 636 307 615 300 596 c 2
 276 528 l 2
 277 527 277 526 278 525 c 0
 314 449 316 391 316 293 c 0
 316 167 290 -1 182 -1 c 0
 151 -1 124 12 103 35 c 1
 98 20 l 2
 94 8 81 0 69 0 c 0
183 542 m 1
 118 503 112 411 112 320 c 0
 112 306 114 284 117 258 c 1
 192 471 l 1
 184 491 177 503 177 514 c 0
 177 525 181 531 183 542 c 1
221 372 m 1
 138 134 l 1
 147 100 160 76 178 76 c 0
 225 76 229 196 229 276 c 0
 229 314 226 345 221 372 c 1
EndSplineSet
EndChar

StartChar: oslash
Encoding: 248 248 447
Width: 318
VWidth: 0
Flags: W
HStem: -1 52<135.763 193.444> 406 20G<146.5 178.5 256 272.5>
VStem: 20 83<172.162 324.404> 211 80<72.9486 237.882>
AnchorPoint: "Top" 161 490 basechar 0
LayerCount: 2
Fore
SplineSet
168 361 m 1
 108 335 103 274 103 213 c 0
 103 202 104 187 106 171 c 1
 180 311 l 1
 172 326 165 335 165 343 c 0
 165 350 167 354 168 361 c 1
58 -0 m 0
 37 0 25 18 36 39 c 2
 54 72 l 1
 30 114 20 169 20 216 c 0
 20 271 36 325 63 364 c 0
 89 402 130 426 163 426 c 0
 194 426 210 408 216 383 c 0
 217 382 l 2
 226 399 l 2
 235 417 250 424 262 424 c 0
 283 424 291 398 284 385 c 2
 261 342 l 1
 289 295 291 257 291 195 c 0
 291 111 266 -1 167 -1 c 0
 138 -1 113 9 93 25 c 1
 88 17 70 0 58 -0 c 0
127 89 m 1
 137 67 149 51 164 51 c 0
 207 51 211 131 211 184 c 0
 211 205 209 223 206 239 c 1
 127 89 l 1
EndSplineSet
EndChar

StartChar: guilsinglleft
Encoding: 8249 8249 469
Width: 263
VWidth: 0
Flags: W
VStem: 35 129
LayerCount: 2
Fore
SplineSet
151 419 m 0
 163 419 169 406 164 397 c 2
 65 213 l 1
 164 29 l 2
 169 20 163 7 151 7 c 0
 146 7 140 10 137 15 c 2
 35 206 l 2
 34 208 34 210 34 213 c 0
 34 215 34 218 35 220 c 2
 137 411 l 2
 140 416 146 419 151 419 c 0
EndSplineSet
EndChar

StartChar: guilsinglright
Encoding: 8250 8250 470
Width: 206
VWidth: 0
Flags: W
VStem: 28 132
LayerCount: 2
Fore
SplineSet
28 404 m 0
 28 412 34 419 43 419 c 0
 48 419 53 416 56 411 c 2
 158 220 l 2
 159 218 160 215 160 213 c 0
 160 210 159 208 158 206 c 2
 56 15 l 2
 53 10 48 7 43 7 c 0
 34 7 28 14 28 22 c 0
 28 24 29 27 30 29 c 2
 128 213 l 1
 30 397 l 2
 29 399 28 402 28 404 c 0
EndSplineSet
EndChar

StartChar: yen
Encoding: 165 165 472
Width: 362
VWidth: 0
Flags: W
HStem: -6 21G<168.5 203> 322 60<-12.9932 91.0841 267.635 368.774> 456 60<-12.9932 34.9842 153.148 208.591 322.746 368.774> 614 20G<63 102.878 264.503 301.5>
VStem: 32 108.74<516 607.759> 52.9838 100.164<410.751 456> 134 100<5.57269 238.753> 138 74<40.2935 320.783> 208.591 94.859<408.974 456>
AnchorPoint: "Top" 184 660 basechar 0
LayerCount: 2
Fore
SplineSet
191 -6 m 0xf2
 146 -6 134 31 134 67 c 0xf2
 134 122 138 162 138 209 c 0xf1
 138 226 137 244 136 264 c 0
 134.434 287.49 134.094 303.623 126.34 322 c 1
 16 322 l 2
 0 322 -15 334 -15 350 c 0
 -15 366 -1 382 15 382 c 2
 91.0841 382 l 1
 76.6316 406.461 63.3069 431.099 52.9838 456 c 1xf4
 16 456 l 2
 0 456 -15 468 -15 484 c 0
 -15 500 -1 516 15 516 c 2
 34.9842 516 l 1
 33.0494 527.265 32 538.596 32 550 c 0
 32 588 44 634 82 634 c 0
 123.755 634 130.434 577.878 140.74 516 c 1
 221.964 516 l 1
 233.782 579.221 242.005 635 287 635 c 0
 316 635 330 608 330 574 c 0
 330 555.759 327.492 536.329 322.746 516 c 1
 340 516 l 2
 358 516 370 502 370 486 c 0
 370 470 356 456 340 456 c 2
 303.45 456 l 1xf880
 293.801 431.967 281.741 407.171 267.635 382 c 1
 340 382 l 2
 358 382 370 368 370 352 c 0
 370 336 356 322 340 322 c 2
 230.689 322 l 1
 213.902 295.951 212 275.206 212 244 c 0xf1
 212 131 234 87 234 38 c 0
 234 14 215 -6 191 -6 c 0xf2
153.148 456 m 1xf480
 157.051 441.877 161.836 428.328 168 416 c 0
 175 403 180 399 183 399 c 0
 188 399 190 407 192 412 c 0
 198.875 425.751 204.212 440.649 208.591 456 c 1
 153.148 456 l 1xf480
EndSplineSet
EndChar

StartChar: thorn
Encoding: 254 254 473
Width: 400
VWidth: 0
Flags: W
HStem: -2 71<158 218.904> 355 71<153.211 239.28> 613.911 20G<96 127.5>
VStem: 43 112<-146.957 -3.64062 499.583 595.539> 48 89<108.643 317.55> 68 90<-84.7371 -2> 271 95<132.88 317.295>
LayerCount: 2
Fore
SplineSet
48 356 m 0xea
 48 386 43 492.8 43 522.8 c 0
 43 568.8 77 633.911 115 633.911 c 1
 140 633.911 155 608.911 155 581.911 c 0xf2
 155 540.711 118.817 498.829 127 416.999 c 1
 141 425.981 157 426 175 426 c 0
 313 426 366 313 366 215 c 0
 366 113 304 -2 173 -2 c 0
 168 -2 163 -2 158 -2 c 1
 158 -4 158 -5 158 -7 c 0
 158 -95 133 -195 80 -195 c 0
 55 -195 40 -170 40 -143 c 0
 40 -70 68 -46 68 66 c 0xe6
 68 118 48 260 48 356 c 0xea
137 225 m 0xea
 137 180 143 142 148 107 c 1
 154 96 164 69 185 69 c 0
 232 69 271 167 271 213 c 0
 271 271 257 355 194 355 c 0
 164 355 154 338 146 319 c 1
 142 288 137 261 137 225 c 0xea
EndSplineSet
EndChar

StartChar: Thorn
Encoding: 222 222 474
Width: 400
VWidth: 0
Flags: W
HStem: -2 21G<94.5 131.5> 619 20G<120.013 155.5>
VStem: 58 109<9.98273 195.577> 256 106<330.462 416.583>
AnchorPoint: "Top" 132 660 basechar 0
LayerCount: 2
Fore
SplineSet
151.275 425.928 m 1
 141 365.9 149.381 350.852 150 303.801 c 1
 199 314.8 256 312.9 256 379.9 c 0
 256 435.362 195.187 424.204 151.275 425.928 c 1
156.281 232.747 m 1
 161.603 178.155 167 117.667 167 69 c 0
 167 33 153 -2 110 -2 c 0
 79 -2 58 29 58 60 c 0
 58 114 71 146 71 198 c 0
 71 284.121 51.2768 336.798 48.3589 414 c 1
 38.2265 424.9 14 425.821 14 441.9 c 0
 14 454.476 26.1656 481.089 54.118 500.013 c 1
 66.6982 571.171 98.026 639 142 639 c 0
 169 639 186 614 186 587 c 0
 186 562.897 181.639 542.065 175.798 520.94 c 1
 268.353 515.376 362 484.179 362 389.9 c 0
 362 260.305 257.234 231.429 156.281 232.747 c 1
EndSplineSet
EndChar

StartChar: ogonek
Encoding: 731 731 475
Width: 202
VWidth: 0
Flags: W
HStem: -158 36<74.0749 135.534>
VStem: 10 60<-119.448 -34.3265>
LayerCount: 2
Fore
SplineSet
104 0 m 1
 48 -14 10 -36 10 -88 c 0
 10 -129.185 30 -158 94 -158 c 0
 126.16 -158 146 -132 159 -107 c 9
 152 -96 l 17
 138 -114 125.099 -122 102 -122 c 0
 82 -122 69.7015 -106.207 70 -88 c 24
 70.6035 -51.2129 72 -34 104 0 c 1
EndSplineSet
EndChar

StartChar: Eng
Encoding: 330 330 486
Width: 424
VWidth: 0
Flags: W
HStem: -203.8 61<167.67 254.398> -2 21G<130 156> 403 232<78 151.5>
VStem: 45 87<149.859 402.125> 272.5 97<-124.647 140.411> 292 89<561.417 626.283>
AnchorPoint: "Top" 212 660 basechar 0
LayerCount: 2
Fore
SplineSet
44 592 m 0xf8
 44 614 65 635 91 635 c 0
 113 635 135 621 148 601 c 0
 185 543 199 508 232 448 c 1
 255 509 259 547 292 603 c 0
 304 623 319 634 342 634 c 0
 366 634 381 618 381 597 c 0xf4
 381 536 317 466 317 318 c 0
 317 224.7 355.79 137.122 360.5 75.2002 c 1
 368.713 22.8994 369.5 -22.4951 369.5 -50.7998 c 4
 369.5 -158.8 283.5 -203.8 207.5 -203.8 c 0
 139.5 -203.8 79.5 -174.8 79.5 -117.8 c 0
 79.5 -92.7998 96.5 -79.7998 127.5 -79.7998 c 0
 174.5 -79.7998 148.5 -142.8 207.5 -142.8 c 0
 254.5 -142.8 272.5 -108.8 272.5 -32.7998 c 4
 272.5 4.04297 271.841 30.3057 263.603 74.6279 c 0
 243.238 174.688 230.094 276.243 160 394 c 0
 156 400 153 403 150 403 c 0
 138 403 132 352 132 324 c 0
 132 235 141 187 168 101 c 0
 175 80 179 68 179 46 c 0
 179 20 169 -2 143 -2 c 0
 117 -2 100 12 90 35 c 0
 59 109 45 152 45 242 c 0
 45 334 61 406 75 485 c 0
 76 490 76 494 76 498 c 0
 76 519 67 537 57 553 c 0
 49 565 44 579 44 592 c 0xf8
EndSplineSet
EndChar

StartChar: eng
Encoding: 331 331 487
Width: 374
VWidth: 0
Flags: W
HStem: -205 61<157.746 279.153> -2 21G<86.5 121> 356 70<184.952 274.993>
VStem: 44 91<374 417.511> 53 101<8.57217 203.302> 59 85<71.8896 311.251> 274 84<-49.7416 252.707> 300 83<-123.477 -14.482 102.516 331.256>
AnchorPoint: "Top" 207 490 basechar 0
LayerCount: 2
Fore
SplineSet
135 381 m 0xf0
 135 378 135 376 135 374 c 1
 161 406 181 426 241 426 c 0
 369 426 380 296 380 197 c 0
 380 129.438 358 82.2959 358 9.90039 c 0xf2
 358 -33.0996 383 -45.0996 383 -88.0996 c 0
 383 -162.1 328 -205 210 -205 c 0
 108 -205 68 -176 68 -119 c 0
 68 -94 85 -81 116 -81 c 0
 163 -81 130 -144 210 -144 c 0
 290 -144 300 -96.0996 300 -68.0996 c 4xe1
 300 -49.7305 274 -8.47704 274 60.9004 c 1
 274 112.256 295 149.214 295 217 c 0
 295 223 295 230 295 237 c 0
 295 289 291 356 234 356 c 0
 188 356 144 298 144 248 c 0xe6
 144 170 154 131 154 69 c 0
 154 33 141 -2 101 -2 c 0
 72 -2 53 29 53 60 c 0xe8
 53 118 59 148 59 206 c 0xe4
 59 244 44 306 44 338 c 0
 44 382 44 426 97 426 c 0
 132 426 135 396 135 381 c 0xf0
EndSplineSet
EndChar

StartChar: Hbar
Encoding: 294 294 488
Width: 424
VWidth: 0
Flags: W
HStem: 0 21G<85.5 124> 282 96<159.398 224> 449.7 60<6.00689 46.7038 171.687 234.098 356.853 396.262> 614 20G<300.155 339.5>
VStem: 45 114<80.0887 284 376 448.197> 49 124<21.6151 280.188> 56.8665 114.82<509.427 574.578> 242 103<18.3007 279.145>
LayerCount: 2
Fore
SplineSet
224 282 m 1xf3
 157 284 l 1
 158 202 173 164 173 76 c 0
 173 38 145 0 103 0 c 0
 68 0 49 24 49 54 c 0xf5
 49 86 50 115 50 142 c 0
 50 237 45 310 45 416 c 0xf9
 45 426.867 45.5902 438.127 46.7038 449.56 c 1
 35 449.7 l 2
 19.001 449.892 4 461.7 4 477.7 c 0
 4 493.7 18.001 509.892 34 509.7 c 2
 56.8665 509.427 l 1
 74.008 580.867 107.247 644 140 644 c 0
 169 644 198 633 198 604 c 0
 198 575.54 183.071 548.611 171.687 508.056 c 1
 242.866 507.206 l 1
 254.811 576.599 274.31 634 326 634 c 0
 353 634 377 612 377 585 c 0
 377 564.811 367.589 538.901 356.853 505.845 c 1
 369 505.7 l 2
 385 505.7 399 491.7 399 475.7 c 0
 399 459.7 385 445.7 369 445.7 c 2
 339.629 446.052 l 1
 331.871 413.54 326 376.091 326 333 c 0
 326 237 345 183 345 87 c 0
 345 38 335 -9 283 -9 c 0
 259 -9 231 1 231 29 c 0
 231 67 242 87 242 124 c 0
 242 186 226 224 224 282 c 1xf3
160.546 448.197 m 1
 159.56 437.586 159 426.224 159 414 c 0xf9
 159 402 160 389 161 376 c 1
 224 378 l 1
 227.866 399.977 230.946 423.61 234.098 447.316 c 1
 160.546 448.197 l 1
EndSplineSet
EndChar

StartChar: hbar
Encoding: 295 295 489
Width: 430
VWidth: 0
Flags: W
HStem: -2 21G<86.5 121> 356 70<197.151 279.666> 491.7 60<2.00699 48.3937 167.777 222.262> 619 20G<115.848 143.5>
VStem: 44 91<375.788 487.425> 53 101<8.57217 195.622> 65 93<71.8911 310.592> 303 85<102.911 333.36>
LayerCount: 2
Fore
SplineSet
65 198 m 0xf3
 65 291 44 345 44 433 c 0
 44 451.554 45.5114 471.442 48.3937 491.276 c 1
 31 491.7 l 2
 15.002 492.091 0 503.7 0 519.7 c 0
 0 535.7 14.002 552.088 30 551.7 c 2
 61.5273 550.936 l 1
 76.6043 600.424 100.696 639 131 639 c 0
 156 639 171 614 171 587 c 0
 171 572.529 169.776 560.008 167.777 548.36 c 1
 195 547.7 l 2
 211 547.7 225 533.7 225 517.7 c 0
 225 501.7 211 487.7 195 487.7 c 2
 152.365 488.74 l 1
 144.546 460.785 136.833 427.157 135 374 c 1xf9
 163 410 197 426 249 426 c 0
 389 426 388 292 388 193 c 0
 388 117 381 -8 309 -8 c 0
 290 -8 260 5 260 23 c 0
 260 83 303 109 303 213 c 0
 303 265 299 356 242 356 c 0
 192 356 158 282 158 250 c 0xf3
 158 172 154 131 154 69 c 0
 154 33 141 -2 101 -2 c 0
 72 -2 53 29 53 60 c 0xf5
 53 114 65 147 65 198 c 0xf3
EndSplineSet
EndChar

StartChar: Lslash
Encoding: 321 321 490
Width: 316
VWidth: 0
Flags: W
HStem: -2 21G<63 92> 11 86<123.875 243.418> 616 20G<98.6301 142>
VStem: 34.1595 81.8405<129.785 325.948>
LayerCount: 2
Fore
SplineSet
161 11 m 0x70
 127 11 108 -2 76 -2 c 0xb0
 50 -2 29 15 29 46 c 0
 29 68 44 81 60 92 c 1
 50.7733 185.944 38.0288 246.117 34.1595 328.583 c 1
 22.2998 320 l 2
 9.33789 310.619 -9.7002 311 -19.3008 323.8 c 0
 -28.9004 336.6 -27.4629 358.018 -14.5 367.4 c 2
 33.7011 402.29 l 1
 38.4182 487.18 67.2602 636 130 636 c 0
 154 636 171 613 171 589 c 0
 171 573.849 159.407 538.885 146.866 484.203 c 1
 157.5 491.9 l 2
 170.3 501.5 189.899 498.7 199.5 485.9 c 0
 209.1 473.1 206.3 453.5 193.5 443.9 c 2
 130.289 398.153 l 1
 122.126 345.485 116 282.422 116 209 c 0
 116 166 122 140 126 95 c 1
 152 96 167 97 193 97 c 0
 233 97 285 83 285 46 c 0
 285 23 268 1 245 1 c 0
 211 1 193 11 161 11 c 0x70
EndSplineSet
EndChar

StartChar: lslash
Encoding: 322 322 491
Width: 218
VWidth: 0
Flags: W
HStem: -2 21G<86.5 121> 619 20G<104.5 143.5>
VStem: 44 127<490.493 561.282> 53 101<8.57217 195.622>
LayerCount: 2
Fore
SplineSet
136.001 402.559 m 1xe0
 134.736 389.227 134 374.8 134 359 c 0
 134 307 154 165 154 69 c 0
 154 33 141 -2 101 -2 c 0
 72 -2 53 29 53 60 c 0xd0
 53 114 65 147 65 198 c 0
 65 254.606 57.22 296.764 51.1308 340.934 c 1
 22.2998 320 l 2
 9.35059 310.599 -9.7002 311 -19.3008 323.8 c 0
 -28.9004 336.6 -27.4482 357.998 -14.5 367.4 c 2
 44.4709 410.224 l 1
 44.1669 417.581 44 425.155 44 433 c 0
 44 521 78 639 131 639 c 0
 156 639 171 614 171 587 c 0
 171 550.971 161.987 522.25 152.858 488.934 c 1
 195.5 519.9 l 2
 208.3 529.5 227.899 526.7 237.5 513.9 c 0
 247.1 501.1 244.3 481.5 231.5 471.9 c 2
 136.001 402.559 l 1xe0
EndSplineSet
EndChar

StartChar: tbar
Encoding: 359 359 492
Width: 218
VWidth: 0
Flags: W
HStem: -13 101<135.849 178.25> 193.6 60<-5.49301 44.9989 129.943 214.762> 337 89<139.13 198.208>
VStem: 45.6496 84.2936<90.3819 191.003 253.054 336.506>
AnchorPoint: "Top" 115 660 basechar 0
LayerCount: 2
Fore
SplineSet
190 36 m 0
 190 6 167 -13 141 -13 c 0
 131 -13 121 -10 112 -6 c 0
 51.9722 24.4756 48.2332 108.682 45.6496 193.059 c 1
 23.5 193.6 l 2
 7.50195 193.99 -7.5 205.6 -7.5 221.6 c 0
 -7.5 237.6 6.50195 253.987 22.5 253.6 c 2
 44.9989 253.054 l 1
 46.0596 284.403 48.879 311.612 46 344 c 1
 31 351 23 361 23 377 c 0
 23 399 42 421 53 436 c 1
 62 478 66 561 111 561 c 0
 136 561 151 538 151 514 c 0
 151 503 139 426 139 426 c 1
 188 426 238 410 238 366 c 0
 238 345 224 329 199 329 c 0
 182 329 172 337 155 337 c 0
 132.626 337 129.318 293.981 129.352 251.009 c 1
 187.5 249.6 l 2
 203.5 249.6 217.5 235.6 217.5 219.6 c 0
 217.5 203.6 203.5 189.6 187.5 189.6 c 2
 129.943 191.003 l 1
 129.549 156.982 127.853 99.0735 150 88 c 0
 172 77 190 59 190 36 c 0
EndSplineSet
EndChar

StartChar: Tbar
Encoding: 358 358 493
Width: 400
VWidth: 0
Flags: W
HStem: -6 21G<183.5 214> 309.6 60<60.507 126.165 244.284 275.168> 503 131<58.9246 125.155> 541 88<245.355 307.205>
VStem: 126 107<368.093 532.846> 130.105 114.178<179.52 303.376> 144 113<13.5282 301.586>
AnchorPoint: "Top" 210 660 basechar 0
LayerCount: 2
Fore
SplineSet
146 536 m 1xd8
 117 523 101 503 72 503 c 0
 49 503 34 527 34 549 c 0
 34 610 77 634 116 634 c 0xe8
 157 634 222 633 276 629 c 0
 331 625 372 627 372 589 c 0
 372 555 351 513 328 513 c 0
 308 513 301 526 283 538 c 0
 280 540 275 541 272 541 c 0
 236 541 233 467 233 439 c 0xd8
 233 409.351 234.288 384.96 236.267 363.689 c 1
 278.5 362 l 2
 294.487 361.36 308.5 348 308.5 332 c 0
 308.5 316 294.486 301.357 278.5 302 c 2
 244.284 303.376 l 1xd4
 250.513 265.139 257 231.071 257 177 c 0
 257 125 253 103 253 51 c 0
 253 33 229 -6 199 -6 c 0
 168 -6 138 12 138 45 c 0
 138 76 144 112 144 155 c 0xd2
 144 205.406 135.418 254.859 130.105 307.967 c 1xd4
 89.5 309.6 l 2
 73.502 309.954 58.5 321.6 58.5 337.6 c 0
 58.5 353.6 72.502 369.952 88.5 369.6 c 2
 126.165 368.093 l 1
 126.057 372.692 126 377.327 126 382 c 0
 126 442 138 476 146 536 c 1xd8
EndSplineSet
EndChar

StartChar: uni00B5
Encoding: 181 181 494
Width: 400
VWidth: 0
Flags: W
HStem: -4 70<124.885 216.705> 404 20G<94.585 139.835 294.798 343.863>
VStem: 3.75879 101.268<-196.685 -9.69319> 25.125 78.625<-85.5963 16.4004> 34 79.5719<75.5481 291.764> 268.896 84.6062<122.857 367.256>
AnchorPoint: "Top" 227 490 basechar 0
LayerCount: 2
Fore
SplineSet
330.41 424 m 0xcc
 357.315 424 373.279 397.316 373.279 368.706 c 0
 373.279 338.44 353.502 265.478 353.502 197.291 c 0
 353.502 147.648 362.05 99.0743 362.05 62.5453 c 0
 362.05 24.8643 352.954 1.90735e-06 316 0 c 0
 279.837 0 261.429 24.137 263.515 48 c 1
 234.715 16 212.965 -4 152.965 -4 c 0
 138.697 -4 118.315 0 103.75 16.4004 c 1xd4
 104.323 -13.6427 105.027 -52.6305 105.027 -87.2209 c 4
 105.027 -148.769 102.952 -213.6 43.6279 -213.6 c 0
 16.7226 -213.6 3.75879 -186.916 3.75879 -158.306 c 0xe4
 3.75879 -101.381 20.5426 -65.977 25.125 -13.5996 c 0xd4
 32.4326 69.9199 26.7061 141.626 34 225 c 0
 40.6494 301 58.585 426 130.585 426 c 0
 149.085 426 176.935 413.676 176.935 396.411 c 0
 176.935 335.994 113.787 325.756 113.572 144.306 c 0
 113.572 101.54 123.384 66 166.09 66 c 0
 212.09 66 261.164 124 265.538 174 c 0
 268.468 207.49 268.896 230.636 268.896 256.215 c 0
 268.896 325.209 259.186 424 330.41 424 c 0xcc
EndSplineSet
EndChar

StartChar: ordfeminine
Encoding: 170 170 495
Width: 207
VWidth: 106
Flags: W
HStem: 134.016 35.5244<55.6368 177.581> 143.15 34.5098<23.5277 140.224> 200.075 30<65.8494 122.143> 316.575 27.5<76.9144 119.679> 378.075 35<49.2337 120.19>
VStem: 12 47.5<233.451 308.455> 126.5 44.5<227.057 311.247 344.746 376.024>
LayerCount: 2
Fore
SplineSet
131.019 134.016 m 0xbe
 101.329 134.016 77.8428 143.15 43.7227 143.15 c 0
 29.543 143.15 21.123 140.105 6.5 138.075 c 1
 6.5 165.48 20.2373 177.66 64.5498 177.66 c 0x7e
 94.6816 177.66 120.826 169.54 152.288 169.54 c 0
 161.594 169.54 170.899 170.555 179.762 176.138 c 1
 180.205 174.615 180.205 173.093 180.205 171.57 c 0
 180.205 148.732 177.104 134.016 131.019 134.016 c 0xbe
121 360.075 m 0
 121 369.575 110.5 378.075 87 378.075 c 0
 57.5 378.075 61 358.575 37.5 358.575 c 0
 22 358.575 13.5 365.575 13.5 374.075 c 0
 13.5 393.075 54 413.075 88 413.075 c 0
 126 413.075 165 400.575 165 376.075 c 0
 165 351.575 163.5 357.575 163.5 320.075 c 0
 163.5 302.575 171 255.575 171 223.575 c 0
 171 211.575 164.5 199.575 144.5 199.575 c 0
 139.5 199.575 135 201.075 131.5 203.075 c 1
 124.5 201.075 116.5 200.075 107.5 200.075 c 0
 38.5 200.075 12 238.075 12 270.575 c 0
 12 314.075 43 344.075 107 344.075 c 0
 110 344.075 113 344.075 116 344.075 c 1
 120.5 353.075 121 352.075 121 354.075 c 0
 121 355.075 121 356.575 121 360.075 c 0
126.5 267.075 m 0
 126.5 282.075 123.5 295.075 121 306.575 c 1
 113.5 309.075 113 316.575 102.5 316.575 c 0
 79 316.575 59.5 286.575 59.5 271.075 c 0
 59.5 251.575 66.5 230.075 98 230.075 c 0
 113 230.075 118 235.575 122 242.075 c 1
 124 252.075 126.5 256.075 126.5 267.075 c 0
EndSplineSet
EndChar

StartChar: ordmasculine
Encoding: 186 186 496
Width: 174
VWidth: 106
Flags: W
HStem: 137.845 37.0127<44.899 151.365> 147.362 35.9551<17.7614 118.749> 196.575 26<70.0578 100.218>
VStem: 13 41.5<228.553 370.345> 108.5 40<223.794 359.693>
LayerCount: 2
Fore
SplineSet
110.712 137.845 m 0xb8
 84.791 137.845 64.2871 147.362 34.4971 147.362 c 0
 22.1172 147.362 14.7666 144.19 2 142.075 c 1
 2 170.628 13.9932 183.317 52.6807 183.317 c 0x78
 78.9883 183.317 101.813 174.857 129.282 174.857 c 0
 137.406 174.857 145.53 175.915 153.269 181.731 c 1
 153.655 180.146 153.655 178.559 153.655 176.973 c 0
 153.655 153.179 150.947 137.845 110.712 137.845 c 0xb8
87 377.575 m 17
 57 364.575 54.5 334.075 54.5 303.575 c 0
 54.5 279.575 65 222.575 85 222.575 c 0
 106.5 222.575 108.5 262.575 108.5 289.075 c 0
 108.5 341.575 85.5 358.575 85.5 368.575 c 0
 85.5 372.075 86.5 374.075 87 377.575 c 17
111 388.575 m 1
 118.5 381.075 125.5 380.075 131 372.075 c 0
 147.5 346.575 148.5 327.075 148.5 294.575 c 0
 148.5 252.575 136 196.575 86.5 196.575 c 0
 34 196.575 13 257.575 13 305.075 c 0
 13 332.575 21 359.575 34.5 379.075 c 0
 47.5 398.075 68 410.075 84.5 410.075 c 0
 100 410.075 108 401.075 111 388.575 c 1
EndSplineSet
EndChar

StartChar: eth
Encoding: 240 240 497
Width: 332
VWidth: 0
Flags: W
HStem: -1 52<137.648 194.135> 538.499 69<10.4589 73.7165>
VStem: 20 83<99.7734 304.621> 216 84<82.7463 346.115>
AnchorPoint: "Top" 161 490 basechar 0
LayerCount: 2
Fore
SplineSet
300 195 m 0
 300 111 266 -1 167 -1 c 0
 62 -1 20 121 20 216 c 0
 20 271 36 325 63 364 c 0
 89.8404 403.228 131.478 428.775 168.949 425.767 c 1
 154.89 454.439 137.853 478.713 118.226 497.493 c 1
 49.5 463.5 l 1
 17.5 499.5 l 1
 74.7578 527.821 l 1
 64.4607 532.668 53.6964 536.26 42.5 538.499 c 0
 20.9272 542.813 7.5 554.499 7.5 574.499 c 0
 7.5 593.499 19.5 607.499 48.5 607.499 c 1
 81.5567 603.474 117.25 589.949 151.072 565.568 c 1
 203.5 591.5 l 1
 235.5 555.5 l 1
 189.034 532.517 l 1
 251.518 467.623 300 358.569 300 195 c 0
187.5 363.5 m 1
 127.5 337.5 103 274 103 213 c 0
 103 165 124 51 164 51 c 0
 207 51 216 131 216 184 c 0
 216 308.604 195.5 343.5 187.5 363.5 c 1
EndSplineSet
EndChar

StartChar: dagger
Encoding: 8224 8224 500
Width: 396
VWidth: 0
Flags: W
HStem: 459.998 72<37.4452 171.708 212.292 346.555>
VStem: 153 78<524.177 650.232> 185 14<-8.61355 175.07 445.046 483.998>
LayerCount: 2
Fore
SplineSet
185 -0.00195312 m 4xa0
 185 151.998 182 263.998 156 389.998 c 5
 185 425.998 180 483.998 180 483.998 c 29
 143.34 474.638 124 459.998 86 459.998 c 4
 58 459.998 34 471.332 34 495.998 c 28
 34 520.664 56 531.998 86 531.998 c 4
 124 531.998 143.34 517.358 180 507.998 c 29
 169.47 544.658 153 565.998 153 601.998 c 4
 153 626.998 164.337 654.997 192 654.998 c 4
 219.662 654.999 231 627 231 602 c 4xc0
 231 566 214.53 544.66 204 508 c 29
 240.66 517.36 260 532 298 532 c 4
 328 532 350 520.666 350 496 c 28
 350 471.334 326 460 298 460 c 4
 260 460 240.66 474.64 204 484 c 29
 204 484 199 426 228 390 c 5
 202 264 199 152 199 0 c 4
 199 -16 185 -16.002 185 -0.00195312 c 4xa0
EndSplineSet
EndChar

StartChar: daggerdbl
Encoding: 8225 8225 501
Width: 396
VWidth: 0
Flags: W
HStem: 76.6475 57.5996<35.0039 178.294 205.706 348.996> 478.253 57.5996<35.0039 178.294 205.706 348.996>
VStem: 153 78<-24.6886 82.9063 529.594 637.189> 185 14<115.049 138.23 240.287 372.213 474.27 497.451>
LayerCount: 2
Fore
SplineSet
199 306.25 m 0xd0
 199 359 211.5 402.5 228 436.251 c 1
 199 465.051 204 497.451 204 497.451 c 25
 240.66 489.964 260 478.252 298 478.252 c 0
 326 478.252 350 483.869 350 507.052 c 24
 350 530.234 328 535.852 298 535.852 c 0
 260 535.852 240.66 524.14 204 516.651 c 25
 214.53 545.979 231 563.052 231 591.852 c 0
 231 611.852 219.662 642.251 192 642.251 c 0
 164.338 642.252 153 611.853 153 591.853 c 0xe0
 153 563.053 169.47 545.98 180 516.652 c 25
 143.34 524.141 124 535.853 86 535.853 c 0
 56 535.853 34 530.235 34 507.053 c 24
 34 483.87 58 478.253 86 478.253 c 0
 124 478.253 143.34 489.965 180 497.452 c 25
 180 497.452 185 465.052 156 436.252 c 1
 172.5 402.501 185 359.001 185 306.249 c 0xd0
 185 253.499 172.5 209.999 156 176.248 c 1
 185 147.448 180 115.048 180 115.048 c 25
 143.34 122.535 124 134.247 86 134.247 c 0
 58 134.247 34 128.63 34 105.447 c 24
 34 82.2646 56 76.6475 86 76.6475 c 0
 124 76.6475 143.34 88.3594 180 95.8477 c 25
 169.47 66.5195 153 49.4473 153 20.6475 c 0
 153 0.647461 164.338 -29.752 192 -29.751 c 0
 219.662 -29.751 231 0.648438 231 20.6484 c 0xe0
 231 49.4482 214.53 66.5205 204 95.8486 c 25
 240.66 88.3604 260 76.6484 298 76.6484 c 0
 328 76.6484 350 82.2656 350 105.448 c 24
 350 128.631 326 134.248 298 134.248 c 0
 260 134.248 240.66 122.536 204 115.049 c 25
 204 115.049 199 147.449 228 176.249 c 1
 211.5 210 199 253.5 199 306.25 c 0xd0
EndSplineSet
EndChar
